<svg width="20" height="20" viewBox="0 0 20 20" fill="none" xmlns="http://www.w3.org/2000/svg">
<path d="M9.99992 3.33325C10.884 3.33325 11.7318 3.68444 12.3569 4.30956C12.9821 4.93468 13.3333 5.78253 13.3333 6.66658C13.3333 7.55064 12.9821 8.39849 12.3569 9.02361C11.7318 9.64873 10.884 9.99992 9.99992 9.99992C9.11586 9.99992 8.26802 9.64873 7.6429 9.02361C7.01777 8.39849 6.66658 7.55064 6.66658 6.66658C6.66658 5.78253 7.01777 4.93468 7.6429 4.30956C8.26802 3.68444 9.11586 3.33325 9.99992 3.33325ZM9.99992 11.6666C13.6833 11.6666 16.6666 13.1583 16.6666 14.9999V16.6666H3.33325V14.9999C3.33325 13.1583 6.31658 11.6666 9.99992 11.6666Z" fill="#F5F5F5"/>
</svg>
