<svg width="24" height="24" viewBox="0 0 24 24" fill="none" xmlns="http://www.w3.org/2000/svg">
<path d="M3 3H21C21.2652 3 21.5196 3.10536 21.7071 3.29289C21.8946 3.48043 22 3.73478 22 4V20C22 20.2652 21.8946 20.5196 21.7071 20.7071C21.5196 20.8946 21.2652 21 21 21H3C2.73478 21 2.48043 20.8946 2.29289 20.7071C2.10536 20.5196 2 20.2652 2 20V4C2 3.73478 2.10536 3.48043 2.29289 3.29289C2.48043 3.10536 2.73478 3 3 3ZM8.5 14V16H11V18H13V16H14C14.663 16 15.2989 15.7366 15.7678 15.2678C16.2366 14.7989 16.5 14.163 16.5 13.5C16.5 12.837 16.2366 12.2011 15.7678 11.7322C15.2989 11.2634 14.663 11 14 11H10C9.86739 11 9.74021 10.9473 9.64645 10.8536C9.55268 10.7598 9.5 10.6326 9.5 10.5C9.5 10.3674 9.55268 10.2402 9.64645 10.1464C9.74021 10.0527 9.86739 10 10 10H15.5V8H13V6H11V8H10C9.33696 8 8.70107 8.26339 8.23223 8.73223C7.76339 9.20107 7.5 9.83696 7.5 10.5C7.5 11.163 7.76339 11.7989 8.23223 12.2678C8.70107 12.7366 9.33696 13 10 13H14C14.1326 13 14.2598 13.0527 14.3536 13.1464C14.4473 13.2402 14.5 13.3674 14.5 13.5C14.5 13.6326 14.4473 13.7598 14.3536 13.8536C14.2598 13.9473 14.1326 14 14 14H8.5Z" fill="white"/>
</svg>
