<svg width="48" height="48" viewBox="0 0 48 48" fill="none" xmlns="http://www.w3.org/2000/svg">
<circle cx="24" cy="24" r="24" fill="url(#lkl4lk1j2kl)"/>
<circle cx="24.0005" cy="23.999" r="20" fill="url(#nl1k2j43)"/>
<circle cx="24.0005" cy="23.999" r="20.5833" stroke="white" stroke-opacity="0.4" stroke-width="1.16667"/>
<circle cx="24.0005" cy="23.999" r="20.5833" stroke="url(#lkj1h4l1h23l1)" stroke-opacity="0.24" stroke-width="1.16667"/>
<g clip-path="url(#clip0)">
<path d="M17.4433 23.3617C18.0777 23.2878 18.86 23.3958 19.4954 23.532C19.5574 23.5453 19.6217 23.5238 19.6637 23.4761C20.2473 22.8133 20.7454 22.254 21.037 21.9235C21.1427 21.8037 21.0468 21.6165 20.8878 21.6323C20.38 21.6827 19.534 21.8043 18.8503 22.0513C18.3028 22.2471 17.6617 22.6028 17.2849 23.0795C17.1885 23.2013 17.289 23.3797 17.4433 23.3617Z" fill="url(#1h39hl1)"/>
<path d="M29.9043 18.75C29.9043 17.5969 30.746 17.3592 30.8613 17.3325C31.1471 17.2812 31.3405 17.0214 31.3151 16.7313C31.2902 16.4406 31.0399 16.2187 30.7481 16.2187H30.5575L31.6811 15.2358C32.0707 14.8944 31.8291 14.25 31.3106 14.25H23.9981C21.3712 14.25 19.458 14.8744 18.3116 16.1055C17.7035 16.7585 17.4403 17.4541 17.328 17.9737C17.3003 18.1017 17.4164 18.214 17.5433 18.1816C18.4109 17.9601 19.1677 17.9015 19.2534 17.9077C19.5343 17.9231 19.7794 18.1583 19.7794 18.4695C19.7804 19.327 21.4235 20.068 22.4443 20.3755C22.4866 20.3883 22.5318 20.3845 22.5716 20.3654C22.6668 20.3199 22.7735 20.2949 22.8865 20.2971C23.2525 20.3041 23.558 20.6001 23.5754 20.9658C23.5945 21.3697 23.2727 21.7032 22.873 21.7032C22.855 21.7032 22.8371 21.7025 22.8194 21.7011C22.7643 21.6968 22.7105 21.7187 22.6741 21.7603C22.3407 22.1415 21.7579 22.8012 20.751 23.944C20.2277 24.5379 19.803 25.2141 19.5116 25.9501C18.9202 27.4433 17.905 28.8768 16.8681 29.8667C16.4571 30.2433 16.7897 30.9281 17.3406 30.836L20.1478 30.3681L20.3475 31.7669C20.4065 32.1793 20.8752 32.3829 21.2165 32.1554L23.3639 30.7238L24.7255 32.0851C24.9332 32.2932 25.2658 32.3059 25.489 32.1146L27.0247 30.7984L28.066 32.0475C28.3114 32.3421 28.7726 32.3094 28.9751 31.9856L30.1465 30.1111L32.2576 30.8149C32.6233 30.9362 32.998 30.6634 32.998 30.2812C32.9981 26.5381 29.9043 20.2617 29.9043 18.75ZM22.5919 19.3125C22.1267 19.3125 21.7481 18.9338 21.7481 18.4687C21.7481 18.0036 22.1267 17.625 22.5919 17.625C23.057 17.625 23.4356 18.0036 23.4356 18.4687C23.4356 18.9338 23.057 19.3125 22.5919 19.3125Z" fill="url(#hh1j1l23j)"/>
<path d="M18.7677 19.1104C18.9316 19.5593 19.2729 19.9742 19.789 20.352C19.9124 20.4424 19.8687 20.6375 19.7184 20.6658C18.3675 20.9203 17.0214 21.459 16.2589 22.5782V22.5785C15.998 22.9607 15.8554 23.4157 15.8342 23.8227L15.8342 23.8237C15.8267 23.997 15.5984 24.0575 15.508 23.9095C15.194 23.3952 15.041 22.7674 15.0058 22.1554C14.9898 21.8781 15.0412 21.6009 15.1525 21.3464C15.4775 20.6027 16.0525 19.4532 18.7677 19.1104Z" fill="url(#lkj41k2khl3)"/>
</g>
<g style="mix-blend-mode:overlay" opacity="0.6">
<path d="M0 24C0 37.2548 10.7452 48 24 48C37.2548 48 48 37.2548 48 24C48 10.7452 37.2548 0 24 0C10.7452 0 0 10.7452 0 24Z" fill="#144545"/>
</g>
<defs>
<linearGradient id="lkl4lk1j2kl" x1="5.95862" y1="5.62759" x2="39.8897" y2="43.6966" gradientUnits="userSpaceOnUse">
<stop stop-color="#F7F7F7"/>
<stop offset="1" stop-color="#ADADAD"/>
</linearGradient>
<linearGradient id="nl1k2j43" x1="38.8862" y1="38.0289" x2="21.1605" y2="4.80158" gradientUnits="userSpaceOnUse">
<stop stop-color="#B8B8B8"/>
<stop offset="1" stop-color="#E9E9E9"/>
</linearGradient>
<linearGradient id="lkj1h4l1h23l1" x1="24.0005" y1="3.99902" x2="24.0005" y2="43.999" gradientUnits="userSpaceOnUse">
<stop/>
<stop offset="1" stop-opacity="0.2"/>
</linearGradient>
<linearGradient id="1h39hl1" x1="17.2626" y1="21.6313" x2="18.4683" y2="24.5981" gradientUnits="userSpaceOnUse">
<stop stop-color="#D2D2D2"/>
<stop offset="1" stop-color="#B1B1B1"/>
</linearGradient>
<linearGradient id="hh1j1l23j" x1="16.7506" y1="14.25" x2="33.0006" y2="32.25" gradientUnits="userSpaceOnUse">
<stop stop-color="#D2D2D2"/>
<stop offset="1" stop-color="#B1B1B1"/>
</linearGradient>
<linearGradient id="lkj41k2khl3" x1="15.0226" y1="19.1104" x2="19.3704" y2="24.3971" gradientUnits="userSpaceOnUse">
<stop stop-color="#D2D2D2"/>
<stop offset="1" stop-color="#B1B1B1"/>
</linearGradient>
<clipPath id="clip0">
<rect width="18" height="18" fill="white" transform="translate(15 14.25)"/>
</clipPath>
</defs>
</svg>
