<svg width="20" height="20" viewBox="0 0 20 20" fill="none" xmlns="http://www.w3.org/2000/svg">
<path d="M9.99984 1.66675C10.2209 1.66675 10.4328 1.75455 10.5891 1.91083C10.7454 2.06711 10.8332 2.27907 10.8332 2.50008V5.00008C10.8332 5.2211 10.7454 5.43306 10.5891 5.58934C10.4328 5.74562 10.2209 5.83342 9.99984 5.83342C9.77882 5.83342 9.56686 5.74562 9.41058 5.58934C9.2543 5.43306 9.1665 5.2211 9.1665 5.00008V2.50008C9.1665 2.27907 9.2543 2.06711 9.41058 1.91083C9.56686 1.75455 9.77882 1.66675 9.99984 1.66675ZM9.99984 14.1667C10.2209 14.1667 10.4328 14.2545 10.5891 14.4108C10.7454 14.5671 10.8332 14.7791 10.8332 15.0001V17.5001C10.8332 17.7211 10.7454 17.9331 10.5891 18.0893C10.4328 18.2456 10.2209 18.3334 9.99984 18.3334C9.77882 18.3334 9.56686 18.2456 9.41058 18.0893C9.2543 17.9331 9.1665 17.7211 9.1665 17.5001V15.0001C9.1665 14.7791 9.2543 14.5671 9.41058 14.4108C9.56686 14.2545 9.77882 14.1667 9.99984 14.1667ZM18.3332 10.0001C18.3332 10.2211 18.2454 10.4331 18.0891 10.5893C17.9328 10.7456 17.7209 10.8334 17.4998 10.8334H14.9998C14.7788 10.8334 14.5669 10.7456 14.4106 10.5893C14.2543 10.4331 14.1665 10.2211 14.1665 10.0001C14.1665 9.77907 14.2543 9.56711 14.4106 9.41083C14.5669 9.25455 14.7788 9.16675 14.9998 9.16675H17.4998C17.7209 9.16675 17.9328 9.25455 18.0891 9.41083C18.2454 9.56711 18.3332 9.77907 18.3332 10.0001ZM5.83317 10.0001C5.83317 10.2211 5.74537 10.4331 5.58909 10.5893C5.43281 10.7456 5.22085 10.8334 4.99984 10.8334H2.49984C2.27882 10.8334 2.06686 10.7456 1.91058 10.5893C1.7543 10.4331 1.6665 10.2211 1.6665 10.0001C1.6665 9.77907 1.7543 9.56711 1.91058 9.41083C2.06686 9.25455 2.27882 9.16675 2.49984 9.16675H4.99984C5.22085 9.16675 5.43281 9.25455 5.58909 9.41083C5.74537 9.56711 5.83317 9.77907 5.83317 10.0001ZM15.8923 15.8926C15.7361 16.0488 15.5241 16.1366 15.3032 16.1366C15.0822 16.1366 14.8703 16.0488 14.714 15.8926L12.9465 14.1251C12.7947 13.9679 12.7107 13.7574 12.7126 13.5389C12.7145 13.3204 12.8021 13.1114 12.9567 12.9569C13.1112 12.8024 13.3202 12.7148 13.5387 12.7129C13.7572 12.711 13.9677 12.795 14.1248 12.9467L15.8923 14.7134C15.9698 14.7908 16.0313 14.8827 16.0732 14.9839C16.1152 15.085 16.1367 15.1935 16.1367 15.303C16.1367 15.4125 16.1152 15.521 16.0732 15.6221C16.0313 15.7233 15.9698 15.8152 15.8923 15.8926ZM7.05317 7.05341C6.8969 7.20964 6.68497 7.2974 6.464 7.2974C6.24303 7.2974 6.03111 7.20964 5.87484 7.05341L4.10817 5.28675C3.9518 5.13049 3.86391 4.91852 3.86384 4.69746C3.86376 4.4764 3.9515 4.26437 4.10775 4.108C4.26401 3.95163 4.47598 3.86374 4.69704 3.86366C4.9181 3.86358 5.13014 3.95132 5.2865 4.10758L7.05317 5.87508C7.2094 6.03135 7.29716 6.24328 7.29716 6.46425C7.29716 6.68522 7.2094 6.89714 7.05317 7.05341ZM4.10817 15.8926C3.95194 15.7363 3.86418 15.5244 3.86418 15.3034C3.86418 15.0824 3.95194 14.8705 4.10817 14.7142L5.87567 12.9467C5.95254 12.8672 6.0445 12.8037 6.14617 12.76C6.24784 12.7163 6.35719 12.6933 6.46784 12.6924C6.57849 12.6914 6.68822 12.7125 6.79063 12.7544C6.89305 12.7963 6.98609 12.8582 7.06433 12.9364C7.14258 13.0147 7.20445 13.1077 7.24636 13.2101C7.28826 13.3125 7.30934 13.4223 7.30838 13.5329C7.30742 13.6436 7.28443 13.7529 7.24076 13.8546C7.19708 13.9563 7.1336 14.0482 7.054 14.1251L5.28734 15.8926C5.20994 15.9701 5.11804 16.0315 5.01687 16.0735C4.91571 16.1154 4.80727 16.137 4.69775 16.137C4.58824 16.137 4.4798 16.1154 4.37864 16.0735C4.27747 16.0315 4.18556 15.9701 4.10817 15.8926ZM12.9465 7.05341C12.7903 6.89714 12.7025 6.68522 12.7025 6.46425C12.7025 6.24328 12.7903 6.03135 12.9465 5.87508L14.7132 4.10758C14.8694 3.95121 15.0814 3.86332 15.3025 3.86325C15.5235 3.86317 15.7356 3.95091 15.8919 4.10716C16.0483 4.26342 16.1362 4.47539 16.1363 4.69645C16.1363 4.91751 16.0486 5.12955 15.8923 5.28591L14.1248 7.05341C13.9686 7.20964 13.7566 7.2974 13.5357 7.2974C13.3147 7.2974 13.1028 7.20964 12.9465 7.05341Z" fill="#ED9B02"/>
</svg>
