<svg width="48" height="48" viewBox="0 0 48 48" fill="none" xmlns="http://www.w3.org/2000/svg">
<circle cx="24" cy="24" r="24" fill="url(#n1k41l234n)"/>
<circle cx="24" cy="24" r="20" fill="url(#j7nl2l3j)"/>
<circle cx="24" cy="24" r="20.5833" stroke="white" stroke-opacity="0.4" stroke-width="1.16667"/>
<circle cx="24" cy="24" r="20.5833" stroke="url(#1kn23lk1j3)" stroke-opacity="0.24" stroke-width="1.16667"/>
<path d="M20.4465 28.7244C20.2311 28.3566 20.2139 27.9053 20.4006 27.5221L21.3735 25.5212C21.4462 25.3713 21.427 25.193 21.324 25.062C21.2211 24.931 21.0524 24.8703 20.8896 24.9055L18.6677 25.3873C18.2589 25.4762 17.8326 25.3593 17.5264 25.0744L15.8671 23.5296C15.7874 23.4543 15.6819 23.4123 15.5723 23.4121C15.5196 23.4123 15.4674 23.4218 15.4181 23.4403C15.2628 23.4958 15.1532 23.6358 15.1368 23.8L14.8842 26.0535C14.838 26.4692 14.5911 26.8359 14.2234 27.0352L12.2281 28.1188C12.0814 28.1981 11.9931 28.3542 12.0004 28.5207C12.0078 28.6871 12.1096 28.8348 12.2626 28.9009L14.3051 29.7832C14.6965 29.9521 14.9777 30.3052 15.0548 30.7244L15.4569 32.9084C15.487 33.0709 15.6065 33.2023 15.7654 33.2478C15.9242 33.2932 16.0951 33.2448 16.2066 33.1228L17.7559 31.4235C18.0346 31.118 18.4438 30.9663 18.8543 31.0163L21.1373 31.2938C21.3014 31.3139 21.4627 31.2391 21.5536 31.101C21.6445 30.9628 21.6491 30.785 21.5655 30.6423L20.4465 28.7244Z" fill="url(#l12jh3l1jslk1j)"/>
<path d="M27.2877 27.3986C27.3497 27.2964 27.3569 27.1702 27.3071 27.0616L26.4522 25.2171C26.2585 24.799 26.3205 24.3071 26.6118 23.9501C26.9031 23.5932 27.3726 23.4338 27.8209 23.5397L28.165 23.621C28.2248 23.3128 28.3731 23.0288 28.5916 22.8035L30.7074 20.6503C30.921 20.428 30.9919 20.1048 30.891 19.8135C30.8125 19.5496 30.5897 19.3541 30.3179 19.3106L27.345 18.8684C26.8315 18.788 26.3923 18.4561 26.1747 17.984L24.8228 15.1527C24.7135 14.9019 24.4672 14.7386 24.1936 14.7354C23.9183 14.7385 23.6708 14.9036 23.5619 15.1565L22.2231 17.9945C22.0063 18.4668 21.5671 18.7989 21.0536 18.8789L18.0863 19.3333C17.8154 19.3787 17.5944 19.5751 17.5174 19.8387C17.4168 20.1308 17.4888 20.4547 17.7035 20.6768L19.8298 22.8246C20.1788 23.1823 20.3467 23.6791 20.2863 24.1752L20.7117 24.083C21.1895 23.9796 21.6844 24.158 21.9865 24.5424C22.2885 24.9268 22.3447 25.4498 22.1313 25.8897L21.1585 27.8905C21.1472 27.9159 21.1381 27.9423 21.1316 27.9693L23.4971 26.668C23.9457 26.4222 24.4887 26.4222 24.9374 26.668L27.0351 27.8105L27.2877 27.3986Z" fill="url(#j3h4kj2hdk4)"/>
<path d="M35.4743 27.4351L33.6668 26.4114C33.324 26.2166 33.0981 25.8668 33.0616 25.4743L32.8708 23.4107C32.8581 23.275 32.77 23.1578 32.6431 23.108C32.5162 23.0582 32.372 23.084 32.2703 23.1749L30.7285 24.56C30.4351 24.8232 30.0313 24.926 29.6478 24.835L27.6263 24.3575C27.4912 24.3251 27.3495 24.3731 27.2619 24.4809C27.1742 24.5887 27.1561 24.7372 27.2153 24.8629L28.0698 26.707C28.2394 27.0711 28.2156 27.4959 28.0062 27.8386L26.9508 29.5699C26.8778 29.6861 26.8791 29.8341 26.9542 29.9489C27.026 30.0665 27.1592 30.1321 27.2962 30.1174L29.3863 29.9022C29.7738 29.8623 30.1567 30.0125 30.4139 30.3052L31.8002 31.8832C31.8909 31.9862 32.032 32.0289 32.1646 31.9937C32.2972 31.9585 32.3984 31.8513 32.4261 31.7169L32.8303 29.7291C32.9097 29.3353 33.1808 29.0073 33.5526 28.8552L35.4334 28.0854C35.5615 28.0332 35.6485 27.9125 35.6575 27.7745C35.6664 27.6365 35.5958 27.5055 35.4755 27.4372L35.4743 27.4351Z" fill="url(#k2j3h4kj2)"/>
<g style="mix-blend-mode:overlay" opacity="0.6">
<path d="M0 24C0 37.2548 10.7452 48 24 48C37.2548 48 48 37.2548 48 24C48 10.7452 37.2548 0 24 0C10.7452 0 0 10.7452 0 24Z" fill="#144545"/>
</g>
<defs>
<linearGradient id="n1k41l234n" x1="5.95862" y1="5.62759" x2="39.8897" y2="43.6966" gradientUnits="userSpaceOnUse">
<stop stop-color="#F7F7F7"/>
<stop offset="1" stop-color="#ADADAD"/>
</linearGradient>
<linearGradient id="j7nl2l3j" x1="38.8857" y1="38.0298" x2="21.16" y2="4.80256" gradientUnits="userSpaceOnUse">
<stop stop-color="#B8B8B8"/>
<stop offset="1" stop-color="#E9E9E9"/>
</linearGradient>
<linearGradient id="1kn23lk1j3" x1="24" y1="4" x2="24" y2="44" gradientUnits="userSpaceOnUse">
<stop/>
<stop offset="1" stop-opacity="0.2"/>
</linearGradient>
<linearGradient id="l12jh3l1jslk1j" x1="12.039" y1="23.4121" x2="20.8414" y2="33.9222" gradientUnits="userSpaceOnUse">
<stop stop-color="#D2D2D2"/>
<stop offset="1" stop-color="#B1B1B1"/>
</linearGradient>
<linearGradient id="j3h4kj2hdk4" x1="17.5272" y1="14.7354" x2="29.2575" y2="29.3211" gradientUnits="userSpaceOnUse">
<stop stop-color="#D2D2D2"/>
<stop offset="1" stop-color="#B1B1B1"/>
</linearGradient>
<linearGradient id="k2j3h4kj2" x1="18.8752" y1="19.2498" x2="34.5423" y2="33.2557" gradientUnits="userSpaceOnUse">
<stop stop-color="#D2D2D2"/>
<stop offset="1" stop-color="#B1B1B1"/>
</linearGradient>
</defs>
</svg>
