<svg width="84" height="84" viewBox="0 0 84 84" fill="none" xmlns="http://www.w3.org/2000/svg">
<circle cx="42" cy="42" r="42" fill="#F6F6F6"/>
<path d="M69.3735 52.9258C69.3736 54.3532 68.9971 55.7553 68.2822 56.9907C67.5673 58.2261 66.5392 59.2511 65.3016 59.9623L46.2303 70.921C45 71.628 43.6059 72 42.187 72C40.7681 72 39.3739 71.628 38.1437 70.921L19.0723 59.9623C17.8347 59.2512 16.8065 58.2262 16.0915 56.9908C15.3765 55.7554 15 54.3532 15 52.9258V31.0742C15 29.6468 15.3764 28.2447 16.0913 27.0093C16.8063 25.7739 17.8344 24.7488 19.0719 24.0377L38.1433 13.079C39.3735 12.372 40.7676 12 42.1866 12C43.6055 12 44.9996 12.372 46.2299 13.079L65.3012 24.0377C66.5388 24.7488 67.567 25.7738 68.282 27.0092C68.997 28.2446 69.3735 29.6468 69.3735 31.0742V52.9258Z" fill="#1D86CC"/>
<path d="M39.8361 16.1297L21.0083 27.0044C20.2925 27.4177 19.6981 28.0121 19.2849 28.728C18.8718 29.4439 18.6545 30.2559 18.6548 31.0824L18.6666 52.8558C18.6671 53.681 18.8846 54.4916 19.2972 55.2063C19.7099 55.921 20.3032 56.5146 21.0176 56.9277L39.8674 67.8243C40.5829 68.2374 41.3946 68.4549 42.2208 68.4549C43.047 68.4549 43.8588 68.2374 44.5743 67.8243L63.4022 56.9528C64.118 56.5396 64.7123 55.9451 65.1255 55.2292C65.5386 54.5134 65.7559 53.7014 65.7556 52.8748L65.7439 31.1015C65.7433 30.2763 65.5257 29.4658 65.1131 28.7512C64.7004 28.0365 64.1072 27.443 63.3928 27.03L44.5431 16.1329C43.8275 15.7198 43.0158 15.5023 42.1896 15.5023C41.3633 15.5023 40.5516 15.7198 39.8361 16.1329V16.1297Z" fill="white"/>
<path d="M33.6216 60.4649C33.6507 60.323 33.7141 60.1905 33.8066 60.079C39.4387 50.5223 45.0719 40.9659 50.7059 31.41C50.7842 31.2773 50.8568 31.141 50.9233 31.0221C50.8738 30.9356 50.8175 30.9535 50.7696 30.9535C48.3626 30.962 45.9555 30.9774 43.5468 30.9746C43.4439 30.9728 43.3429 31.0025 43.2574 31.0598C43.1718 31.1171 43.1059 31.1993 43.0684 31.2952C41.2527 34.2979 39.4347 37.2998 37.6144 40.3009C33.7582 46.6631 29.9016 53.0252 26.0446 59.3872C26.0105 59.4436 25.9748 59.4988 25.9444 59.5568C25.8762 59.6883 25.7987 59.709 25.6603 59.6286C25.0618 59.2752 24.4568 58.9332 23.821 58.5676L40.9852 31.0391C40.9483 30.9271 40.8723 30.9551 40.8139 30.9531C39.894 30.9255 38.9738 30.8857 38.0547 30.8776C36.7636 30.8394 35.4768 31.0467 34.2631 31.4887C33.1577 31.898 32.2184 32.6607 31.5907 33.6584C28.4546 38.5498 25.3067 43.4337 22.1468 48.31C22.0973 48.3871 22.0446 48.4626 21.9934 48.5389C21.8125 48.5389 21.8392 48.3895 21.8225 48.2853C21.8065 48.1282 21.8028 47.9702 21.8112 47.8125C21.8112 42.419 21.8299 37.0255 21.7946 31.6324C21.7663 31.1677 21.8779 30.7051 22.1154 30.3046C22.3528 29.9042 22.705 29.5841 23.1263 29.386C27.2737 27.0216 31.3943 24.6084 35.5284 22.2201C37.3734 21.1541 39.2242 20.0983 41.0558 19.01C41.4004 18.7788 41.8058 18.6554 42.2207 18.6554C42.6356 18.6554 43.0412 18.7788 43.3857 19.01C46.7537 20.9865 50.1515 22.9172 53.5369 24.8657C56.0903 26.3359 58.645 27.8036 61.2008 29.2687C61.3838 29.373 61.5619 29.4846 61.7457 29.5873C62.0445 29.7461 62.2917 29.9871 62.4579 30.282C62.6242 30.5768 62.7026 30.913 62.6838 31.2509C62.6887 37.1179 62.6887 42.9848 62.6838 48.8517C62.6958 48.9961 62.68 49.1413 62.6376 49.2798C62.4347 49.4758 62.3613 49.2559 62.2875 49.1516C61.9831 48.7235 61.71 48.2727 61.4272 47.8296C59.1624 44.2845 56.8901 40.7441 54.6102 37.2085C53.8441 36.0135 53.0682 34.8234 52.3103 33.6235C52.1333 33.3435 52.1013 33.3394 51.9244 33.6401C50.7807 35.5754 49.6376 37.5111 48.4952 39.4471C48.4326 39.5548 48.4055 39.6795 48.4181 39.8034C48.4306 39.9273 48.482 40.044 48.565 40.1369C49.5069 41.6567 50.4471 43.1775 51.3855 44.6995L56.1968 52.4822C56.846 53.5339 57.4963 54.5847 58.1477 55.6346C58.2686 55.7754 58.3367 55.9539 58.3401 56.1394C58.2098 56.3983 57.9383 56.4709 57.7123 56.5886C57.3414 56.8564 56.9338 57.0692 56.5019 57.2204C56.269 57.1624 56.1866 56.9522 56.0762 56.7801C54.5867 54.4567 53.1162 52.1214 51.6363 49.7923C50.1143 47.3982 48.5995 44.9953 47.071 42.6036C46.875 42.2969 46.8437 42.2948 46.6595 42.6036C45.3297 44.8407 44.0183 47.0882 42.6853 49.3228C42.6172 49.4276 42.5837 49.5511 42.5896 49.6759C42.5955 49.8007 42.6405 49.9205 42.7182 50.0183C44.5138 52.7857 46.2679 55.5774 48.0444 58.3586C48.5399 59.1336 49.0389 59.9058 49.5254 60.6865C49.6204 60.8382 49.7502 60.9896 49.6642 61.1949C49.1979 61.5578 48.6947 61.8706 48.1629 62.1282C46.5035 63.0937 44.8434 64.0578 43.1825 65.0206C42.9164 65.1923 42.6064 65.2837 42.2897 65.2837C41.973 65.2837 41.6631 65.1923 41.397 65.0206C38.9505 63.6052 36.4995 62.1962 34.0441 60.7936C33.8749 60.7264 33.7284 60.6124 33.6216 60.4649Z" fill="#2D374B"/>
<path d="M62.5653 49.3387C62.569 49.1939 62.5762 49.0494 62.5762 48.905C62.5762 43.0513 62.5782 37.1979 62.582 31.3447C62.6028 30.9898 62.5194 30.6364 62.3422 30.3282C62.1651 30.0199 61.9018 29.77 61.5846 29.6092C55.4379 26.0855 49.2957 22.5538 43.158 19.0141C42.8816 18.8343 42.5593 18.7382 42.2295 18.7373C41.8998 18.7365 41.5769 18.8309 41.2996 19.0092C37.8911 20.9902 34.4782 22.9661 31.0611 24.9368C28.3194 26.5239 25.578 28.1114 22.8366 29.6993C22.5438 29.8512 22.301 30.0844 22.1376 30.3709C21.9741 30.6574 21.8969 30.985 21.9151 31.3143C21.9291 36.931 21.937 42.5477 21.9389 48.1644C21.9389 48.2894 21.8882 48.4286 21.9974 48.5389C21.3482 49.6199 20.6348 50.6587 19.9511 51.7165C19.6086 52.2462 19.2648 52.7749 18.9196 53.3027C18.8644 53.3871 18.8007 53.465 18.6916 53.6156C18.6835 53.4387 18.6749 53.3408 18.6749 53.2435C18.6749 45.8365 18.6763 38.4295 18.679 31.0226C18.6609 30.2005 18.8696 29.3893 19.2822 28.678C19.6948 27.9667 20.2952 27.3828 21.0178 26.9904C23.4013 25.5751 25.8165 24.2125 28.2158 22.8223C30.2402 21.65 32.2577 20.4688 34.2809 19.2945C36.1678 18.1989 38.0355 17.0705 39.9544 16.0345C40.6893 15.6253 41.5207 15.4209 42.3616 15.4427C43.2025 15.4646 44.0221 15.7118 44.7348 16.1587C46.2768 17.0335 47.8122 17.9246 49.3497 18.8084C50.7959 19.6408 52.242 20.4737 53.6879 21.3071C55.0204 22.0743 56.3534 22.8407 57.6867 23.6062C59.0088 24.3656 60.3309 25.1245 61.6531 25.883C62.2342 26.217 62.8148 26.5513 63.3922 26.8914C64.0297 27.252 64.5778 27.7516 64.9958 28.3531C65.4138 28.9545 65.6909 29.6424 65.8067 30.3656C65.834 30.5745 65.8424 30.7854 65.8318 30.9958C65.8318 38.2842 65.8327 45.5729 65.8346 52.8616C65.8384 53.5542 65.689 54.239 65.397 54.867C65.105 55.495 64.6778 56.0507 64.1458 56.4941C63.8423 56.7256 63.5159 56.9256 63.1719 57.091C61.1972 58.2431 59.2196 59.3905 57.2392 60.5332C55.1348 61.7505 53.0295 62.9658 50.9232 64.179C48.8995 65.3514 46.878 66.5282 44.8587 67.7093C44.3559 68.0475 43.79 68.2809 43.1949 68.3954C42.2064 68.5883 41.1821 68.458 40.2734 68.0237C39.2663 67.4837 38.2851 66.8977 37.2922 66.3288C35.9589 65.5638 34.6261 64.7973 33.2941 64.0293C32.9178 63.8129 32.5412 63.5977 32.1644 63.3837C32.026 63.305 31.9315 63.2251 32.0395 63.0445C32.5378 62.2098 33.0283 61.3703 33.5242 60.534C33.5416 60.5036 33.5862 60.4893 33.6183 60.467C34.0803 60.6829 34.5276 60.9289 34.9573 61.2035C37.1331 62.4479 39.3055 63.6983 41.4745 64.9549C41.7251 65.1133 42.0161 65.196 42.3126 65.1928C42.609 65.1896 42.8983 65.1008 43.1454 64.937C45.2055 63.7282 47.2762 62.5369 49.3424 61.3394C49.4446 61.2802 49.5493 61.2262 49.6532 61.1702C49.848 60.9214 50.1083 60.7315 50.4047 60.622C52.2713 59.5524 54.124 58.4617 55.9902 57.3949C56.146 57.3061 56.2864 57.1689 56.4892 57.192L58.3177 56.133C58.4293 55.8993 58.6675 55.8238 58.8671 55.7085C59.787 55.1774 60.6984 54.6316 61.6264 54.1175C61.895 53.9762 62.1169 53.7603 62.2659 53.4959C62.4148 53.2314 62.4842 52.9296 62.4659 52.6267C62.4752 51.6959 62.4659 50.7646 62.4703 49.8333C62.438 49.6624 62.472 49.4856 62.5653 49.3387Z" fill="#96BEDC"/>
<path d="M62.5671 49.3384C62.572 50.494 62.5976 51.6513 62.5716 52.8053C62.5788 53.0757 62.5109 53.3428 62.3756 53.577C62.2404 53.8112 62.0429 54.0033 61.8051 54.1322C60.6414 54.7912 59.4987 55.4875 58.3244 56.1286C57.8573 55.2765 57.318 54.4649 56.8076 53.6371C54.1565 49.3403 51.5026 45.0458 48.8456 40.7538C48.6865 40.4966 48.5407 40.2296 48.363 39.9865C48.3052 39.9168 48.2736 39.829 48.2736 39.7384C48.2736 39.6478 48.3052 39.56 48.363 39.4903C48.9972 38.4296 49.621 37.3628 50.2487 36.2977L51.9911 33.342C52.022 33.2717 52.0763 33.2143 52.1448 33.1797C52.448 33.6467 52.7535 34.1178 53.0586 34.5893C54.8916 37.4433 56.7243 40.2972 58.5565 43.1512C59.7989 45.0875 61.0413 47.024 62.2835 48.9606C62.3517 49.1043 62.4481 49.2328 62.5671 49.3384Z" fill="#28A0F0"/>
<path d="M56.4959 57.1874C55.7391 57.6841 54.9366 58.1065 54.1567 58.5671C52.7425 59.3985 51.3195 60.2145 49.9005 61.0366C49.8193 61.0824 49.7382 61.1255 49.6599 61.1697C49.6419 61.0384 49.5855 60.9154 49.4976 60.8162C48.234 58.8304 46.9703 56.845 45.7065 54.8599C44.668 53.2298 43.6264 51.6013 42.5819 49.9744C42.5112 49.89 42.4702 49.7847 42.4652 49.6748C42.4603 49.5648 42.4916 49.4562 42.5544 49.3658C43.9505 47.0144 45.3409 44.6596 46.7254 42.3013C46.7582 42.2469 46.7846 42.1836 46.8661 42.1661C46.9797 42.1917 47.0073 42.3053 47.0613 42.3901C49.5771 46.3529 52.0929 50.3159 54.6087 54.2793C55.1439 55.1229 55.6767 55.9685 56.2151 56.8105C56.2837 56.953 56.3787 57.0812 56.4951 57.1882L56.4959 57.1874Z" fill="#28A0F0"/>
</svg>
