<svg width="84" height="84" viewBox="0 0 84 84" fill="none"
    xmlns="http://www.w3.org/2000/svg">
    <circle cx="42" cy="42" r="42" fill="#0E122F" />
    <path
        d="M41.2293 15.9199C22.7719 17.4912 20.5608 32.3453 21.7625 39.5884C32.9752 31.558 41.2293 38.1961 41.2293 37.9972C53.5111 47.7182 61.3674 39.5884 61.2183 39.5884C64.152 16.2928 41.3536 15.8702 41.2293 15.9199Z"
        fill="#F2B705" />
    <path
        d="M21.0663 42.895C20.2309 44.6254 21.6878 45.058 22.4337 44.8343C31.4237 37.5945 39.9199 41.6022 43.0442 44.511C53.3867 52.2182 62.8591 44.5359 62.8342 44.511C64.1022 42.5718 61.8895 42.2238 61.5911 42.5718C55.0276 48.5785 46.4917 44.5608 43.0442 41.8011C31.1602 33.2486 21.0911 42.8453 21.0663 42.895Z"
        fill="#53CBC8" />
    <path
        d="M25.5415 47.2707C25.5415 46.5842 24.9849 46.0276 24.2984 46.0276C23.6119 46.0276 23.0553 46.5842 23.0553 47.2707V55.8232C23.0553 56.5097 23.6119 57.0663 24.2984 57.0663C24.9849 57.0663 25.5415 56.5097 25.5415 55.8232V47.2707Z"
        fill="#53CBC8" />
    <path
        d="M29.2708 43.5414H29.1713C28.4848 43.5414 27.9282 44.098 27.9282 44.7845V56.7182C27.9282 57.4048 28.4848 57.9613 29.1713 57.9613H29.2708C29.9573 57.9613 30.5139 57.4048 30.5139 56.7182V44.7845C30.5139 44.098 29.9573 43.5414 29.2708 43.5414Z"
        fill="#53CBC8" />
    <path
        d="M39.2155 45.2818H39.116C38.4295 45.2818 37.8729 45.8383 37.8729 46.5249V55.1271C37.8729 55.8136 38.4295 56.3702 39.116 56.3702H39.2155C39.902 56.3702 40.4586 55.8136 40.4586 55.1271V46.5249C40.4586 45.8383 39.902 45.2818 39.2155 45.2818Z"
        fill="#53CBC8" />
    <path
        d="M44.1879 48.2155H44.0884C43.4019 48.2155 42.8453 48.772 42.8453 49.4586V51.5967C42.8453 52.2832 43.4019 52.8398 44.0884 52.8398H44.1879C44.8744 52.8398 45.431 52.2832 45.431 51.5967V49.4586C45.431 48.772 44.8744 48.2155 44.1879 48.2155Z"
        fill="#53CBC8" />
    <path
        d="M49.1602 50.1547H49.0607C48.3742 50.1547 47.8176 50.7112 47.8176 51.3978V63.5304C47.8176 64.2169 48.3742 64.7735 49.0607 64.7735H49.1602C49.8467 64.7735 50.4033 64.2169 50.4033 63.5304V51.3978C50.4033 50.7112 49.8467 50.1547 49.1602 50.1547Z"
        fill="#53CBC8" />
    <path
        d="M53.9337 50.6022H53.8343C53.1477 50.6022 52.5912 51.1588 52.5912 51.8453V62.0884C52.5912 62.7749 53.1477 63.3315 53.8343 63.3315H53.9337C54.6203 63.3315 55.1768 62.7749 55.1768 62.0884V51.8453C55.1768 51.1588 54.6203 50.6022 53.9337 50.6022Z"
        fill="#53CBC8" />
    <path
        d="M58.906 49.3591H58.8066C58.12 49.3591 57.5635 49.9157 57.5635 50.6022V55.0773C57.5635 55.7639 58.12 56.3204 58.8066 56.3204H58.906C59.5926 56.3204 60.1491 55.7639 60.1491 55.0773V50.6022C60.1491 49.9157 59.5926 49.3591 58.906 49.3591Z"
        fill="#53CBC8" />
    <path
        d="M34.2431 43.0939H34.1436C33.4571 43.0939 32.9005 43.6505 32.9005 44.337V67.7072C32.9005 68.3937 33.4571 68.9503 34.1436 68.9503H34.2431C34.9296 68.9503 35.4861 68.3937 35.4861 67.7072V44.337C35.4861 43.6505 34.9296 43.0939 34.2431 43.0939Z"
        fill="#53CBC8" />
</svg>
