<svg width="84" height="84" viewBox="0 0 84 84" fill="none"
    xmlns="http://www.w3.org/2000/svg">
    <circle cx="42" cy="42" r="42" fill="#1B2143" />
    <path fill-rule="evenodd" clip-rule="evenodd"
        d="M62.7773 36.84C63.2757 36.84 63.6941 36.4588 63.7106 35.9608C63.7169 35.7746 63.72 35.5877 63.72 35.4C63.72 26.2542 56.3059 18.84 47.16 18.84C38.0142 18.84 30.6 26.2542 30.6 35.4C30.6 35.5877 30.6031 35.7746 30.6093 35.9608C30.6259 36.4588 31.0443 36.84 31.5426 36.84H62.7773Z"
        fill="#53CBC8" />
    <path
        d="M23.8801 41.88C24.5428 41.88 25.0801 41.3427 25.0801 40.68C25.0801 40.0173 24.5428 39.48 23.8801 39.48C23.2173 39.48 22.6801 40.0173 22.6801 40.68C22.6801 41.3427 23.2173 41.88 23.8801 41.88Z"
        fill="#E1137B" />
    <path
        d="M16.2 46.68C16.8627 46.68 17.4 46.1427 17.4 45.48C17.4 44.8173 16.8627 44.28 16.2 44.28C15.5373 44.28 15 44.8173 15 45.48C15 46.1427 15.5373 46.68 16.2 46.68Z"
        fill="#E1137B" />
    <path
        d="M18.12 55.56C18.6502 55.56 19.08 55.1302 19.08 54.6C19.08 54.0698 18.6502 53.64 18.12 53.64C17.5898 53.64 17.16 54.0698 17.16 54.6C17.16 55.1302 17.5898 55.56 18.12 55.56Z"
        fill="#E1137B" />
    <path
        d="M41.3999 60.12C41.9301 60.12 42.3599 59.6902 42.3599 59.16C42.3599 58.6298 41.9301 58.2 41.3999 58.2C40.8697 58.2 40.4399 58.6298 40.4399 59.16C40.4399 59.6902 40.8697 60.12 41.3999 60.12Z"
        fill="#E1137B" />
    <path
        d="M30.6 64.92C31.1302 64.92 31.56 64.4902 31.56 63.96C31.56 63.4298 31.1302 63 30.6 63C30.0698 63 29.64 63.4298 29.64 63.96C29.64 64.4902 30.0698 64.92 30.6 64.92Z"
        fill="#E1137B" />
    <path
        d="M23.88 51C24.4102 51 24.84 50.5702 24.84 50.04C24.84 49.5098 24.4102 49.08 23.88 49.08C23.3499 49.08 22.92 49.5098 22.92 50.04C22.92 50.5702 23.3499 51 23.88 51Z"
        fill="#E1137B" />
    <path
        d="M66.84 39.48H27.48C26.9498 39.48 26.52 39.9098 26.52 40.44V40.92C26.52 41.4502 26.9498 41.88 27.48 41.88H66.84C67.3702 41.88 67.8 41.4502 67.8 40.92V40.44C67.8 39.9098 67.3702 39.48 66.84 39.48Z"
        fill="#E1137B" />
    <path
        d="M48.36 44.28H19.56C19.0298 44.28 18.6 44.7098 18.6 45.24V45.72C18.6 46.2502 19.0298 46.68 19.56 46.68H48.36C48.8902 46.68 49.32 46.2502 49.32 45.72V45.24C49.32 44.7098 48.8902 44.28 48.36 44.28Z"
        fill="#E1137B" />
    <path
        d="M35.64 53.64H21.48C20.9498 53.64 20.52 54.0698 20.52 54.6C20.52 55.1302 20.9498 55.56 21.48 55.56H35.64C36.1702 55.56 36.6 55.1302 36.6 54.6C36.6 54.0698 36.1702 53.64 35.64 53.64Z"
        fill="#E1137B" />
    <path
        d="M63 58.2H44.76C44.2299 58.2 43.8 58.6298 43.8 59.16C43.8 59.6902 44.2299 60.12 44.76 60.12H63C63.5302 60.12 63.96 59.6902 63.96 59.16C63.96 58.6298 63.5302 58.2 63 58.2Z"
        fill="#E1137B" />
    <path
        d="M51.96 63H33.96C33.4298 63 33 63.4298 33 63.96C33 64.4902 33.4298 64.92 33.96 64.92H51.96C52.4902 64.92 52.92 64.4902 52.92 63.96C52.92 63.4298 52.4902 63 51.96 63Z"
        fill="#E1137B" />
    <path
        d="M67.8 53.64H39.48C38.9498 53.64 38.52 54.0698 38.52 54.6C38.52 55.1302 38.9498 55.56 39.48 55.56H67.8C68.3302 55.56 68.76 55.1302 68.76 54.6C68.76 54.0698 68.3302 53.64 67.8 53.64Z"
        fill="#E1137B" />
    <path
        d="M62.04 49.08H27.48C26.9498 49.08 26.52 49.5098 26.52 50.04C26.52 50.5702 26.9498 51 27.48 51H62.04C62.5702 51 63 50.5702 63 50.04C63 49.5098 62.5702 49.08 62.04 49.08Z"
        fill="#E1137B" />
</svg>
