<svg width="84" height="84" viewBox="0 0 84 84" fill="none" xmlns="http://www.w3.org/2000/svg">
<path d="M42 84C65.196 84 84 65.196 84 42C84 18.804 65.196 0 42 0C18.804 0 0 18.804 0 42C0 65.196 18.804 84 42 84Z" fill="#FF0420"/>
<path d="M29.7583 53.1629C27.2575 53.1629 25.2086 52.5744 23.6114 51.3976C22.0352 50.1997 21.2471 48.4976 21.2471 46.2909C21.2471 45.8285 21.2997 45.261 21.4047 44.5885C21.6781 43.0755 22.0668 41.2576 22.5711 39.1351C24.0001 33.3559 27.6884 30.4663 33.6358 30.4663C35.254 30.4663 36.704 30.7395 37.986 31.2858C39.268 31.8111 40.2766 32.6098 41.0121 33.6816C41.7477 34.7323 42.1156 35.9933 42.1156 37.4643C42.1156 37.9057 42.063 38.4626 41.9578 39.1351C41.6427 41.0054 41.2643 42.8234 40.823 44.5885C40.0875 47.4677 38.8161 49.6218 37.0087 51.0508C35.2014 52.4588 32.7847 53.1629 29.7583 53.1629ZM30.1997 48.6236C31.3767 48.6236 32.3748 48.2768 33.1944 47.5833C34.0351 46.8898 34.634 45.8285 34.9912 44.3995C35.4745 42.424 35.8425 40.7007 36.0946 39.2297C36.1786 38.7883 36.2206 38.3366 36.2206 37.8741C36.2206 35.9617 35.2224 35.0055 33.226 35.0055C32.049 35.0055 31.0403 35.3522 30.1997 36.0457C29.3802 36.7394 28.7917 37.8007 28.4345 39.2297C28.0562 40.6377 27.6778 42.361 27.2997 44.3995C27.2155 44.8197 27.1735 45.261 27.1735 45.7234C27.1735 47.6569 28.1823 48.6236 30.1997 48.6236Z" fill="white"/>
<path d="M43.5629 52.8478C43.3317 52.8478 43.153 52.7742 43.027 52.627C42.9218 52.4588 42.8904 52.2698 42.9324 52.0597L47.2826 31.5696C47.3246 31.3384 47.4402 31.1492 47.6294 31.002C47.8185 30.855 48.0181 30.7815 48.2283 30.7815H56.6135C58.9462 30.7815 60.8165 31.2648 62.2245 32.2315C63.6537 33.1983 64.3682 34.5957 64.3682 36.4241C64.3682 36.9494 64.3052 37.4959 64.179 38.0633C63.6537 40.4801 62.5924 42.2664 60.9953 43.4223C59.4191 44.5781 57.2544 45.156 54.5014 45.156H50.2458L48.7958 52.0597C48.7536 52.2908 48.638 52.4798 48.449 52.627C48.2599 52.7742 48.0601 52.8478 47.8501 52.8478H43.5629ZM54.7221 40.8059C55.6046 40.8059 56.3717 40.5641 57.0232 40.0808C57.6957 39.5974 58.1371 38.9039 58.3472 38.0003C58.4102 37.6429 58.4418 37.3278 58.4418 37.0546C58.4418 36.4451 58.2633 35.9827 57.9059 35.6676C57.5486 35.3312 56.9392 35.1632 56.0776 35.1632H52.2947L51.0969 40.8059H54.7221Z" fill="white"/>
</svg>
