<svg width="84" height="84" viewBox="0 0 84 84" fill="none" xmlns="http://www.w3.org/2000/svg">
<circle cx="42" cy="42" r="42" fill="#DED3FE"/>
<path d="M51.7728 35.0861C51.0783 34.6944 50.1854 34.6944 49.3916 35.0861L43.8355 38.3175L40.0653 40.3739L34.6084 43.6053C33.9138 43.997 33.0209 43.997 32.2272 43.6053L27.9608 41.0593C27.2663 40.6677 26.7702 39.8843 26.7702 39.003V34.1068C26.7702 33.3234 27.1671 32.5401 27.9608 32.0504L32.2272 29.6024C32.9217 29.2107 33.8146 29.2107 34.6084 29.6024L38.8747 32.1484C39.5692 32.5401 40.0653 33.3234 40.0653 34.2047V37.4362L43.8355 35.2819V31.9525C43.8355 31.1691 43.4386 30.3858 42.6449 29.8961L34.7076 25.2938C34.0131 24.9021 33.1201 24.9021 32.3264 25.2938L24.1906 29.9941C23.3969 30.3858 23 31.1691 23 31.9525V41.1573C23 41.9407 23.3969 42.724 24.1906 43.2136L32.2272 47.816C32.9217 48.2077 33.8146 48.2077 34.6084 47.816L40.0653 44.6825L43.8355 42.5282L49.2924 39.3947C49.9869 39.003 50.8799 39.003 51.6736 39.3947L55.9399 41.8427C56.6345 42.2344 57.1306 43.0178 57.1306 43.8991V48.7953C57.1306 49.5786 56.7337 50.362 55.9399 50.8516L51.7728 53.2997C51.0783 53.6914 50.1854 53.6914 49.3916 53.2997L45.1253 50.8516C44.4308 50.4599 43.9347 49.6766 43.9347 48.7953V45.6617L40.1645 47.816V51.0475C40.1645 51.8309 40.5614 52.6142 41.3551 53.1039L49.3916 57.7062C50.0862 58.0979 50.9791 58.0979 51.7728 57.7062L59.8094 53.1039C60.5039 52.7122 61 51.9288 61 51.0475V41.7448C61 40.9614 60.6031 40.178 59.8094 39.6884L51.7728 35.0861Z" fill="#8247E5"/>
</svg>
