<svg
    width="50"
    height="50"
    viewBox="0 0 50 50"
    fill="none"
    xmlns="http://www.w3.org/2000/svg"
>
    <path
        d="M34 14.4H30.4V12.6C30.4 12.4409 30.3368 12.2883 30.2243 12.1757C30.1117 12.0632 29.9591 12 29.8 12C29.6409 12 29.4883 12.0632 29.3757 12.1757C29.2632 12.2883 29.2 12.4409 29.2 12.6V14.4H20.8V12.6C20.8 12.4409 20.7368 12.2883 20.6243 12.1757C20.5117 12.0632 20.3591 12 20.2 12C20.0409 12 19.8883 12.0632 19.7757 12.1757C19.6632 12.2883 19.6 12.4409 19.6 12.6V14.4H16C15.2046 14.401 14.4421 14.7173 13.8797 15.2797C13.3173 15.8421 13.001 16.6046 13 17.4V33C13.001 33.7954 13.3173 34.5579 13.8797 35.1203C14.4421 35.6827 15.2046 35.999 16 36H34C34.7955 35.9994 35.5581 35.6831 36.1206 35.1206C36.6831 34.5581 36.9994 33.7955 37 33V17.4C36.9994 16.6045 36.6831 15.8419 36.1206 15.2794C35.5581 14.7169 34.7955 14.4006 34 14.4ZM35.8 33C35.8 33.9936 34.9936 34.8 34 34.8H16C15.004 34.8 14.2 33.9936 14.2 33V22.8H35.8V33ZM35.8 21.6H14.2V17.4C14.2 16.4064 15.004 15.6 16 15.6H19.6V17.4C19.6 17.5591 19.6632 17.7117 19.7757 17.8243C19.8883 17.9368 20.0409 18 20.2 18C20.3591 18 20.5117 17.9368 20.6243 17.8243C20.7368 17.7117 20.8 17.5591 20.8 17.4V15.6H29.2V17.4C29.2 17.5591 29.2632 17.7117 29.3757 17.8243C29.4883 17.9368 29.6409 18 29.8 18C29.9591 18 30.1117 17.9368 30.2243 17.8243C30.3368 17.7117 30.4 17.5591 30.4 17.4V15.6H34C34.9936 15.6 35.8 16.4064 35.8 17.4V21.6Z"
        fill="currentColor"
    />
</svg>
