<svg width="24" height="12" viewBox="0 0 24 12" fill="none" xmlns="http://www.w3.org/2000/svg">
<path d="M11.9812 11.9959C11.5813 11.9967 11.1938 11.8573 10.886 11.6019L0.618208 3.03486C0.268734 2.74403 0.0489621 2.32612 0.00724133 1.87305C-0.0344795 1.41998 0.105268 0.968874 0.39574 0.618969C0.686212 0.269064 1.10362 0.0490225 1.55613 0.00725029C2.00864 -0.0345219 2.45919 0.105397 2.80866 0.396227L11.9812 8.07226L21.1537 0.670372C21.3287 0.528047 21.5302 0.421762 21.7464 0.357626C21.9626 0.293491 22.1893 0.272769 22.4135 0.296653C22.6377 0.320536 22.855 0.388552 23.0529 0.496795C23.2508 0.605037 23.4254 0.75137 23.5666 0.927382C23.7233 1.10356 23.842 1.31024 23.9153 1.53448C23.9885 1.75871 24.0147 1.99568 23.9922 2.23052C23.9697 2.46537 23.899 2.69303 23.7846 2.89925C23.6701 3.10547 23.5143 3.2858 23.327 3.42895L13.0593 11.7047C12.7426 11.9197 12.363 12.0223 11.9812 11.9959Z" fill="currentColor"/>
</svg>
