<svg width="20" height="20" viewBox="0 0 20 20" fill="none" xmlns="http://www.w3.org/2000/svg">
<path d="M9.99996 4.16665C11.8786 4.16665 13.6803 4.91292 15.0086 6.24131C16.337 7.56969 17.0833 9.37136 17.0833 11.25C17.0833 13.1286 16.337 14.9303 15.0086 16.2587C13.6803 17.587 11.8786 18.3333 9.99996 18.3333C8.12134 18.3333 6.31967 17.587 4.99129 16.2587C3.6629 14.9303 2.91663 13.1286 2.91663 11.25C2.91663 9.37136 3.6629 7.56969 4.99129 6.24131C6.31967 4.91292 8.12134 4.16665 9.99996 4.16665ZM9.99996 5.41665C8.45286 5.41665 6.96913 6.03123 5.87517 7.12519C4.78121 8.21915 4.16663 9.70288 4.16663 11.25C4.16663 12.7971 4.78121 14.2808 5.87517 15.3748C6.96913 16.4687 8.45286 17.0833 9.99996 17.0833C11.5471 17.0833 13.0308 16.4687 14.1248 15.3748C15.2187 14.2808 15.8333 12.7971 15.8333 11.25C15.8333 9.70288 15.2187 8.21915 14.1248 7.12519C13.0308 6.03123 11.5471 5.41665 9.99996 5.41665ZM9.99996 6.66665C10.151 6.66665 10.2969 6.72135 10.4107 6.82062C10.5246 6.91989 10.5986 7.05702 10.6191 7.20665L10.625 7.29165V11.0416C10.6249 11.2 10.5648 11.3524 10.4566 11.4681C10.3485 11.5838 10.2005 11.6542 10.0426 11.665C9.88458 11.6758 9.72838 11.6262 9.60554 11.5263C9.48271 11.4264 9.40238 11.2835 9.38079 11.1266L9.37496 11.0416V7.29165C9.37496 7.12589 9.44081 6.96692 9.55802 6.8497C9.67523 6.73249 9.8342 6.66665 9.99996 6.66665ZM15.9558 4.26165L16.025 4.31165L16.99 5.11498C17.1108 5.2166 17.1887 5.36019 17.208 5.51689C17.2273 5.67359 17.1866 5.83178 17.094 5.95969C17.0015 6.0876 16.8639 6.17574 16.7091 6.2064C16.5542 6.23707 16.3934 6.20798 16.2591 6.12498L16.1908 6.07498L15.225 5.27165C15.1041 5.17002 15.0262 5.02644 15.0069 4.86974C14.9876 4.71304 15.0283 4.55484 15.1209 4.42693C15.2135 4.29902 15.351 4.21088 15.5059 4.18022C15.6607 4.14956 15.8215 4.17865 15.9558 4.26165ZM11.875 2.08331C12.0333 2.08336 12.1857 2.14352 12.3015 2.25162C12.4172 2.35973 12.4875 2.50773 12.4983 2.66571C12.5091 2.8237 12.4595 2.97989 12.3596 3.10273C12.2597 3.22557 12.1168 3.3059 11.96 3.32748L11.875 3.33331H8.12496C7.96661 3.33326 7.81418 3.27311 7.69847 3.165C7.58276 3.0569 7.5124 2.9089 7.50161 2.75091C7.49081 2.59293 7.54039 2.43674 7.64032 2.3139C7.74025 2.19106 7.88308 2.11073 8.03996 2.08915L8.12496 2.08331H11.875Z" fill="currentColor"/>
</svg>
