<svg width="24" height="24" fill="none" xmlns="http://www.w3.org/2000/svg"><path fill="#fff" fillRule="evenodd" clipRule="evenodd" d="M13.44 11.008v.988a2.97 2.97 0 002.96 2.968h3.128v2.72c0 .728-.588 1.32-1.316 1.32H3.316A1.32 1.32 0 012 17.684V5.32C2 4.592 2.592 4 3.316 4h14.9a1.32 1.32 0 011.316 1.32v2.72h-3.128a2.969 2.969 0 00-2.964 2.968zM20.396 19c.232-.388.368-.836.368-1.32h-.004v-2.72h1.236v2.72c0 .728-.588 1.32-1.316 1.32h-.284zm.288-15H20.4c.232.384.368.836.368 1.32v2.72H22V5.32A1.32 1.32 0 0020.684 4zm-6.008 7.992v-.988c0-.952.776-1.728 1.728-1.728H22v4.448h-5.596a1.732 1.732 0 01-1.728-1.732zm3.416-.536a.988.988 0 10-1.977 0 .988.988 0 001.977 0z"/></svg>
