<svg width="20" height="20" viewBox="0 0 20 20" fill="none" xmlns="http://www.w3.org/2000/svg">
<path fill-rule="evenodd" clip-rule="evenodd" d="M14.5833 3.84583V2.5H13.75V3.75H6.24996V2.5H5.41663V3.84583C5.41662 4.94319 5.67293 6.02537 6.16513 7.00615C6.65732 7.98693 7.3718 8.83918 8.25163 9.495C8.51341 9.32958 8.78471 9.17974 9.06413 9.04625C8.2916 8.5415 7.64125 7.87094 7.16038 7.08333H12.8395C12.1707 8.17901 11.1787 9.04036 9.99996 9.54875L9.99329 9.55167C9.94413 9.5725 9.89496 9.59333 9.84538 9.61333C8.65487 10.0897 7.61691 10.8819 6.84333 11.9045C6.06974 12.9271 5.58986 14.1415 5.45538 15.4167H5.41663V17.5H6.24996V16.25H13.75V17.5H14.5833V15.4167H14.5445C14.4427 14.4494 14.1417 13.5136 13.6605 12.6683C13.1793 11.823 12.5284 11.0865 11.7487 10.505C11.4869 10.6704 11.2156 10.8203 10.9362 10.9537C11.7084 11.4586 12.3585 12.1291 12.8391 12.9167H7.15996C7.82887 11.8209 8.8211 10.9596 9.99996 10.4513L10.0066 10.4483C10.0558 10.4275 10.105 10.4067 10.1545 10.3867C11.4618 9.8637 12.5823 8.96109 13.3717 7.79524C14.1611 6.62939 14.5831 5.25379 14.5833 3.84583ZM13.2658 13.75H6.73413C6.51055 14.2823 6.36245 14.8433 6.29413 15.4167H13.7066C13.6382 14.8433 13.4899 14.2823 13.2662 13.75H13.2658ZM6.73413 6.25H13.2662C13.4875 5.72333 13.637 5.16333 13.7066 4.58333H6.29413C6.36245 5.15667 6.51055 5.71765 6.73413 6.25Z" fill="#92929D"/>
</svg>
