<svg width="15" height="17" viewBox="0 0 15 17" fill="none" xmlns="http://www.w3.org/2000/svg">
<path d="M12.1215 4.72899C12.1215 3.68798 12.8813 3.47343 12.9854 3.44931C13.2435 3.40297 13.418 3.16842 13.3952 2.90658C13.3726 2.64411 13.1467 2.44384 12.8832 2.44384H12.7112L13.7256 1.55644C14.0772 1.24826 13.8592 0.666504 13.391 0.666504H6.78951C4.41803 0.666504 2.69084 1.23017 1.65586 2.34164C1.10685 2.93108 0.869263 3.55909 0.767859 4.02818C0.742881 4.14377 0.847681 4.24511 0.962287 4.21588C1.74549 4.01593 2.42868 3.96302 2.50613 3.96857C2.75971 3.98254 2.98093 4.19487 2.98093 4.47575C2.98182 5.24991 4.4652 5.91885 5.38678 6.1965C5.42496 6.20799 5.46577 6.20456 5.50173 6.18736C5.58762 6.14629 5.68397 6.12369 5.78601 6.12566C6.11644 6.13197 6.39218 6.39927 6.40786 6.72938C6.42515 7.09399 6.13465 7.39506 5.77382 7.39506C5.75751 7.39506 5.74139 7.39442 5.72539 7.39318C5.67562 7.38931 5.6271 7.40909 5.59425 7.44666C5.29328 7.79077 4.76712 8.3863 3.85808 9.41805C3.38569 9.95423 3.00226 10.5647 2.73915 11.2291C2.20531 12.5771 1.28881 13.8712 0.352661 14.7649C-0.0183582 15.1049 0.281885 15.7231 0.779221 15.64L3.31351 15.2175L3.49379 16.4804C3.54711 16.8527 3.97018 17.0364 4.27835 16.8311L6.21692 15.5387L7.44614 16.7676C7.63371 16.9555 7.93395 16.9669 8.13549 16.7943L9.52181 15.606L10.4619 16.7337C10.6834 16.9996 11.0998 16.9701 11.2826 16.6778L12.3402 14.9855L14.246 15.6209C14.5761 15.7304 14.9144 15.4841 14.9144 15.1391C14.9145 11.7599 12.1215 6.09373 12.1215 4.72899ZM5.51998 5.2368C5.10009 5.2368 4.75827 4.89498 4.75827 4.47508C4.75827 4.05519 5.10009 3.71337 5.51998 3.71337C5.93988 3.71337 6.2817 4.05519 6.2817 4.47508C6.2817 4.89498 5.93988 5.2368 5.51998 5.2368Z" fill="#ED9B02"/>
</svg>
