<svg width="20" height="20" viewBox="0 0 20 20" fill="none" xmlns="http://www.w3.org/2000/svg">
<path d="M7.03879 13.9372C6.85926 13.6306 6.84488 13.2546 7.00054 12.9352L7.81121 11.2678C7.87181 11.1429 7.85583 10.9943 7.77003 10.8852C7.68424 10.776 7.54366 10.7254 7.40797 10.7547L5.55638 11.1562C5.21576 11.2303 4.86049 11.1329 4.60532 10.8955L3.22258 9.60816C3.15616 9.54538 3.06829 9.51037 2.9769 9.51025C2.93303 9.51037 2.88954 9.5183 2.84844 9.53377C2.71896 9.57999 2.62769 9.6967 2.61402 9.83348L2.40347 11.7114C2.36498 12.0578 2.15927 12.3634 1.85284 12.5295L0.190043 13.4325C0.0678693 13.4986 -0.00577856 13.6286 0.000355512 13.7674C0.00648958 13.9061 0.0913507 14.0292 0.218838 14.0842L1.92094 14.8195C2.24707 14.9602 2.48141 15.2545 2.54564 15.6038L2.88079 17.4239C2.90587 17.5592 3.00542 17.6688 3.13783 17.7066C3.27021 17.7445 3.41262 17.7042 3.50549 17.6025L4.79661 16.1864C5.02881 15.9318 5.36985 15.8054 5.71188 15.8471L7.61438 16.0783C7.75116 16.095 7.8856 16.0328 7.96132 15.9176C8.03704 15.8025 8.04091 15.6544 7.97129 15.5354L7.03879 13.9372Z" fill="#ED9B02"/>
<path d="M12.7398 12.8325C12.7914 12.7473 12.7975 12.6422 12.7559 12.5517L12.0435 11.0145C11.8821 10.6662 11.9337 10.2562 12.1765 9.95878C12.4192 9.66134 12.8105 9.5285 13.1841 9.61672L13.4708 9.68447C13.5207 9.4277 13.6442 9.19101 13.8263 9.00327L15.5895 7.20888C15.7675 7.02365 15.8266 6.7543 15.7425 6.51155C15.6771 6.29166 15.4914 6.12874 15.2649 6.09252L12.7875 5.72401C12.3596 5.657 11.9935 5.38038 11.8123 4.98702L10.6857 2.62759C10.5946 2.4186 10.3893 2.28248 10.1614 2.27979C9.93195 2.28244 9.72565 2.42001 9.63493 2.63072L8.51927 4.99577C8.33857 5.38933 7.9726 5.66611 7.5447 5.73276L5.07193 6.11143C4.84618 6.14925 4.66196 6.31288 4.5978 6.53257C4.51404 6.77602 4.57397 7.04588 4.75291 7.23096L6.52484 9.02082C6.81568 9.31892 6.95559 9.73288 6.90527 10.1463L7.25972 10.0695C7.65793 9.98336 8.07035 10.132 8.32205 10.4523C8.57378 10.7727 8.62062 11.2085 8.44277 11.5751L7.6321 13.2424C7.62264 13.2636 7.6151 13.2856 7.60963 13.3081L9.5809 12.2236C9.95476 12.0189 10.4073 12.0189 10.7811 12.2236L12.5292 13.1757L12.7398 12.8325Z" fill="#ED9B02"/>
<path d="M19.5618 12.8631L18.0556 12.01C17.7699 11.8477 17.5817 11.5561 17.5512 11.2291L17.3923 9.50944C17.3817 9.39629 17.3083 9.29869 17.2025 9.25716C17.0967 9.21563 16.9766 9.2372 16.8918 9.31291L15.607 10.4672C15.3625 10.6865 15.026 10.7721 14.7064 10.6964L13.0219 10.2984C12.9093 10.2714 12.7912 10.3114 12.7181 10.4012C12.6451 10.491 12.63 10.6148 12.6793 10.7195L13.3914 12.2563C13.5328 12.5597 13.5129 12.9137 13.3384 13.1993L12.4589 14.6421C12.3981 14.7389 12.3992 14.8623 12.4617 14.9579C12.5216 15.0559 12.6326 15.1105 12.7467 15.0983L14.4885 14.919C14.8115 14.8857 15.1305 15.0109 15.3448 15.2548L16.5001 16.5698C16.5757 16.6556 16.6933 16.6913 16.8038 16.6619C16.9143 16.6325 16.9986 16.5432 17.0216 16.4312L17.3585 14.7747C17.4246 14.4466 17.6506 14.1732 17.9604 14.0465L19.5278 13.405C19.6345 13.3615 19.707 13.2609 19.7145 13.1459C19.722 13.0309 19.6631 12.9217 19.5629 12.8649L19.5618 12.8631Z" fill="#ED9B02"/>
</svg>
