<svg width="24" height="24" viewBox="0 0 24 24" fill="none" xmlns="http://www.w3.org/2000/svg">
<path d="M20.1741 11.1103C20.5804 11.6417 20.5804 12.3591 20.1741 12.8897C18.8944 14.5603 15.8241 18 12.2395 18C8.65498 18 5.58469 14.5603 4.30497 12.8897C4.1073 12.6353 4 12.3222 4 12C4 11.6778 4.1073 11.3647 4.30497 11.1103C5.58469 9.43971 8.65498 6 12.2395 6C15.8241 6 18.8944 9.43971 20.1741 11.1103V11.1103Z" stroke="#70797B" stroke-linecap="round" stroke-linejoin="round"/>
<path d="M12.2394 14.5714C13.6596 14.5714 14.8108 13.4202 14.8108 12C14.8108 10.5799 13.6596 9.42859 12.2394 9.42859C10.8192 9.42859 9.66797 10.5799 9.66797 12C9.66797 13.4202 10.8192 14.5714 12.2394 14.5714Z" stroke="#70797B" stroke-linecap="round" stroke-linejoin="round"/>
</svg>
