<svg width="81" height="80" viewBox="0 0 81 80" fill="none" xmlns="http://www.w3.org/2000/svg">
<path d="M74.789 0H6.49038C3.34702 0 0.798828 2.55837 0.798828 5.71429V74.2857C0.798828 77.4416 3.34702 80 6.49038 80H74.789C77.9323 80 80.4805 77.4416 80.4805 74.2857V5.71429C80.4805 2.55837 77.9323 0 74.789 0Z" fill="#2C2C30"/>
<g filter="url(#filter0_d_1207_4165)">
<path d="M60.5315 42.3438C58.969 50.1563 53.0784 57.5125 44.8128 59.1563C40.7815 59.9591 36.5997 59.4696 32.8628 57.7575C29.1259 56.0454 26.0244 53.1979 23.9999 49.6206C21.9755 46.0433 21.1313 41.9184 21.5875 37.8334C22.0437 33.7483 23.7771 29.9113 26.5409 26.8688C32.2096 20.625 41.7815 18.9063 49.594 22.0313" stroke="#70797B" stroke-width="3" stroke-linecap="round" stroke-linejoin="round"/>
<path d="M33.9688 39.2188L41.7812 47.0312L60.5312 26.7188" stroke="#70797B" stroke-width="3" stroke-linecap="round" stroke-linejoin="round"/>
</g>
<defs>
<filter id="filter0_d_1207_4165" x="12" y="15" width="58" height="58" filterUnits="userSpaceOnUse" color-interpolation-filters="sRGB">
<feFlood flood-opacity="0" result="BackgroundImageFix"/>
<feColorMatrix in="SourceAlpha" type="matrix" values="0 0 0 0 0 0 0 0 0 0 0 0 0 0 0 0 0 0 127 0" result="hardAlpha"/>
<feOffset dy="4"/>
<feGaussianBlur stdDeviation="2"/>
<feComposite in2="hardAlpha" operator="out"/>
<feColorMatrix type="matrix" values="0 0 0 0 0 0 0 0 0 0 0 0 0 0 0 0 0 0 0.25 0"/>
<feBlend mode="normal" in2="BackgroundImageFix" result="effect1_dropShadow_1207_4165"/>
<feBlend mode="normal" in="SourceGraphic" in2="effect1_dropShadow_1207_4165" result="shape"/>
</filter>
</defs>
</svg>
