<svg width="119" height="84" viewBox="0 0 119 84" fill="none" xmlns="http://www.w3.org/2000/svg">
<path d="M94.789 0H26.4904C23.347 0 20.7988 2.55837 20.7988 5.71429V74.2857C20.7988 77.4416 23.347 80 26.4904 80H94.789C97.9323 80 100.481 77.4416 100.481 74.2857V5.71429C100.481 2.55837 97.9323 0 94.789 0Z" fill="#2C2C30"/>
<g filter="url(#filter0_d_1207_3963)">
<path d="M85.6817 5.71436H8.84577C7.2741 5.71436 6 6.99354 6 8.5715V22.8572C6 24.4352 7.2741 25.7144 8.84577 25.7144H85.6817C87.2534 25.7144 88.5275 24.4352 88.5275 22.8572V8.5715C88.5275 6.99354 87.2534 5.71436 85.6817 5.71436Z" fill="#D3D9F3" fill-opacity="0.2"/>
</g>
<path d="M45.2731 10.2859H30.475C29.532 10.2859 28.7676 10.5417 28.7676 10.8573C28.7676 11.1729 29.532 11.4287 30.475 11.4287H45.2731C46.2161 11.4287 46.9805 11.1729 46.9805 10.8573C46.9805 10.5417 46.2161 10.2859 45.2731 10.2859Z" fill="#1C1C24"/>
<path d="M55.5179 17.7144H30.475C29.532 17.7144 28.7676 17.9702 28.7676 18.2858C28.7676 18.6014 29.532 18.8572 30.475 18.8572H55.5179C56.4609 18.8572 57.2253 18.6014 57.2253 18.2858C57.2253 17.9702 56.4609 17.7144 55.5179 17.7144Z" fill="#1C1C24"/>
<path d="M21.3648 7.42871H10.5509C8.97917 7.42871 7.70508 8.7079 7.70508 10.2859V21.143C7.70508 22.721 8.97917 24.0001 10.5509 24.0001H21.3648C22.9365 24.0001 24.2106 22.721 24.2106 21.143V10.2859C24.2106 8.7079 22.9365 7.42871 21.3648 7.42871Z" fill="#2C2C30"/>
<g filter="url(#filter1_d_1207_3963)">
<path d="M33.3184 30.2856H110.154C110.909 30.2856 111.633 30.5867 112.167 31.1225C112.7 31.6583 113 32.385 113 33.1428V47.4285C113 48.1863 112.7 48.913 112.167 49.4488C111.633 49.9846 110.909 50.2856 110.154 50.2856H33.3184C32.5637 50.2856 31.8399 49.9846 31.3062 49.4488C30.7725 48.913 30.4727 48.1863 30.4727 47.4285V33.1428C30.4727 32.385 30.7725 31.6583 31.3062 31.1225C31.8399 30.5867 32.5637 30.2856 33.3184 30.2856V30.2856Z" fill="#D3D9F3" fill-opacity="0.2"/>
</g>
<path d="M69.7457 34.8572H54.9477C54.0047 34.8572 53.2402 35.113 53.2402 35.4286C53.2402 35.7442 54.0047 36 54.9477 36H69.7457C70.6887 36 71.4532 35.7442 71.4532 35.4286C71.4532 35.113 70.6887 34.8572 69.7457 34.8572Z" fill="#1C1C24"/>
<path d="M79.9905 42.2856H54.9477C54.0047 42.2856 53.2402 42.5415 53.2402 42.8571C53.2402 43.1727 54.0047 43.4285 54.9477 43.4285H79.9905C80.9335 43.4285 81.698 43.1727 81.698 42.8571C81.698 42.5415 80.9335 42.2856 79.9905 42.2856Z" fill="#1C1C24"/>
<path d="M45.8394 32H35.0255C33.4538 32 32.1797 33.2792 32.1797 34.8571V45.7143C32.1797 47.2922 33.4538 48.5714 35.0255 48.5714H45.8394C47.4111 48.5714 48.6852 47.2922 48.6852 45.7143V34.8571C48.6852 33.2792 47.4111 32 45.8394 32Z" fill="#2C2C30"/>
<g filter="url(#filter2_d_1207_3963)">
<path d="M8.84577 54.8569H85.6817C86.4364 54.8569 87.1603 55.158 87.6939 55.6938C88.2276 56.2296 88.5275 56.9563 88.5275 57.7141V71.9998C88.5275 72.7576 88.2276 73.4843 87.6939 74.0201C87.1603 74.5559 86.4364 74.8569 85.6817 74.8569H8.84577C8.09103 74.8569 7.36719 74.5559 6.83351 74.0201C6.29982 73.4843 6 72.7576 6 71.9998V57.7141C6 56.9563 6.29982 56.2296 6.83351 55.6938C7.36719 55.158 8.09103 54.8569 8.84577 54.8569V54.8569Z" fill="#D3D9F3" fill-opacity="0.2"/>
</g>
<path d="M45.2731 59.4285H30.475C29.532 59.4285 28.7676 59.6843 28.7676 59.9999C28.7676 60.3155 29.532 60.5713 30.475 60.5713H45.2731C46.2161 60.5713 46.9805 60.3155 46.9805 59.9999C46.9805 59.6843 46.2161 59.4285 45.2731 59.4285Z" fill="#1C1C24"/>
<path d="M55.5179 66.8569H30.475C29.532 66.8569 28.7676 67.1128 28.7676 67.4284C28.7676 67.744 29.532 67.9998 30.475 67.9998H55.5179C56.4609 67.9998 57.2253 67.744 57.2253 67.4284C57.2253 67.1128 56.4609 66.8569 55.5179 66.8569Z" fill="#1C1C24"/>
<path d="M21.3648 56.5713H10.5509C8.97917 56.5713 7.70508 57.8505 7.70508 59.4284V70.2856C7.70508 71.8635 8.97917 73.1427 10.5509 73.1427H21.3648C22.9365 73.1427 24.2106 71.8635 24.2106 70.2856V59.4284C24.2106 57.8505 22.9365 56.5713 21.3648 56.5713Z" fill="#2C2C30"/>
<defs>
<filter id="filter0_d_1207_3963" x="0" y="2.71436" width="94.5273" height="32" filterUnits="userSpaceOnUse" color-interpolation-filters="sRGB">
<feFlood flood-opacity="0" result="BackgroundImageFix"/>
<feColorMatrix in="SourceAlpha" type="matrix" values="0 0 0 0 0 0 0 0 0 0 0 0 0 0 0 0 0 0 127 0" result="hardAlpha"/>
<feOffset dy="3"/>
<feGaussianBlur stdDeviation="3"/>
<feColorMatrix type="matrix" values="0 0 0 0 0 0 0 0 0 0 0 0 0 0 0 0 0 0 0.161 0"/>
<feBlend mode="normal" in2="BackgroundImageFix" result="effect1_dropShadow_1207_3963"/>
<feBlend mode="normal" in="SourceGraphic" in2="effect1_dropShadow_1207_3963" result="shape"/>
</filter>
<filter id="filter1_d_1207_3963" x="24.4727" y="27.2856" width="94.5273" height="32" filterUnits="userSpaceOnUse" color-interpolation-filters="sRGB">
<feFlood flood-opacity="0" result="BackgroundImageFix"/>
<feColorMatrix in="SourceAlpha" type="matrix" values="0 0 0 0 0 0 0 0 0 0 0 0 0 0 0 0 0 0 127 0" result="hardAlpha"/>
<feOffset dy="3"/>
<feGaussianBlur stdDeviation="3"/>
<feColorMatrix type="matrix" values="0 0 0 0 0 0 0 0 0 0 0 0 0 0 0 0 0 0 0.161 0"/>
<feBlend mode="normal" in2="BackgroundImageFix" result="effect1_dropShadow_1207_3963"/>
<feBlend mode="normal" in="SourceGraphic" in2="effect1_dropShadow_1207_3963" result="shape"/>
</filter>
<filter id="filter2_d_1207_3963" x="0" y="51.8569" width="94.5273" height="32" filterUnits="userSpaceOnUse" color-interpolation-filters="sRGB">
<feFlood flood-opacity="0" result="BackgroundImageFix"/>
<feColorMatrix in="SourceAlpha" type="matrix" values="0 0 0 0 0 0 0 0 0 0 0 0 0 0 0 0 0 0 127 0" result="hardAlpha"/>
<feOffset dy="3"/>
<feGaussianBlur stdDeviation="3"/>
<feColorMatrix type="matrix" values="0 0 0 0 0 0 0 0 0 0 0 0 0 0 0 0 0 0 0.161 0"/>
<feBlend mode="normal" in2="BackgroundImageFix" result="effect1_dropShadow_1207_3963"/>
<feBlend mode="normal" in="SourceGraphic" in2="effect1_dropShadow_1207_3963" result="shape"/>
</filter>
</defs>
</svg>
