<svg width="19" height="18" viewBox="0 0 19 18" fill="none" xmlns="http://www.w3.org/2000/svg">
<path fill-rule="evenodd" clip-rule="evenodd" d="M10.5009 1.70703H4.92795C2.98588 1.70703 1.76831 3.03468 1.76831 4.91351V9.9833C1.76831 11.8621 2.97945 13.1898 4.92795 13.1898H10.5002C12.4487 13.1898 13.6611 11.8621 13.6611 9.9833V4.91351C13.6611 3.03468 12.4487 1.70703 10.5009 1.70703Z" stroke="#9A9AB0" stroke-linecap="round" stroke-linejoin="round"/>
<path d="M4.83484 8.19151C4.40991 8.19151 4.0647 7.8582 4.0647 7.44854C4.0647 7.03889 4.40991 6.70496 4.83484 6.70496C5.25977 6.70496 5.60498 7.03889 5.60498 7.44854C5.60498 7.8582 5.25977 8.19151 4.83484 8.19151Z" fill="#9A9AB0"/>
<path d="M7.71436 8.19151C7.28943 8.19151 6.94421 7.8582 6.94421 7.44854C6.94421 7.03889 7.28943 6.70496 7.71436 6.70496C8.13928 6.70496 8.4845 7.03889 8.4845 7.44854C8.4845 7.8582 8.13928 8.19151 7.71436 8.19151Z" fill="#9A9AB0"/>
<path d="M10.5938 8.19151C10.1688 8.19151 9.82361 7.8582 9.82361 7.44854C9.82361 7.03889 10.1688 6.70496 10.5938 6.70496C11.0187 6.70496 11.3639 7.03889 11.3639 7.44854C11.3639 7.8582 11.0187 8.19151 10.5938 8.19151Z" fill="#9A9AB0"/>
<path fill-rule="evenodd" clip-rule="evenodd" d="M13.0735 4.81055H7.50058C5.55851 4.81055 4.34094 6.1382 4.34094 8.01703V13.0868C4.34094 14.9656 5.55208 16.2933 7.50058 16.2933H13.0729C15.0214 16.2933 16.2338 14.9656 16.2338 13.0868V8.01703C16.2338 6.1382 15.0214 4.81055 13.0735 4.81055Z" fill="#2C2F33" stroke="#9A9AB0" stroke-linecap="round" stroke-linejoin="round"/>
<path d="M7.40747 11.295C6.98254 11.295 6.63733 10.9617 6.63733 10.5521C6.63733 10.1424 6.98254 9.80847 7.40747 9.80847C7.8324 9.80847 8.17761 10.1424 8.17761 10.5521C8.17761 10.9617 7.8324 11.295 7.40747 11.295Z" fill="#2C2F33"/>
<path d="M10.287 11.295C9.86206 11.295 9.51685 10.9617 9.51685 10.5521C9.51685 10.1424 9.86206 9.80847 10.287 9.80847C10.7119 9.80847 11.0571 10.1424 11.0571 10.5521C11.0571 10.9617 10.7119 11.295 10.287 11.295Z" fill="#2C2F33"/>
<path d="M13.1664 11.295C12.7415 11.295 12.3962 10.9617 12.3962 10.5521C12.3962 10.1424 12.7415 9.80847 13.1664 9.80847C13.5913 9.80847 13.9365 10.1424 13.9365 10.5521C13.9365 10.9617 13.5913 11.295 13.1664 11.295Z" fill="#2C2F33"/>
</svg>
