<svg width="28" height="31" viewBox="0 0 28 31" fill="none" xmlns="http://www.w3.org/2000/svg">
<path d="M0 8C0 3.58172 3.58172 0 8 0H20C24.4183 0 28 3.58172 28 8V20C28 24.4183 24.4183 28 20 28H8C3.58172 28 0 24.4183 0 20V8Z" fill="#0101FF"/>
<path d="M16.7586 14.6364V16.758H18.879V18.8784H21V21H18.879V18.879H16.7586V21H14.6364V18.8784H16.7574V16.758H14.6364V14.6364H16.758H16.7586ZM11.7727 14.6364C12.1947 14.6364 12.5993 14.804 12.8977 15.1023C13.196 15.4007 13.3636 15.8053 13.3636 16.2273V19.4091C13.3636 19.831 13.196 20.2357 12.8977 20.534C12.5993 20.8324 12.1947 21 11.7727 21H8.59091C8.16897 21 7.76432 20.8324 7.46597 20.534C7.16761 20.2357 7 19.831 7 19.4091V16.2273C7 15.8053 7.16761 15.4007 7.46597 15.1023C7.76432 14.804 8.16897 14.6364 8.59091 14.6364H11.7727ZM11.7727 15.9091H8.59091C8.50652 15.9091 8.42559 15.9426 8.36592 16.0023C8.30625 16.062 8.27273 16.1429 8.27273 16.2273V19.4091C8.27273 19.4935 8.30625 19.5744 8.36592 19.6341C8.42559 19.6938 8.50652 19.7273 8.59091 19.7273H11.7727C11.8571 19.7273 11.938 19.6938 11.9977 19.6341C12.0574 19.5744 12.0909 19.4935 12.0909 19.4091V16.2273C12.0909 16.1429 12.0574 16.062 11.9977 16.0023C11.938 15.9426 11.8571 15.9091 11.7727 15.9091ZM11.2955 16.7045V18.9318H9.06818V16.7045H11.2955ZM21 14.6364V16.758H18.879V14.6364H21ZM11.7727 7C12.1947 7 12.5993 7.16761 12.8977 7.46597C13.196 7.76432 13.3636 8.16897 13.3636 8.59091V11.7727C13.3636 12.1947 13.196 12.5993 12.8977 12.8977C12.5993 13.196 12.1947 13.3636 11.7727 13.3636H8.59091C8.16897 13.3636 7.76432 13.196 7.46597 12.8977C7.16761 12.5993 7 12.1947 7 11.7727V8.59091C7 8.16897 7.16761 7.76432 7.46597 7.46597C7.76432 7.16761 8.16897 7 8.59091 7H11.7727ZM19.4091 7C19.831 7 20.2357 7.16761 20.534 7.46597C20.8324 7.76432 21 8.16897 21 8.59091V11.7727C21 12.1947 20.8324 12.5993 20.534 12.8977C20.2357 13.196 19.831 13.3636 19.4091 13.3636H16.2273C15.8053 13.3636 15.4007 13.196 15.1023 12.8977C14.804 12.5993 14.6364 12.1947 14.6364 11.7727V8.59091C14.6364 8.16897 14.804 7.76432 15.1023 7.46597C15.4007 7.16761 15.8053 7 16.2273 7H19.4091ZM11.7727 8.27273H8.59091C8.50652 8.27273 8.42559 8.30625 8.36592 8.36592C8.30625 8.42559 8.27273 8.50652 8.27273 8.59091V11.7727C8.27273 11.8571 8.30625 11.938 8.36592 11.9977C8.42559 12.0574 8.50652 12.0909 8.59091 12.0909H11.7727C11.8571 12.0909 11.938 12.0574 11.9977 11.9977C12.0574 11.938 12.0909 11.8571 12.0909 11.7727V8.59091C12.0909 8.50652 12.0574 8.42559 11.9977 8.36592C11.938 8.30625 11.8571 8.27273 11.7727 8.27273ZM19.4091 8.27273H16.2273C16.1429 8.27273 16.062 8.30625 16.0023 8.36592C15.9426 8.42559 15.9091 8.50652 15.9091 8.59091V11.7727C15.9091 11.8571 15.9426 11.938 16.0023 11.9977C16.062 12.0574 16.1429 12.0909 16.2273 12.0909H19.4091C19.4935 12.0909 19.5744 12.0574 19.6341 11.9977C19.6937 11.938 19.7273 11.8571 19.7273 11.7727V8.59091C19.7273 8.50652 19.6937 8.42559 19.6341 8.36592C19.5744 8.30625 19.4935 8.27273 19.4091 8.27273ZM18.9318 9.06818V11.2955H16.7045V9.06818H18.9318ZM11.2935 9.07009V11.2942H9.07009V9.07009H11.2935Z" fill="white"/>
<path d="M14 31L10.5359 26.5H17.4641L14 31Z" fill="#0101FF"/>
</svg>
