<svg width="40" height="29" viewBox="0 0 40 29" fill="none" xmlns="http://www.w3.org/2000/svg">
<rect width="40" height="29" rx="8" fill="url(#paint0_linear_3164_24597)"/>
<path d="M16.0768 11.4324L16.0768 11.4324C16.1618 11.6819 16.304 12.0192 16.4417 12.3097C16.4982 12.4289 16.5519 12.5357 16.5982 12.6216C16.7703 12.5858 17.0483 12.5201 17.5114 12.4089C17.8962 12.3166 18.2006 12.2389 18.4105 12.1803C18.4254 12.1762 18.4397 12.1722 18.4534 12.1683C18.4539 12.1356 18.454 12.0999 18.4537 12.0613C18.4514 11.831 18.4319 11.5374 18.3957 11.262C18.294 10.4888 18.0631 9.5441 17.7938 8.80117L16.0768 11.4324ZM16.0768 11.4324C15.6798 10.2669 15.5014 9.32048 15.4977 8.44697L15.4966 8.1774M16.0768 11.4324L15.4966 8.1774M15.4966 8.1774L16.3394 7.97207C16.3394 7.97207 16.3394 7.97207 16.3395 7.97206C16.6759 7.89011 16.9871 7.81523 17.2173 7.76065C17.2512 7.75263 17.2832 7.74507 17.3132 7.73799C17.3349 7.77558 17.3587 7.81852 17.3842 7.86669C17.517 8.11764 17.6703 8.4604 17.7938 8.80115L15.4966 8.1774ZM20.5534 9.23161L20.5534 9.2316C21.3494 9.01502 23.0952 8.53981 24.4329 8.17559C25.1016 7.99349 25.7186 7.82565 26.174 7.70193L26.7217 7.55322L26.8786 7.51077L26.8866 7.50861C26.9107 7.59287 26.9372 7.6922 26.9631 7.79706L26.9631 7.79711C26.9863 7.89118 27.0044 7.96595 27.0183 8.02692C26.9617 8.04186 26.8743 8.06314 26.7369 8.09403C26.4024 8.16922 25.8096 8.29401 24.7016 8.52592C23.9938 8.67407 22.4502 8.99842 21.2714 9.24668L21.2714 9.24668C20.6824 9.37075 20.1435 9.4835 19.7497 9.56518C19.6717 9.58136 19.5995 9.5963 19.5338 9.60986C19.5304 9.59658 19.527 9.58319 19.5236 9.56973C19.5195 9.55335 19.5155 9.53704 19.5115 9.52086C19.5168 9.51934 19.5222 9.5178 19.5277 9.51625C19.7933 9.44051 20.1567 9.3395 20.5534 9.23161ZM16.698 12.7899C16.698 12.79 16.6973 12.789 16.6957 12.787C16.6972 12.7888 16.698 12.7898 16.698 12.7899ZM12.7334 15.8704L12.7334 15.8704C12.6784 15.7107 12.6184 15.4815 12.572 15.2593C12.5662 15.2319 12.5609 15.2053 12.5558 15.1796H20H27.5V16.2931V17.4913C26.4756 17.6883 25.5406 18.1105 24.8484 18.6535C24.1632 19.1911 23.6362 19.9151 23.6362 20.7169C23.6362 21.24 23.8001 21.6052 24.167 22.1458L24.167 22.1459C24.249 22.2667 24.3247 22.3869 24.3908 22.5H20.8651C19.7022 22.5 18.6439 22.4985 17.8709 22.496C18.1044 22.1663 18.2381 21.798 18.2361 21.406C18.2334 20.868 17.9755 20.3779 17.5552 19.9735C17.1652 19.5983 16.6849 19.3421 15.9231 19.0472L15.923 19.0472C15.033 18.7028 14.5993 18.4278 13.9976 17.8399L13.9976 17.8399C13.392 17.2483 12.9922 16.6221 12.7334 15.8704Z" stroke="white" stroke-linejoin="round"/>
<defs>
<linearGradient id="paint0_linear_3164_24597" x1="1.34155e-07" y1="3.32787" x2="42.6521" y2="12.8835" gradientUnits="userSpaceOnUse">
<stop stop-color="#F30059"/>
<stop offset="1" stop-color="#6E1DF5"/>
</linearGradient>
</defs>
</svg>
