<svg width="3" height="13" viewBox="0 0 3 13" fill="none" xmlns="http://www.w3.org/2000/svg">
<path d="M2.19531 8.51562H0.8125L0.4375 0.578125H2.57031L2.19531 8.51562ZM0.34375 11.0312C0.34375 10.6042 0.453125 10.3047 0.671875 10.1328C0.895833 9.95573 1.16927 9.86719 1.49219 9.86719C1.8099 9.86719 2.08073 9.95573 2.30469 10.1328C2.52865 10.3047 2.64062 10.6042 2.64062 11.0312C2.64062 11.4479 2.52865 11.75 2.30469 11.9375C2.08073 12.1198 1.8099 12.2109 1.49219 12.2109C1.16927 12.2109 0.895833 12.1198 0.671875 11.9375C0.453125 11.75 0.34375 11.4479 0.34375 11.0312Z" fill="#A10A1D" fill-opacity="0.6"/>
</svg>
