<svg viewBox="0 0 13 12" fill="none" xmlns="http://www.w3.org/2000/svg">
<path d="M6.40002 0C5.21334 0 4.0533 0.351894 3.0666 1.01118C2.07991 1.67047 1.31088 2.60754 0.85675 3.7039C0.402624 4.80025 0.283804 6.00665 0.515315 7.17054C0.746827 8.33443 1.31827 9.40352 2.15739 10.2426C2.9965 11.0818 4.0656 11.6532 5.22948 11.8847C6.39337 12.1162 7.59977 11.9974 8.69612 11.5433C9.79248 11.0891 10.7295 10.3201 11.3888 9.33342C12.0481 8.34672 12.4 7.18669 12.4 6C12.4 5.21207 12.2448 4.43185 11.9433 3.7039C11.6418 2.97594 11.1998 2.31451 10.6427 1.75736C10.0855 1.20021 9.42408 0.758251 8.69612 0.456723C7.96817 0.155195 7.18795 0 6.40002 0ZM6.40002 10.8C5.45067 10.8 4.52264 10.5185 3.73329 9.99105C2.94393 9.46362 2.32871 8.71396 1.9654 7.83688C1.6021 6.95979 1.50705 5.99467 1.69226 5.06357C1.87747 4.13246 2.33462 3.27718 3.00591 2.60589C3.6772 1.93459 4.53248 1.47744 5.46359 1.29223C6.3947 1.10702 7.35982 1.20208 8.2369 1.56538C9.11399 1.92868 9.86364 2.54391 10.3911 3.33326C10.9185 4.12262 11.2 5.05065 11.2 6C11.2 7.27304 10.6943 8.49394 9.79414 9.39411C8.89396 10.2943 7.67306 10.8 6.40002 10.8Z" fill="#92929D"/>
<path d="M6.39999 2.40043C5.84303 2.40043 5.30889 2.62168 4.91506 3.01551C4.52124 3.40933 4.29999 3.94348 4.29999 4.50043C4.29999 4.65956 4.3632 4.81217 4.47572 4.92469C4.58825 5.03722 4.74086 5.10043 4.89999 5.10043C5.05912 5.10043 5.21173 5.03722 5.32425 4.92469C5.43677 4.81217 5.49999 4.65956 5.49999 4.50043C5.49999 4.32243 5.55277 4.14842 5.65166 4.00042C5.75056 3.85241 5.89112 3.73706 6.05557 3.66894C6.22003 3.60082 6.40099 3.583 6.57557 3.61772C6.75015 3.65245 6.91052 3.73817 7.03638 3.86403C7.16225 3.9899 7.24797 4.15027 7.28269 4.32485C7.31742 4.49943 7.2996 4.68039 7.23148 4.84485C7.16336 5.0093 7.048 5.14986 6.9 5.24875C6.752 5.34765 6.57799 5.40043 6.39999 5.40043C6.24086 5.40043 6.08824 5.46364 5.97572 5.57617C5.8632 5.68869 5.79999 5.8413 5.79999 6.00043V7.20043C5.79999 7.35956 5.8632 7.51217 5.97572 7.62469C6.08824 7.73722 6.24086 7.80043 6.39999 7.80043C6.55912 7.80043 6.71173 7.73722 6.82425 7.62469C6.93677 7.51217 6.99999 7.35956 6.99999 7.20043V6.50443C7.48485 6.36283 7.90219 6.05075 8.17508 5.62569C8.44797 5.20064 8.55803 4.69127 8.48496 4.19147C8.41189 3.69167 8.16062 3.23512 7.77746 2.90598C7.39431 2.57685 6.90509 2.3973 6.39999 2.40043Z" fill="#92929D"/>
<path d="M6.39999 9.60039C6.73136 9.60039 6.99999 9.33176 6.99999 9.00039C6.99999 8.66902 6.73136 8.40039 6.39999 8.40039C6.06862 8.40039 5.79999 8.66902 5.79999 9.00039C5.79999 9.33176 6.06862 9.60039 6.39999 9.60039Z" fill="#92929D"/>
</svg>
