<svg width="20" height="14" viewBox="0 0 20 14" fill="none" xmlns="http://www.w3.org/2000/svg">
<path d="M9.99998 10.3203C12.7186 10.3203 15.249 8.76793 16.4844 6.35406V3.09375C16.4844 2.93832 16.5461 2.7893 16.656 2.67945L19.1713 0.164062H0.828613L3.344 2.67945C3.45389 2.7893 3.51561 2.93832 3.51561 3.09375V6.35406C4.751 8.76793 7.28139 10.3203 9.99998 10.3203ZM9.99998 9.14844C9.67639 9.14844 9.41404 8.88609 9.41404 8.5625C9.41404 8.23891 9.67639 7.97656 9.99998 7.97656C10.3236 7.97656 10.5859 8.23891 10.5859 8.5625C10.5859 8.88609 10.3236 9.14844 9.99998 9.14844ZM12.3437 8.52043C12.0201 8.52043 11.7578 8.25809 11.7578 7.93449C11.7578 7.6109 12.0201 7.34855 12.3437 7.34855C12.6673 7.34855 12.9297 7.6109 12.9297 7.93449C12.9297 8.25809 12.6673 8.52043 12.3437 8.52043ZM14.6875 3.28906C15.0111 3.28906 15.2734 3.55141 15.2734 3.875C15.2734 4.19859 15.0111 4.46094 14.6875 4.46094C14.3639 4.46094 14.1015 4.19859 14.1015 3.875C14.1015 3.55141 14.3639 3.28906 14.6875 3.28906ZM14.0595 5.63281C14.3831 5.63281 14.6454 5.89516 14.6454 6.21875C14.6454 6.54234 14.3831 6.80469 14.0595 6.80469C13.7359 6.80469 13.4735 6.54234 13.4735 6.21875C13.4735 5.89516 13.7359 5.63281 14.0595 5.63281ZM7.65623 2.50781H12.3437C12.6673 2.50781 12.9297 2.77016 12.9297 3.09375C12.9297 3.41734 12.6673 3.67969 12.3437 3.67969H7.65623C7.33264 3.67969 7.07029 3.41734 7.07029 3.09375C7.07029 2.77016 7.33264 2.50781 7.65623 2.50781ZM7.65623 7.34855C7.97982 7.34855 8.24217 7.6109 8.24217 7.93449C8.24217 8.25809 7.97982 8.52043 7.65623 8.52043C7.33264 8.52043 7.07029 8.25809 7.07029 7.93449C7.07029 7.6109 7.33264 7.34855 7.65623 7.34855ZM6.52643 6.21875C6.52643 6.54234 6.26408 6.80469 5.94049 6.80469C5.61689 6.80469 5.35455 6.54234 5.35455 6.21875C5.35455 5.89516 5.61689 5.63281 5.94049 5.63281C6.26408 5.63281 6.52643 5.89516 6.52643 6.21875ZM5.31248 3.28906C5.63607 3.28906 5.89842 3.55141 5.89842 3.875C5.89842 4.19859 5.63607 4.46094 5.31248 4.46094C4.98889 4.46094 4.72654 4.19859 4.72654 3.875C4.72654 3.55141 4.98889 3.28906 5.31248 3.28906Z" fill="white"/>
<path d="M17.6562 3.33646V6.49236C17.6562 6.5815 17.6359 6.66943 17.5968 6.74955C16.9024 8.17104 15.8258 9.36611 14.4835 10.2057C13.1378 11.0473 11.5874 11.4922 9.99996 11.4922C8.4125 11.4922 6.86215 11.0473 5.51648 10.2056C4.17414 9.36611 3.09754 8.17096 2.4032 6.74951C2.36406 6.66939 2.34375 6.58147 2.34375 6.49232V3.33643L0 0.992676V7.00002C0 7.08084 0.0167187 7.1608 0.0491406 7.2349L0.106172 7.36525C1.82586 11.2961 5.70941 13.836 9.99996 13.836C14.2905 13.836 18.1741 11.2961 19.8938 7.36525L19.9508 7.2349C19.9832 7.16084 20 7.08088 20 7.00002V0.992715L17.6562 3.33646Z" fill="white"/>
</svg>
