<svg width="24" height="24" viewBox="0 0 24 24" fill="none" xmlns="http://www.w3.org/2000/svg">
<path d="M7.89801 9.89844C7.29285 10.655 6.89948 11.5739 6.78564 12.5858H7.95752C8.05777 11.8944 8.32541 11.2623 8.72641 10.7268L7.89801 9.89844Z" fill="white"/>
<path d="M6.78564 13.7578C6.89948 14.7698 7.29285 15.6887 7.89801 16.4452L8.72641 15.6168C8.32541 15.0814 8.05777 14.4492 7.95752 13.7578H6.78564Z" fill="white"/>
<path d="M14.9297 13.1719C14.9297 11.5566 13.6153 10.2422 12 10.2422C10.3847 10.2422 9.07031 11.5566 9.07031 13.1719C9.07031 14.7872 10.3847 16.1016 12 16.1016C13.6153 16.1016 14.9297 14.7872 14.9297 13.1719ZM10.2422 13.7578V12.5859H11.4141V11.4141H12.5859V12.5859H13.7578V13.7578H12.5859V14.9297H11.4141V13.7578H10.2422Z" fill="white"/>
<path d="M8.72656 17.2737C9.48309 17.8789 10.402 18.2722 11.4139 18.3861V17.2142C10.7226 17.114 10.0904 16.8463 9.55496 16.4453L8.72656 17.2737Z" fill="white"/>
<path d="M11.4139 9.12952V8.17493L11.3105 7.96802C10.3385 8.09695 9.45746 8.48544 8.72656 9.07001L9.55496 9.89841C10.0904 9.49741 10.7226 9.22977 11.4139 9.12952Z" fill="white"/>
<path d="M14.4449 16.4453C13.9095 16.8463 13.2773 17.114 12.5859 17.2142V18.3861C13.5979 18.2722 14.5168 17.8789 15.2733 17.2737L14.4449 16.4453Z" fill="white"/>
<path d="M12.6894 7.96802L12.5859 8.17493V9.12952C13.2773 9.22977 13.9095 9.49741 14.4449 9.89841L15.2733 9.07001C14.5424 8.48544 13.6614 8.09695 12.6894 7.96802Z" fill="white"/>
<path d="M16.1018 16.4452C16.707 15.6887 17.1004 14.7698 17.2142 13.7578H16.0423C15.9421 14.4492 15.6744 15.0814 15.2734 15.6168L16.1018 16.4452Z" fill="white"/>
<path d="M12 21.9999C16.8465 21.9999 20.7891 18.0183 20.7891 13.1718C20.7891 9.18896 18.0757 5.73331 14.3219 4.70288L13.2483 6.8501C16.2065 7.43344 18.4453 10.045 18.4453 13.1718C18.4453 16.7257 15.5539 19.6171 12 19.6171C8.44608 19.6171 5.55469 16.7257 5.55469 13.1718C5.55469 10.045 7.79346 7.43344 10.7517 6.8501L9.67807 4.70288C5.92426 5.73331 3.21094 9.18896 3.21094 13.1718C3.21094 18.0183 7.1535 21.9999 12 21.9999Z" fill="white"/>
<path d="M17.2142 12.5858C17.1004 11.5739 16.707 10.655 16.1018 9.89844L15.2734 10.7268C15.6744 11.2623 15.9421 11.8944 16.0423 12.5858H17.2142Z" fill="white"/>
<path d="M14.3438 2H9.65625L12 6.72656L14.3438 2Z" fill="white"/>
</svg>
