<svg width="24" height="24" viewBox="0 0 24 24" fill="none" xmlns="http://www.w3.org/2000/svg">
<g clipPath="url(#clip0)">
<path d="M10.7183 9.39746L9.666 8.44238L8.59451 9.39863C8.39569 9.5791 8.26014 9.8041 8.20233 10.0486C8.17889 10.1471 8.17616 10.2127 8.17655 10.24C8.18202 10.26 8.17772 10.2521 8.18084 10.2854C8.20662 10.5764 8.38553 10.8709 8.67811 10.8709C8.87186 10.8709 9.0492 10.7479 9.12967 10.5572C9.22108 10.34 9.43357 10.199 9.66951 10.199C9.90506 10.199 10.1176 10.34 10.2094 10.5572C10.2488 10.6514 10.3703 10.8709 10.6359 10.8709C10.9281 10.8709 11.1074 10.5764 11.1332 10.2854C11.1363 10.2521 11.132 10.26 11.1375 10.24C11.1379 10.2127 11.1347 10.1475 11.1117 10.0486C11.0539 9.80332 10.9176 9.57793 10.7183 9.39746Z" fill="white"/>
<path d="M14.6831 11.6496V3.21016C14.6831 2.5418 14.1413 2 13.4729 2H5.84053C5.17217 2 4.63037 2.5418 4.63037 3.21016V15.952C4.63037 16.6199 5.17217 17.1617 5.84053 17.1617H11.1448V14.393C11.1448 13.4848 11.7675 12.6727 12.853 12.1648C13.3796 11.9184 14.0069 11.7434 14.6831 11.6496ZM6.11357 5.75781V3.97539C6.11357 3.65195 6.37568 3.38945 6.69951 3.38945C7.02295 3.38945 7.28545 3.65195 7.28545 3.97539V5.75781C7.28545 6.08125 7.02295 6.34375 6.69951 6.34375C6.37568 6.34375 6.11357 6.08125 6.11357 5.75781ZM12.2987 10.407C12.2077 11.3406 11.4956 12.0426 10.6358 12.0426C10.505 12.0426 10.3776 12.027 10.2554 11.9973V12.5672C10.2554 12.891 9.99287 13.1531 9.66943 13.1531C9.34561 13.1531 9.0835 12.891 9.0835 12.5672V11.9914C8.95264 12.025 8.8167 12.0426 8.67803 12.0426C7.81826 12.0426 7.10615 11.3406 7.01514 10.407C7.00186 10.3086 6.98857 10.0895 7.06162 9.7793C7.17451 9.30195 7.43272 8.86953 7.80889 8.52891C7.81006 8.52773 7.81084 8.52656 7.81201 8.52578L9.2792 7.2168C9.50303 7.01719 9.84092 7.01875 10.0632 7.22031L11.5054 8.5293C11.8812 8.86953 12.1394 9.30195 12.2522 9.7793C12.3253 10.0898 12.312 10.3086 12.2987 10.407Z" fill="white"/>
<path d="M18.9401 16.2563C18.1031 16.6478 17.0033 16.8635 15.8433 16.8635C14.6832 16.8635 13.5834 16.6478 12.7465 16.2563C12.5875 16.1819 12.4449 16.1047 12.3169 16.0256V17.5854C12.406 17.8459 12.7131 18.1227 13.1756 18.3509C13.8682 18.6925 14.8405 18.8884 15.8433 18.8884C16.846 18.8884 17.8183 18.6925 18.5108 18.3509C18.9735 18.1227 19.2805 17.8459 19.3696 17.5854V16.0256C19.2416 16.1047 19.099 16.1819 18.9401 16.2563Z" fill="white"/>
<path d="M12.4006 14.3928C12.4006 14.6444 12.7234 14.9517 13.2429 15.1948C13.9177 15.5105 14.8655 15.6916 15.8431 15.6916C16.8207 15.6916 17.7684 15.5105 18.4433 15.1948C18.9628 14.9517 19.2855 14.6444 19.2855 14.3928C19.2855 14.1411 18.9628 13.8338 18.4433 13.5908C17.7684 13.275 16.8207 13.094 15.8431 13.094C14.8655 13.094 13.9177 13.2751 13.2429 13.5908C12.7234 13.8338 12.4006 14.1411 12.4006 14.3928Z" fill="white"/>
<path d="M15.8431 20.0604C14.6493 20.0604 13.5179 19.8266 12.657 19.402C12.537 19.3428 12.4234 19.2804 12.3167 19.2153V20.3503C12.3167 21.2614 13.8954 22.0001 15.843 22.0001C17.7906 22.0001 19.3694 21.2614 19.3694 20.3503V19.2153C19.2625 19.2804 19.1491 19.3428 19.029 19.402C18.1683 19.8266 17.0368 20.0604 15.8431 20.0604Z" fill="white"/>
</g>
<defs>
<clipPath id="clip0">
<rect width="20" height="20" fill="white" transform="translate(2 2)"/>
</clipPath>
</defs>
</svg>
