<svg xmlns="http://www.w3.org/2000/svg" xmlns:xlink="http://www.w3.org/1999/xlink" xmlns:lucid="lucid" width="1480" height="1166.8"><g transform="translate(-40 -240)" lucid:page-tab-id="0_0"><path d="M0 0h2320v1891.13H0z" fill="#fff"/><path d="M700 341v22.12" stroke="#333" fill="none"/><path d="M700.5 341h-1v-.5h1" fill="#333"/><path d="M700 377.88l-4.64-14.26h9.28z" stroke="#333" fill="#333"/><path d="M700 379v-22.12" stroke="#333" fill="none"/><path d="M700.5 379.5h-1v-.5h1" fill="#333"/><path d="M700 342.12l4.64 14.26h-9.28z" stroke="#333" fill="#333"/><path d="M520 531.28V422c0-6.63 5.37-12 12-12h71.12" stroke="#333" fill="none"/><path d="M520.5 531.78h-1v-.5h1" fill="#333"/><path d="M617.88 410l-14.26 4.64v-9.28z" stroke="#333" fill="#333"/><path d="M800.5 515.4h-1v-19.05h1m-9.26-86.43l3 1.24 2.6 2 2 2.6 1.24 3 .42 3.2v43.8h-1v-43.73l-.4-3-1.14-2.77-1.83-2.4-2.4-1.82-2.75-1.14-3-.4H781v-1h7.03M781 410.5h-.5v-1h.5M800 530.16l-4.64-14.26h9.28z" fill="#333"/><path d="M800 531.78l-5.32-16.38h10.64m-9.27 1l3.95 12.15 3.95-12.15" fill="#333"/><path d="M724.58 481.05c0-8.17 6.62-14.8 14.8-14.8h121.25c8.17 0 14.8 6.63 14.8 14.8 0 8.18-6.63 14.8-14.8 14.8H739.38c-8.18 0-14.8-6.62-14.8-14.8z" stroke="#333" fill-opacity="0"/><use xlink:href="#a" transform="matrix(1,0,0,1,736.575,470.2516191905529) translate(0.005000000000002558 14.4)"/><use xlink:href="#b" transform="matrix(1,0,0,1,736.575,470.2516191905529) translate(56.955000000000005 14.4)"/><path d="M793.6 644.8c3.53-2.65 9.27-2.65 12.8 0l67.2 50.4c3.53 2.65 3.53 6.95 0 9.6l-67.2 50.4c-3.53 2.65-9.27 2.65-12.8 0l-67.2-50.4c-3.53-2.65-3.53-6.95 0-9.6z" stroke="#333" fill="#fff"/><use xlink:href="#c" transform="matrix(1,0,0,1,725,645) translate(8.525000000000006 58.6)"/><use xlink:href="#d" transform="matrix(1,0,0,1,725,645) translate(27.525000000000006 58.6)"/><use xlink:href="#e" transform="matrix(1,0,0,1,725,645) translate(81.525 58.6)"/><path d="M910.4 700l.12 1h-32.88v-2h32.88m70.48 2h-15.38l.13-1-.13-1H981" fill="#7ab648"/><path d="M877.67 701h-1.07l.08-1.95 1-.05M996.26 700L982 704.64v-9.28z" fill="#7ab648"/><path d="M999.5 700l-18.5 6v-12m2 9.26l10.03-3.26-10.03-3.26" fill="#7ab648"/><path d="M911.4 700c0-8.17 6.62-14.8 14.8-14.8h23.75c8.17 0 14.8 6.63 14.8 14.8 0 8.17-6.63 14.8-14.8 14.8H926.2c-8.18 0-14.8-6.63-14.8-14.8z" stroke="#7ab648" stroke-width="2" fill-opacity="0"/><use xlink:href="#f" transform="matrix(1,0,0,1,923.3952951480057,689.2) translate(0.005000000000000782 14.4)"/><path d="M801 841h-2v-16.66h2m0-31.6h-2V758.6h2M801 757.6v1h-2v-1.02M800 856.26L795.36 842h9.28z" fill="#c92d39"/><path d="M800 859.5l-6-18.5h12m-9.26 2l3.26 10.03 3.26-10.03" fill="#c92d39"/><path d="M776.52 808.54c0-8.17 6.63-14.8 14.8-14.8h17.35c8.18 0 14.8 6.63 14.8 14.8 0 8.18-6.62 14.8-14.8 14.8h-17.34c-8.18 0-14.8-6.62-14.8-14.8z" stroke="#c92d39" stroke-width="2" fill-opacity="0"/><use xlink:href="#g" transform="matrix(1,0,0,1,788.525,797.7431494890071) translate(0.005000000000000782 14.4)"/><path d="M1080 659v-84.72c0-6.63-5.37-12-12-12H896.88" stroke="#333" fill="none"/><path d="M1080.5 659.5h-1v-.5h1" fill="#333"/><path d="M882.12 562.28l14.26-4.63v9.27z" stroke="#333" fill="#333"/><path d="M800 593.28v32.75" stroke="#333" fill="none"/><path d="M800.5 593.3h-1v-.52h1" fill="#333"/><path d="M800 640.8l-4.64-14.27h9.28z" stroke="#333" fill="#333"/><path d="M620 388c0-4.42 3.58-8 8-8h144c4.42 0 8 3.58 8 8v44c0 4.42-3.58 8-8 8H628c-4.42 0-8-3.58-8-8z" stroke="#333" fill="#fff"/><use xlink:href="#h" transform="matrix(1,0,0,1,632,392) translate(42.525 21.6)"/><path d="M748 260c17.67 0 32 17.9 32 40s-14.33 40-32 40h-96c-17.67 0-32-17.9-32-40s14.33-40 32-40z" stroke="#333" fill="#fff"/><use xlink:href="#i" transform="matrix(1,0,0,1,625,265) translate(2.5749999999999886 38.6)"/><use xlink:href="#j" transform="matrix(1,0,0,1,625,265) translate(54.52499999999999 38.6)"/><path d="M720 540.28c0-4.42 3.58-8 8-8h144c4.42 0 8 3.58 8 8v44c0 4.42-3.58 8-8 8H728c-4.42 0-8-3.58-8-8z" stroke="#333" fill="#fff"/><use xlink:href="#k" transform="matrix(1,0,0,1,732,544.2819569087785) translate(43.025 21.6)"/><path d="M720 868c0-4.42 3.58-8 8-8h144c4.42 0 8 3.58 8 8v44c0 4.42-3.58 8-8 8H728c-4.42 0-8-3.58-8-8z" stroke="#333" fill="#fff"/><use xlink:href="#l" transform="matrix(1,0,0,1,732,872) translate(12.574999999999996 21.6)"/><use xlink:href="#m" transform="matrix(1,0,0,1,732,872) translate(55.525 21.6)"/><path d="M720 1188c0-4.42 3.58-8 8-8h144c4.42 0 8 3.58 8 8v44c0 4.42-3.58 8-8 8H728c-4.42 0-8-3.58-8-8z" stroke="#333" fill="#fff"/><use xlink:href="#a" transform="matrix(1,0,0,1,732,1192) translate(18.574999999999996 21.6)"/><use xlink:href="#n" transform="matrix(1,0,0,1,732,1192) translate(75.525 21.6)"/><path d="M611.74 1109.92l3 1.24 2.6 2 2 2.6 1.24 3 .42 3.2v196l.4 3.02 1.13 2.76 1.84 2.4 2.4 1.82 2.74 1.14 3.03.4h14.7l-.07.5.07.5h-14.77l-3.2-.42-3-1.24-2.6-2-2-2.6-1.24-3-.42-3.2v-196l-.4-3.02-1.14-2.76-1.84-2.4-2.38-1.82-2.76-1.14-3.02-.4h-11.58v-1h11.65m191.97 139.97l.4 3 1.14 2.77 1.83 2.4 2.4 1.82 2.75 1.14 3 .4h116l3.22.42 3 1.24 2.6 2 2 2.6 1.24 3 .42 3.2v44.57l-.42 3.2-1.24 3-2 2.6-2.6 2-3 1.25-3.2.42h-1.3l.08-.5-.07-.5h1.22l3-.4 2.77-1.14 2.4-1.83 1.82-2.4 1.14-2.75.4-3v-44.45l-.4-3-1.14-2.77-1.83-2.4-2.4-1.82-2.75-1.14-3-.4h-116l-3.22-.42-3-1.24-2.6-2-2-2.6-1.24-3-.42-3.2V1241h1M800.5 1241h-1v-.5h1M596.38 1114.64L582.1 1110l14.28-4.64z" fill="#333"/><path d="M596.88 1115.32L580.5 1110l16.38-5.32m-13.15 5.32l12.15 3.95v-7.9" fill="#333"/><path d="M647.66 1330c0-8.17 6.63-14.8 14.8-14.8H911.5c8.2 0 14.8 6.63 14.8 14.8 0 8.17-6.6 14.8-14.8 14.8H662.47c-8.17 0-14.8-6.63-14.8-14.8z" stroke="#333" fill-opacity="0"/><use xlink:href="#o" transform="matrix(1,0,0,1,659.6645469760459,1319.2) translate(0.0049999999999954525 14.4)"/><use xlink:href="#p" transform="matrix(1,0,0,1,659.6645469760459,1319.2) translate(59.955 14.4)"/><use xlink:href="#q" transform="matrix(1,0,0,1,659.6645469760459,1319.2) translate(106.955 14.4)"/><use xlink:href="#r" transform="matrix(1,0,0,1,659.6645469760459,1319.2) translate(212.805 14.4)"/><path d="M440 540.28c0-4.42 3.58-8 8-8h144c4.42 0 8 3.58 8 8v44c0 4.42-3.58 8-8 8H448c-4.42 0-8-3.58-8-8z" stroke="#333" fill="#fff"/><use xlink:href="#s" transform="matrix(1,0,0,1,452,544.2819569087785) translate(35.05 21.6)"/><path d="M520.5 879h-1V734.83h1m0-30.6h-1v-95.06h1M520.5 879.5h-1v-.5h1M524.64 608.67h-9.28L520 594.4z" fill="#333"/><path d="M525.32 609.17h-10.64l5.32-16.4m-3.95 15.4h7.9L520 596.02" fill="#333"/><path d="M463.05 719.53c0-8.17 6.63-14.8 14.8-14.8h84.3c8.17 0 14.8 6.63 14.8 14.8 0 8.18-6.63 14.8-14.8 14.8h-84.3c-8.17 0-14.8-6.62-14.8-14.8z" stroke="#333" fill-opacity="0"/><use xlink:href="#t" transform="matrix(1,0,0,1,475.05,708.7333000923851) translate(0.005000000000002558 14.4)"/><use xlink:href="#u" transform="matrix(1,0,0,1,475.05,708.7333000923851) translate(51.955000000000005 14.4)"/><path d="M520.5 1079h-1v-67.85h1m0-30.6h-1v-23.67h1" fill="#333"/><path d="M520.5 1079.52l-.5-.02-.5.02v-.53h1M524.64 956.38h-9.28l4.64-14.26z" fill="#333"/><path d="M525.32 956.88h-10.64L520 940.5m-3.95 15.38h7.9L520 943.74" fill="#333"/><path d="M465.05 995.85c0-8.17 6.63-14.8 14.8-14.8h80.3c8.17 0 14.8 6.63 14.8 14.8 0 8.17-6.63 14.8-14.8 14.8h-80.3c-8.17 0-14.8-6.63-14.8-14.8z" stroke="#333" fill-opacity="0"/><use xlink:href="#v" transform="matrix(1,0,0,1,477.05,985.0493930842093) translate(0.005000000000002558 14.4)"/><use xlink:href="#u" transform="matrix(1,0,0,1,477.05,985.0493930842093) translate(47.955000000000005 14.4)"/><path d="M1128 660c17.67 0 32 17.9 32 40s-14.33 40-32 40h-96c-17.67 0-32-17.9-32-40s14.33-40 32-40z" stroke="#333" fill="#fff"/><use xlink:href="#w" transform="matrix(1,0,0,1,1005,665) translate(54 38.6)"/><path d="M580 1134c0 3.3-26.86 6-60 6s-60-2.7-60-6v-48c0-3.3 26.86-6 60-6s60 2.7 60 6z" stroke="#333" fill="#fff"/><path d="M580 1086c0 3.3-26.86 6-60 6s-60-2.7-60-6" stroke="#333" fill="none"/><use xlink:href="#x" transform="matrix(1,0,0,1,465,1097) translate(34 22.6)"/><path d="M792.65 963.15c4.06-1.74 10.64-1.74 14.7 0l125.3 53.7c4.06 1.74 4.06 4.56 0 6.3l-125.3 53.7c-4.06 1.74-10.64 1.74-14.7 0l-125.3-53.7c-4.06-1.74-4.06-4.56 0-6.3z" stroke="#333" fill="#fff"/><use xlink:href="#y" transform="matrix(1,0,0,1,665,965) translate(39.19999999999999 58.6)"/><use xlink:href="#z" transform="matrix(1,0,0,1,665,965) translate(84 58.6)"/><use xlink:href="#A" transform="matrix(1,0,0,1,665,965) translate(182.85 58.6)"/><path d="M800.5 1163.12h-1v-28.66h1m0-30.6h-1v-24.9h1" fill="#7ab648"/><path d="M800.5 1078.97h-1v-.5l1-.02M800 1177.88l-4.64-14.26h9.28z" fill="#7ab648"/><path d="M800 1179.5l-5.32-16.38h10.64m-9.27 1l3.95 12.14 3.95-12.14" fill="#7ab648"/><path d="M672.98 1119.16c0-8.17 6.62-14.8 14.8-14.8h224.45c8.17 0 14.8 6.63 14.8 14.8 0 8.17-6.63 14.8-14.8 14.8H687.76c-8.17 0-14.8-6.63-14.8-14.8z" stroke="#7ab648" fill-opacity="0"/><use xlink:href="#B" transform="matrix(1,0,0,1,684.975,1108.3604596607408) translate(0.0049999999999954525 14.4)"/><path d="M800 921v24.16" stroke="#333" fill="none"/><path d="M800.5 921h-1v-.5h1" fill="#333"/><path d="M800 959.92l-4.64-14.26h9.28z" stroke="#333" fill="#333"/><path d="M1220 998c0-4.42 3.58-8 8-8h144c4.42 0 8 3.58 8 8v44c0 4.42-3.58 8-8 8h-144c-4.42 0-8-3.58-8-8z" stroke="#333" fill="#fff"/><use xlink:href="#C" transform="matrix(1,0,0,1,1232,1002) translate(0.5999999999999943 21.6)"/><use xlink:href="#m" transform="matrix(1,0,0,1,1232,1002) translate(67.5 21.6)"/><path d="M520.5 1377.97l.4 3 1.14 2.77 1.83 2.4 2.4 1.82 2.75 1.14 3 .4H852.2l-.08.5.07.5H531.96l-3.2-.42-3-1.24-2.6-2-2-2.6-1.25-3-.42-3.2v-221.16h1m780 221.15l-.42 3.2-1.24 3-2 2.6-2.6 2-3 1.25-3.2.42H1057.8l.08-.5-.07-.5h230.17l3-.4 2.77-1.14 2.4-1.83 1.82-2.4 1.14-2.75.4-3V1051h1M1300.5 1051h-1v-.5h1M524.64 1156.38h-9.28l4.64-14.26z" fill="#333"/><path d="M525.32 1156.88h-10.64l5.32-16.38m-3.95 15.38h7.9l-3.95-12.14" fill="#333"/><path d="M852.63 1390c0-8.17 6.62-14.8 14.8-14.8h175.15c8.17 0 14.8 6.63 14.8 14.8 0 8.17-6.63 14.8-14.8 14.8H867.43c-8.18 0-14.8-6.63-14.8-14.8z" stroke="#333" fill-opacity="0"/><use xlink:href="#o" transform="matrix(1,0,0,1,864.6251258757547,1379.2) translate(0.0049999999999954525 14.4)"/><use xlink:href="#p" transform="matrix(1,0,0,1,864.6251258757547,1379.2) translate(59.955 14.4)"/><use xlink:href="#D" transform="matrix(1,0,0,1,864.6251258757547,1379.2) translate(106.955 14.4)"/><path d="M1006.77 1020l.06.5H936.4v-1h70.43m196.3 1h-54.57l.07-.5-.07-.5h54.56" fill="#c92d39"/><path d="M936.4 1020.5h-.46l-.1-1h.57M1217.88 1020l-14.26 4.64v-9.28z" fill="#c92d39"/><path d="M1219.5 1020l-16.38 5.32v-10.64m1 9.27l12.14-3.95-12.14-3.95" fill="#c92d39"/><path d="M1007.27 1020c0-8.17 6.63-14.8 14.8-14.8h111.25c8.18 0 14.8 6.63 14.8 14.8 0 8.17-6.62 14.8-14.8 14.8h-111.25c-8.17 0-14.8-6.63-14.8-14.8z" stroke="#c92d39" fill-opacity="0"/><use xlink:href="#C" transform="matrix(1,0,0,1,1019.2722932246911,1009.2) translate(0.005000000000002558 14.4)"/><use xlink:href="#E" transform="matrix(1,0,0,1,1019.2722932246911,1009.2) translate(66.905 14.4)"/><path d="M1160 628c0-4.42 3.58-8 8-8h324c4.42 0 8 3.58 8 8v144c0 4.42-3.58 8-8 8h-324c-4.42 0-8-3.58-8-8z" fill="none"/><path d="M1160 780c5.52 0 10-4.48 10-10v-60c0-5.52 4.48-10 10-10-5.52 0-10-4.48-10-10v-60c0-5.52-4.48-10-10-10" stroke="#333" fill="none"/><g><use xlink:href="#F" transform="matrix(1,0,0,1,1195,625) translate(0.15000000000000568 24.6)"/><use xlink:href="#G" transform="matrix(1,0,0,1,1195,625) translate(100.95000000000002 24.6)"/><use xlink:href="#H" transform="matrix(1,0,0,1,1195,625) translate(118.90000000000002 24.6)"/><use xlink:href="#I" transform="matrix(1,0,0,1,1195,625) translate(162.9 24.6)"/><use xlink:href="#J" transform="matrix(1,0,0,1,1195,625) translate(182.9 24.6)"/><use xlink:href="#K" transform="matrix(1,0,0,1,1195,625) translate(226.9 24.6)"/><use xlink:href="#L" transform="matrix(1,0,0,1,1195,625) translate(264.85 24.6)"/><use xlink:href="#M" transform="matrix(1,0,0,1,1195,625) translate(8.899999999999977 46.2)"/><use xlink:href="#N" transform="matrix(1,0,0,1,1195,625) translate(142.45 46.2)"/><use xlink:href="#G" transform="matrix(1,0,0,1,1195,625) translate(181.35 46.2)"/><use xlink:href="#O" transform="matrix(1,0,0,1,1195,625) translate(199.29999999999998 46.2)"/><use xlink:href="#P" transform="matrix(1,0,0,1,1195,625) translate(253.2 46.2)"/><use xlink:href="#Q" transform="matrix(1,0,0,1,1195,625) translate(29.125 67.80000000000001)"/><use xlink:href="#R" transform="matrix(1,0,0,1,1195,625) translate(70.025 67.80000000000001)"/><use xlink:href="#S" transform="matrix(1,0,0,1,1195,625) translate(100.975 67.80000000000001)"/><use xlink:href="#I" transform="matrix(1,0,0,1,1195,625) translate(150.925 67.80000000000001)"/><use xlink:href="#J" transform="matrix(1,0,0,1,1195,625) translate(170.925 67.80000000000001)"/><use xlink:href="#T" transform="matrix(1,0,0,1,1195,625) translate(214.925 67.80000000000001)"/><use xlink:href="#U" transform="matrix(1,0,0,1,1195,625) translate(15.074999999999989 89.40000000000002)"/><use xlink:href="#V" transform="matrix(1,0,0,1,1195,625) translate(121.975 89.40000000000002)"/><use xlink:href="#W" transform="matrix(1,0,0,1,1195,625) translate(184.975 89.40000000000002)"/><use xlink:href="#X" transform="matrix(1,0,0,1,1195,625) translate(219.975 89.40000000000002)"/><use xlink:href="#Y" transform="matrix(1,0,0,1,1195,625) translate(15.599999999999994 111.00000000000001)"/><use xlink:href="#Z" transform="matrix(1,0,0,1,1195,625) translate(121.45 111.00000000000001)"/><use xlink:href="#aa" transform="matrix(1,0,0,1,1195,625) translate(177.45000000000002 111.00000000000001)"/><use xlink:href="#ab" transform="matrix(1,0,0,1,1195,625) translate(217.45000000000002 111.00000000000001)"/><use xlink:href="#K" transform="matrix(1,0,0,1,1195,625) translate(22.57499999999999 132.6)"/><use xlink:href="#ac" transform="matrix(1,0,0,1,1195,625) translate(60.52499999999999 132.6)"/><use xlink:href="#I" transform="matrix(1,0,0,1,1195,625) translate(122.475 132.6)"/><use xlink:href="#ad" transform="matrix(1,0,0,1,1195,625) translate(142.475 132.6)"/><use xlink:href="#ae" transform="matrix(1,0,0,1,1195,625) translate(202.475 132.6)"/><use xlink:href="#af" transform="matrix(1,0,0,1,1195,625) translate(232.475 132.6)"/></g><path d="M900 1188c0-4.42 3.58-8 8-8h324c4.42 0 8 3.58 8 8v44c0 4.42-3.58 8-8 8H908c-4.42 0-8-3.58-8-8z" fill="none"/><path d="M900 1240c5.52 0 10-4.48 10-10v-10c0-5.52 4.48-10 10-10-5.52 0-10-4.48-10-10v-10c0-5.52-4.48-10-10-10" stroke="#333" fill="none"/><g><use xlink:href="#ag" transform="matrix(1,0,0,1,935,1185) translate(19.650000000000006 14.4)"/><use xlink:href="#ah" transform="matrix(1,0,0,1,935,1185) translate(113.45000000000002 14.4)"/><use xlink:href="#ai" transform="matrix(1,0,0,1,935,1185) translate(131.40000000000003 14.4)"/><use xlink:href="#aj" transform="matrix(1,0,0,1,935,1185) translate(175.4 14.4)"/><use xlink:href="#ak" transform="matrix(1,0,0,1,935,1185) translate(195.4 14.4)"/><use xlink:href="#al" transform="matrix(1,0,0,1,935,1185) translate(255.35 14.4)"/><use xlink:href="#am" transform="matrix(1,0,0,1,935,1185) translate(8.199999999999989 36)"/><use xlink:href="#an" transform="matrix(1,0,0,1,935,1185) translate(52.19999999999999 36)"/><use xlink:href="#ao" transform="matrix(1,0,0,1,935,1185) translate(71.14999999999999 36)"/><use xlink:href="#ap" transform="matrix(1,0,0,1,935,1185) translate(86.14999999999999 36)"/><use xlink:href="#aq" transform="matrix(1,0,0,1,935,1185) translate(178.95 36)"/><use xlink:href="#ar" transform="matrix(1,0,0,1,935,1185) translate(215.89999999999998 36)"/><use xlink:href="#as" transform="matrix(1,0,0,1,935,1185) translate(252.79999999999998 36)"/><use xlink:href="#at" transform="matrix(1,0,0,1,935,1185) translate(51.099999999999994 57.6)"/><use xlink:href="#au" transform="matrix(1,0,0,1,935,1185) translate(104.05 57.6)"/><use xlink:href="#av" transform="matrix(1,0,0,1,935,1185) translate(162 57.6)"/><use xlink:href="#aw" transform="matrix(1,0,0,1,935,1185) translate(220.95000000000002 57.6)"/></g><path d="M440 888c0-4.42 3.58-8 8-8h144c4.42 0 8 3.58 8 8v44c0 4.42-3.58 8-8 8H448c-4.42 0-8-3.58-8-8z" stroke="#333" fill="#fff"/><g><use xlink:href="#a" transform="matrix(1,0,0,1,452,892) translate(18.574999999999996 21.6)"/><use xlink:href="#n" transform="matrix(1,0,0,1,452,892) translate(75.525 21.6)"/></g><path d="M100 883.57c0-4.42 3.58-8 8-8h304c4.42 0 8 3.58 8 8v124c0 4.4-3.58 8-8 8H108c-4.42 0-8-3.6-8-8z" fill="none"/><path d="M420 1015.57c-5.52 0-10-4.48-10-10v-50c0-5.53-4.48-10-10-10 5.52 0 10-4.48 10-10v-50c0-5.53 4.48-10 10-10" stroke="#333" fill="none"/><g><use xlink:href="#ax" transform="matrix(1,0,0,1,105,880.5663860899688) translate(14.150000000000006 47)"/><use xlink:href="#G" transform="matrix(1,0,0,1,105,880.5663860899688) translate(107.95000000000002 47)"/><use xlink:href="#H" transform="matrix(1,0,0,1,105,880.5663860899688) translate(125.90000000000002 47)"/><use xlink:href="#I" transform="matrix(1,0,0,1,105,880.5663860899688) translate(169.9 47)"/><use xlink:href="#ay" transform="matrix(1,0,0,1,105,880.5663860899688) translate(189.9 47)"/><use xlink:href="#L" transform="matrix(1,0,0,1,105,880.5663860899688) translate(230.85 47)"/><use xlink:href="#W" transform="matrix(1,0,0,1,105,880.5663860899688) translate(19.150000000000006 68.60000000000001)"/><use xlink:href="#az" transform="matrix(1,0,0,1,105,880.5663860899688) translate(54.150000000000006 68.60000000000001)"/><use xlink:href="#aA" transform="matrix(1,0,0,1,105,880.5663860899688) translate(124.10000000000001 68.60000000000001)"/><use xlink:href="#aB" transform="matrix(1,0,0,1,105,880.5663860899688) translate(229.9 68.60000000000001)"/><use xlink:href="#aC" transform="matrix(1,0,0,1,105,880.5663860899688) translate(5.25 90.20000000000002)"/><use xlink:href="#aD" transform="matrix(1,0,0,1,105,880.5663860899688) translate(52.2 90.20000000000002)"/><use xlink:href="#aE" transform="matrix(1,0,0,1,105,880.5663860899688) translate(89.10000000000001 90.20000000000002)"/><use xlink:href="#aF" transform="matrix(1,0,0,1,105,880.5663860899688) translate(112 90.20000000000002)"/><use xlink:href="#aG" transform="matrix(1,0,0,1,105,880.5663860899688) translate(171.9 90.20000000000002)"/></g><path d="M100 540.28c0-4.42 3.58-8 8-8h304c4.42 0 8 3.58 8 8V732c0 4.42-3.58 8-8 8H108c-4.42 0-8-3.58-8-8z" fill="none"/><path d="M420 740c-5.52 0-10-4.48-10-10v-83.86c0-5.52-4.48-10-10-10 5.52 0 10-4.48 10-10v-83.86c0-5.52 4.48-10 10-10" stroke="#333" fill="none"/><g><use xlink:href="#aH" transform="matrix(1,0,0,1,105,537.2819569087785) translate(19.625 81)"/><use xlink:href="#aI" transform="matrix(1,0,0,1,105,537.2819569087785) translate(105.525 81)"/><use xlink:href="#aJ" transform="matrix(1,0,0,1,105,537.2819569087785) translate(139.525 81)"/><use xlink:href="#aK" transform="matrix(1,0,0,1,105,537.2819569087785) translate(183.525 81)"/><use xlink:href="#aL" transform="matrix(1,0,0,1,105,537.2819569087785) translate(3.625 102.6)"/><use xlink:href="#aj" transform="matrix(1,0,0,1,105,537.2819569087785) translate(45.525 102.6)"/><use xlink:href="#aM" transform="matrix(1,0,0,1,105,537.2819569087785) translate(65.525 102.6)"/><use xlink:href="#aN" transform="matrix(1,0,0,1,105,537.2819569087785) translate(115.475 102.6)"/><use xlink:href="#aO" transform="matrix(1,0,0,1,105,537.2819569087785) translate(145.475 102.6)"/><use xlink:href="#aP" transform="matrix(1,0,0,1,105,537.2819569087785) translate(185.475 102.6)"/><use xlink:href="#aQ" transform="matrix(1,0,0,1,105,537.2819569087785) translate(257.375 102.6)"/><use xlink:href="#aR" transform="matrix(1,0,0,1,105,537.2819569087785) translate(60.64999999999999 124.2)"/><use xlink:href="#aS" transform="matrix(1,0,0,1,105,537.2819569087785) translate(147.45 124.2)"/></g><path d="M60 374.14c0-4.42 3.58-8 8-8h424c4.42 0 8 3.58 8 8v71.72c0 4.42-3.58 8-8 8H68c-4.42 0-8-3.58-8-8z" fill="none"/><path d="M500 453.86c-5.52 0-10-4.48-10-10V420c0-5.52-4.48-10-10-10 5.52 0 10-4.48 10-10v-23.86c0-5.52 4.48-10 10-10" stroke="#333" fill="none"/><g><use xlink:href="#aT" transform="matrix(1,0,0,1,65,371.14097845438926) translate(11.375 21)"/><use xlink:href="#aU" transform="matrix(1,0,0,1,65,371.14097845438926) translate(71.225 21)"/><use xlink:href="#aV" transform="matrix(1,0,0,1,65,371.14097845438926) translate(140.125 21)"/><use xlink:href="#aW" transform="matrix(1,0,0,1,65,371.14097845438926) translate(161.075 21)"/><use xlink:href="#an" transform="matrix(1,0,0,1,65,371.14097845438926) translate(232.975 21)"/><use xlink:href="#aX" transform="matrix(1,0,0,1,65,371.14097845438926) translate(251.92499999999998 21)"/><use xlink:href="#aY" transform="matrix(1,0,0,1,65,371.14097845438926) translate(361.725 21)"/><use xlink:href="#aZ" transform="matrix(1,0,0,1,65,371.14097845438926) translate(6.199999999999989 42.6)"/><use xlink:href="#ba" transform="matrix(1,0,0,1,65,371.14097845438926) translate(58.09999999999999 42.6)"/><use xlink:href="#bb" transform="matrix(1,0,0,1,65,371.14097845438926) translate(110.04999999999998 42.6)"/><use xlink:href="#bc" transform="matrix(1,0,0,1,65,371.14097845438926) translate(218 42.6)"/><use xlink:href="#bd" transform="matrix(1,0,0,1,65,371.14097845438926) translate(253 42.6)"/><use xlink:href="#be" transform="matrix(1,0,0,1,65,371.14097845438926) translate(311.95 42.6)"/><use xlink:href="#aN" transform="matrix(1,0,0,1,65,371.14097845438926) translate(49.17499999999998 64.2)"/><use xlink:href="#bf" transform="matrix(1,0,0,1,65,371.14097845438926) translate(79.17499999999998 64.2)"/><use xlink:href="#ar" transform="matrix(1,0,0,1,65,371.14097845438926) translate(156.075 64.2)"/><use xlink:href="#bg" transform="matrix(1,0,0,1,65,371.14097845438926) translate(192.975 64.2)"/><use xlink:href="#bh" transform="matrix(1,0,0,1,65,371.14097845438926) translate(288.875 64.2)"/></g><defs><path fill="#333" d="M233-177c-1 41-23 64-60 70L243 0h-38l-65-103H63V0H30v-248c88 3 205-21 203 71zM63-129c60-2 137 13 137-47 0-61-80-42-137-45v92" id="bi"/><path fill="#333" d="M100-194c63 0 86 42 84 106H49c0 40 14 67 53 68 26 1 43-12 49-29l28 8c-11 28-37 45-77 45C44 4 14-33 15-96c1-61 26-98 85-98zm52 81c6-60-76-77-97-28-3 7-6 17-6 28h103" id="bj"/><path fill="#333" d="M85-194c31 0 48 13 60 33l-1-100h32l1 261h-30c-2-10 0-23-3-31C134-8 116 4 85 4 32 4 16-35 15-94c0-66 23-100 70-100zm9 24c-40 0-46 34-46 75 0 40 6 74 45 74 42 0 51-32 51-76 0-42-9-74-50-73" id="bk"/><path fill="#333" d="M84 4C-5 8 30-112 23-190h32v120c0 31 7 50 39 49 72-2 45-101 50-169h31l1 190h-30c-1-10 1-25-2-33-11 22-28 36-60 37" id="bl"/><path fill="#333" d="M141 0L90-78 38 0H4l68-98-65-92h35l48 74 47-74h35l-64 92 68 98h-35" id="bm"/><g id="a"><use transform="matrix(0.05,0,0,0.05,0,0)" xlink:href="#bi"/><use transform="matrix(0.05,0,0,0.05,12.950000000000001,0)" xlink:href="#bj"/><use transform="matrix(0.05,0,0,0.05,22.950000000000003,0)" xlink:href="#bk"/><use transform="matrix(0.05,0,0,0.05,32.95,0)" xlink:href="#bl"/><use transform="matrix(0.05,0,0,0.05,42.95,0)" xlink:href="#bm"/></g><path fill="#333" d="M30-248c118-7 216 8 213 122C240-48 200 0 122 0H30v-248zM63-27c89 8 146-16 146-99s-60-101-146-95v194" id="bn"/><path fill="#333" d="M24-231v-30h32v30H24zM24 0v-190h32V0H24" id="bo"/><path fill="#333" d="M135-143c-3-34-86-38-87 0 15 53 115 12 119 90S17 21 10-45l28-5c4 36 97 45 98 0-10-56-113-15-118-90-4-57 82-63 122-42 12 7 21 19 24 35" id="bp"/><path fill="#333" d="M115-194c55 1 70 41 70 98S169 2 115 4C84 4 66-9 55-30l1 105H24l-1-265h31l2 30c10-21 28-34 59-34zm-8 174c40 0 45-34 45-75s-6-73-45-74c-42 0-51 32-51 76 0 43 10 73 51 73" id="bq"/><path fill="#333" d="M141-36C126-15 110 5 73 4 37 3 15-17 15-53c-1-64 63-63 125-63 3-35-9-54-41-54-24 1-41 7-42 31l-33-3c5-37 33-52 76-52 45 0 72 20 72 64v82c-1 20 7 32 28 27v20c-31 9-61-2-59-35zM48-53c0 20 12 33 32 33 41-3 63-29 60-74-43 2-92-5-92 41" id="br"/><path fill="#333" d="M59-47c-2 24 18 29 38 22v24C64 9 27 4 27-40v-127H5v-23h24l9-43h21v43h35v23H59v120" id="bs"/><path fill="#333" d="M96-169c-40 0-48 33-48 73s9 75 48 75c24 0 41-14 43-38l32 2c-6 37-31 61-74 61-59 0-76-41-82-99-10-93 101-131 147-64 4 7 5 14 7 22l-32 3c-4-21-16-35-41-35" id="bt"/><path fill="#333" d="M106-169C34-169 62-67 57 0H25v-261h32l-1 103c12-21 28-36 61-36 89 0 53 116 60 194h-32v-121c2-32-8-49-39-48" id="bu"/><g id="b"><use transform="matrix(0.05,0,0,0.05,0,0)" xlink:href="#bn"/><use transform="matrix(0.05,0,0,0.05,12.950000000000001,0)" xlink:href="#bo"/><use transform="matrix(0.05,0,0,0.05,16.900000000000002,0)" xlink:href="#bp"/><use transform="matrix(0.05,0,0,0.05,25.900000000000002,0)" xlink:href="#bq"/><use transform="matrix(0.05,0,0,0.05,35.900000000000006,0)" xlink:href="#br"/><use transform="matrix(0.05,0,0,0.05,45.900000000000006,0)" xlink:href="#bs"/><use transform="matrix(0.05,0,0,0.05,50.900000000000006,0)" xlink:href="#bt"/><use transform="matrix(0.05,0,0,0.05,59.900000000000006,0)" xlink:href="#bu"/></g><path fill="#333" d="M33 0v-248h34V0H33" id="bv"/><g id="c"><use transform="matrix(0.05,0,0,0.05,0,0)" xlink:href="#bv"/><use transform="matrix(0.05,0,0,0.05,5,0)" xlink:href="#bp"/></g><path fill="#333" d="M205 0l-28-72H64L36 0H1l101-248h38L239 0h-34zm-38-99l-47-123c-12 45-31 82-46 123h93" id="bw"/><path fill="#333" d="M179-190L93 31C79 59 56 82 12 73V49c39 6 53-20 64-50L1-190h34L92-34l54-156h33" id="bx"/><path fill="#333" d="M117-194c89-4 53 116 60 194h-32v-121c0-31-8-49-39-48C34-167 62-67 57 0H25l-1-190h30c1 10-1 24 2 32 11-22 29-35 61-36" id="by"/><g id="d"><use transform="matrix(0.05,0,0,0.05,0,0)" xlink:href="#bw"/><use transform="matrix(0.05,0,0,0.05,12,0)" xlink:href="#bp"/><use transform="matrix(0.05,0,0,0.05,21,0)" xlink:href="#bx"/><use transform="matrix(0.05,0,0,0.05,30,0)" xlink:href="#by"/><use transform="matrix(0.05,0,0,0.05,40,0)" xlink:href="#bt"/></g><path fill="#333" d="M100-194c62-1 85 37 85 99 1 63-27 99-86 99S16-35 15-95c0-66 28-99 85-99zM99-20c44 1 53-31 53-75 0-43-8-75-51-75s-53 32-53 75 10 74 51 75" id="bz"/><path fill="#333" d="M103-251c84 0 111 97 45 133-19 10-37 24-39 52H78c0-63 77-55 77-114 0-30-21-42-52-43-32 0-53 17-56 46l-32-2c7-45 34-72 88-72zM77 0v-35h34V0H77" id="bA"/><g id="e"><use transform="matrix(0.05,0,0,0.05,0,0)" xlink:href="#bw"/><use transform="matrix(0.05,0,0,0.05,12,0)" xlink:href="#bt"/><use transform="matrix(0.05,0,0,0.05,21,0)" xlink:href="#bs"/><use transform="matrix(0.05,0,0,0.05,26,0)" xlink:href="#bo"/><use transform="matrix(0.05,0,0,0.05,29.950000000000003,0)" xlink:href="#bz"/><use transform="matrix(0.05,0,0,0.05,39.95,0)" xlink:href="#by"/><use transform="matrix(0.05,0,0,0.05,49.95,0)" xlink:href="#bA"/></g><path fill="#333" d="M137-103V0h-34v-103L8-248h37l75 118 75-118h37" id="bB"/><g id="f"><use transform="matrix(0.05,0,0,0.05,0,0)" xlink:href="#bB"/><use transform="matrix(0.05,0,0,0.05,10.35,0)" xlink:href="#bj"/><use transform="matrix(0.05,0,0,0.05,20.35,0)" xlink:href="#bp"/></g><path fill="#333" d="M190 0L58-211 59 0H30v-248h39L202-35l-2-213h31V0h-41" id="bC"/><g id="g"><use transform="matrix(0.05,0,0,0.05,0,0)" xlink:href="#bC"/><use transform="matrix(0.05,0,0,0.05,12.950000000000001,0)" xlink:href="#bz"/></g><path fill="#333" d="M197 0v-115H63V0H30v-248h33v105h134v-105h34V0h-34" id="bD"/><path fill="#333" d="M143 0L79-87 56-68V0H24v-261h32v163l83-92h37l-77 82L181 0h-38" id="bE"/><g id="h"><use transform="matrix(0.05,0,0,0.05,0,0)" xlink:href="#bD"/><use transform="matrix(0.05,0,0,0.05,12.950000000000001,0)" xlink:href="#bz"/><use transform="matrix(0.05,0,0,0.05,22.950000000000003,0)" xlink:href="#bz"/><use transform="matrix(0.05,0,0,0.05,32.95,0)" xlink:href="#bE"/><use transform="matrix(0.05,0,0,0.05,41.95,0)" xlink:href="#bp"/></g><g id="i"><use transform="matrix(0.05,0,0,0.05,0,0)" xlink:href="#bi"/><use transform="matrix(0.05,0,0,0.05,12.950000000000001,0)" xlink:href="#bj"/><use transform="matrix(0.05,0,0,0.05,22.950000000000003,0)" xlink:href="#br"/><use transform="matrix(0.05,0,0,0.05,32.95,0)" xlink:href="#bt"/><use transform="matrix(0.05,0,0,0.05,41.95,0)" xlink:href="#bs"/></g><path fill="#333" d="M212-179c-10-28-35-45-73-45-59 0-87 40-87 99 0 60 29 101 89 101 43 0 62-24 78-52l27 14C228-24 195 4 139 4 59 4 22-46 18-125c-6-104 99-153 187-111 19 9 31 26 39 46" id="bF"/><path fill="#333" d="M210-169c-67 3-38 105-44 169h-31v-121c0-29-5-50-35-48C34-165 62-65 56 0H25l-1-190h30c1 10-1 24 2 32 10-44 99-50 107 0 11-21 27-35 58-36 85-2 47 119 55 194h-31v-121c0-29-5-49-35-48" id="bG"/><g id="j"><use transform="matrix(0.05,0,0,0.05,0,0)" xlink:href="#bF"/><use transform="matrix(0.05,0,0,0.05,12.950000000000001,0)" xlink:href="#bz"/><use transform="matrix(0.05,0,0,0.05,22.950000000000003,0)" xlink:href="#bG"/><use transform="matrix(0.05,0,0,0.05,37.900000000000006,0)" xlink:href="#bq"/><use transform="matrix(0.05,0,0,0.05,47.900000000000006,0)" xlink:href="#bz"/><use transform="matrix(0.05,0,0,0.05,57.900000000000006,0)" xlink:href="#by"/><use transform="matrix(0.05,0,0,0.05,67.9,0)" xlink:href="#bj"/><use transform="matrix(0.05,0,0,0.05,77.9,0)" xlink:href="#by"/><use transform="matrix(0.05,0,0,0.05,87.9,0)" xlink:href="#bs"/></g><g id="k"><use transform="matrix(0.05,0,0,0.05,0,0)" xlink:href="#bw"/><use transform="matrix(0.05,0,0,0.05,12,0)" xlink:href="#bt"/><use transform="matrix(0.05,0,0,0.05,21,0)" xlink:href="#bs"/><use transform="matrix(0.05,0,0,0.05,26,0)" xlink:href="#bo"/><use transform="matrix(0.05,0,0,0.05,29.950000000000003,0)" xlink:href="#bz"/><use transform="matrix(0.05,0,0,0.05,39.95,0)" xlink:href="#by"/></g><g id="l"><use transform="matrix(0.05,0,0,0.05,0,0)" xlink:href="#bi"/><use transform="matrix(0.05,0,0,0.05,12.950000000000001,0)" xlink:href="#bz"/><use transform="matrix(0.05,0,0,0.05,22.950000000000003,0)" xlink:href="#bz"/><use transform="matrix(0.05,0,0,0.05,32.95,0)" xlink:href="#bs"/></g><path fill="#333" d="M114-163C36-179 61-72 57 0H25l-1-190h30c1 12-1 29 2 39 6-27 23-49 58-41v29" id="bH"/><g id="m"><use transform="matrix(0.05,0,0,0.05,0,0)" xlink:href="#bi"/><use transform="matrix(0.05,0,0,0.05,12.950000000000001,0)" xlink:href="#bj"/><use transform="matrix(0.05,0,0,0.05,22.950000000000003,0)" xlink:href="#bk"/><use transform="matrix(0.05,0,0,0.05,32.95,0)" xlink:href="#bl"/><use transform="matrix(0.05,0,0,0.05,42.95,0)" xlink:href="#bt"/><use transform="matrix(0.05,0,0,0.05,51.95,0)" xlink:href="#bj"/><use transform="matrix(0.05,0,0,0.05,61.95,0)" xlink:href="#bH"/></g><path fill="#333" d="M140-251c81 0 123 46 123 126C263-46 219 4 140 4 59 4 17-45 17-125s42-126 123-126zm0 227c63 0 89-41 89-101s-29-99-89-99c-61 0-89 39-89 99S79-25 140-24" id="bI"/><path fill="#333" d="M240 0l2-218c-23 76-54 145-80 218h-23L58-218 59 0H30v-248h44l77 211c21-75 51-140 76-211h43V0h-30" id="bJ"/><g id="n"><use transform="matrix(0.05,0,0,0.05,0,0)" xlink:href="#bI"/><use transform="matrix(0.05,0,0,0.05,14,0)" xlink:href="#bi"/><use transform="matrix(0.05,0,0,0.05,26.950000000000003,0)" xlink:href="#bJ"/></g><g id="o"><use transform="matrix(0.05,0,0,0.05,0,0)" xlink:href="#bJ"/><use transform="matrix(0.05,0,0,0.05,14.950000000000001,0)" xlink:href="#bl"/><use transform="matrix(0.05,0,0,0.05,24.950000000000003,0)" xlink:href="#bs"/><use transform="matrix(0.05,0,0,0.05,29.950000000000003,0)" xlink:href="#br"/><use transform="matrix(0.05,0,0,0.05,39.95,0)" xlink:href="#bs"/><use transform="matrix(0.05,0,0,0.05,44.95,0)" xlink:href="#bj"/></g><path fill="#333" d="M185-189c-5-48-123-54-124 2 14 75 158 14 163 119 3 78-121 87-175 55-17-10-28-26-33-46l33-7c5 56 141 63 141-1 0-78-155-14-162-118-5-82 145-84 179-34 5 7 8 16 11 25" id="bK"/><g id="p"><use transform="matrix(0.05,0,0,0.05,0,0)" xlink:href="#bK"/><use transform="matrix(0.05,0,0,0.05,12,0)" xlink:href="#bs"/><use transform="matrix(0.05,0,0,0.05,17,0)" xlink:href="#br"/><use transform="matrix(0.05,0,0,0.05,27,0)" xlink:href="#bs"/><use transform="matrix(0.05,0,0,0.05,32,0)" xlink:href="#bj"/></g><path fill="#333" d="M87 75C49 33 22-17 22-94c0-76 28-126 65-167h31c-38 41-64 92-64 168S80 34 118 75H87" id="bL"/><path fill="#333" d="M206 0h-36l-40-164L89 0H53L-1-190h32L70-26l43-164h34l41 164 42-164h31" id="bM"/><path fill="#333" d="M115-194c53 0 69 39 70 98 0 66-23 100-70 100C84 3 66-7 56-30L54 0H23l1-261h32v101c10-23 28-34 59-34zm-8 174c40 0 45-34 45-75 0-40-5-75-45-74-42 0-51 32-51 76 0 43 10 73 51 73" id="bN"/><path fill="#333" d="M126-127c33 6 58 20 58 59 0 88-139 92-164 29-3-8-5-16-6-25l32-3c6 27 21 44 54 44 32 0 52-15 52-46 0-38-36-46-79-43v-28c39 1 72-4 72-42 0-27-17-43-46-43-28 0-47 15-49 41l-32-3c6-42 35-63 81-64 48-1 79 21 79 65 0 36-21 52-52 59" id="bO"/><g id="q"><use transform="matrix(0.05,0,0,0.05,0,0)" xlink:href="#bL"/><use transform="matrix(0.05,0,0,0.05,5.95,0)" xlink:href="#bM"/><use transform="matrix(0.05,0,0,0.05,18.900000000000002,0)" xlink:href="#bj"/><use transform="matrix(0.05,0,0,0.05,28.900000000000002,0)" xlink:href="#bN"/><use transform="matrix(0.05,0,0,0.05,38.900000000000006,0)" xlink:href="#bO"/><use transform="matrix(0.05,0,0,0.05,48.900000000000006,0)" xlink:href="#bi"/><use transform="matrix(0.05,0,0,0.05,61.85,0)" xlink:href="#bj"/><use transform="matrix(0.05,0,0,0.05,71.85000000000001,0)" xlink:href="#bk"/><use transform="matrix(0.05,0,0,0.05,81.85000000000001,0)" xlink:href="#bl"/><use transform="matrix(0.05,0,0,0.05,91.85000000000001,0)" xlink:href="#bm"/></g><path fill="#333" d="M24 0v-261h32V0H24" id="bP"/><path fill="#333" d="M33-261c38 41 65 92 65 168S71 34 33 75H2C39 34 66-17 66-93S39-220 2-261h31" id="bQ"/><g id="r"><use transform="matrix(0.05,0,0,0.05,0,0)" xlink:href="#bp"/><use transform="matrix(0.05,0,0,0.05,9,0)" xlink:href="#bP"/><use transform="matrix(0.05,0,0,0.05,12.949999999999998,0)" xlink:href="#bo"/><use transform="matrix(0.05,0,0,0.05,16.9,0)" xlink:href="#bt"/><use transform="matrix(0.05,0,0,0.05,25.899999999999995,0)" xlink:href="#bj"/><use transform="matrix(0.05,0,0,0.05,35.9,0)" xlink:href="#bQ"/></g><g id="s"><use transform="matrix(0.05,0,0,0.05,0,0)" xlink:href="#bK"/><use transform="matrix(0.05,0,0,0.05,12,0)" xlink:href="#bj"/><use transform="matrix(0.05,0,0,0.05,22,0)" xlink:href="#bP"/><use transform="matrix(0.05,0,0,0.05,25.950000000000003,0)" xlink:href="#bj"/><use transform="matrix(0.05,0,0,0.05,35.95,0)" xlink:href="#bt"/><use transform="matrix(0.05,0,0,0.05,44.95,0)" xlink:href="#bs"/><use transform="matrix(0.05,0,0,0.05,49.95,0)" xlink:href="#bz"/><use transform="matrix(0.05,0,0,0.05,59.95,0)" xlink:href="#bH"/></g><path fill="#333" d="M30-248c87 1 191-15 191 75 0 78-77 80-158 76V0H30v-248zm33 125c57 0 124 11 124-50 0-59-68-47-124-48v98" id="bR"/><g id="t"><use transform="matrix(0.05,0,0,0.05,0,0)" xlink:href="#bR"/><use transform="matrix(0.05,0,0,0.05,12,0)" xlink:href="#br"/><use transform="matrix(0.05,0,0,0.05,22,0)" xlink:href="#bH"/><use transform="matrix(0.05,0,0,0.05,27.950000000000003,0)" xlink:href="#bp"/><use transform="matrix(0.05,0,0,0.05,36.95,0)" xlink:href="#bj"/></g><g id="u"><use transform="matrix(0.05,0,0,0.05,0,0)" xlink:href="#bn"/><use transform="matrix(0.05,0,0,0.05,12.950000000000001,0)" xlink:href="#br"/><use transform="matrix(0.05,0,0,0.05,22.950000000000003,0)" xlink:href="#bs"/><use transform="matrix(0.05,0,0,0.05,27.950000000000003,0)" xlink:href="#br"/></g><g id="v"><use transform="matrix(0.05,0,0,0.05,0,0)" xlink:href="#bi"/><use transform="matrix(0.05,0,0,0.05,12.950000000000001,0)" xlink:href="#bj"/><use transform="matrix(0.05,0,0,0.05,22.950000000000003,0)" xlink:href="#br"/><use transform="matrix(0.05,0,0,0.05,32.95,0)" xlink:href="#bk"/></g><path fill="#333" d="M177-190C167-65 218 103 67 71c-23-6-38-20-44-43l32-5c15 47 100 32 89-28v-30C133-14 115 1 83 1 29 1 15-40 15-95c0-56 16-97 71-98 29-1 48 16 59 35 1-10 0-23 2-32h30zM94-22c36 0 50-32 50-73 0-42-14-75-50-75-39 0-46 34-46 75s6 73 46 73" id="bS"/><g id="w"><use transform="matrix(0.05,0,0,0.05,0,0)" xlink:href="#bK"/><use transform="matrix(0.05,0,0,0.05,12,0)" xlink:href="#br"/><use transform="matrix(0.05,0,0,0.05,22,0)" xlink:href="#bS"/><use transform="matrix(0.05,0,0,0.05,32,0)" xlink:href="#br"/></g><g id="x"><use transform="matrix(0.05,0,0,0.05,0,0)" xlink:href="#bK"/><use transform="matrix(0.05,0,0,0.05,12,0)" xlink:href="#bs"/><use transform="matrix(0.05,0,0,0.05,17,0)" xlink:href="#br"/><use transform="matrix(0.05,0,0,0.05,27,0)" xlink:href="#bs"/><use transform="matrix(0.05,0,0,0.05,32,0)" xlink:href="#bj"/></g><path fill="#333" d="M63-220v92h138v28H63V0H30v-248h175v28H63" id="bT"/><g id="y"><use transform="matrix(0.05,0,0,0.05,0,0)" xlink:href="#bT"/><use transform="matrix(0.05,0,0,0.05,10.950000000000001,0)" xlink:href="#bo"/><use transform="matrix(0.05,0,0,0.05,14.9,0)" xlink:href="#bP"/><use transform="matrix(0.05,0,0,0.05,18.85,0)" xlink:href="#bs"/><use transform="matrix(0.05,0,0,0.05,23.85,0)" xlink:href="#bj"/><use transform="matrix(0.05,0,0,0.05,33.85,0)" xlink:href="#bH"/></g><path fill="#333" d="M16-82v-28h88v28H16" id="bU"/><g id="z"><use transform="matrix(0.05,0,0,0.05,0,0)" xlink:href="#bM"/><use transform="matrix(0.05,0,0,0.05,12.950000000000001,0)" xlink:href="#bj"/><use transform="matrix(0.05,0,0,0.05,22.950000000000003,0)" xlink:href="#bN"/><use transform="matrix(0.05,0,0,0.05,32.95,0)" xlink:href="#bO"/><use transform="matrix(0.05,0,0,0.05,42.95,0)" xlink:href="#bU"/><use transform="matrix(0.05,0,0,0.05,48.900000000000006,0)" xlink:href="#bH"/><use transform="matrix(0.05,0,0,0.05,54.85,0)" xlink:href="#bj"/><use transform="matrix(0.05,0,0,0.05,64.85000000000001,0)" xlink:href="#bk"/><use transform="matrix(0.05,0,0,0.05,74.85000000000001,0)" xlink:href="#bl"/><use transform="matrix(0.05,0,0,0.05,84.85000000000001,0)" xlink:href="#bm"/></g><g id="A"><use transform="matrix(0.05,0,0,0.05,0,0)" xlink:href="#br"/><use transform="matrix(0.05,0,0,0.05,10,0)" xlink:href="#bt"/><use transform="matrix(0.05,0,0,0.05,19,0)" xlink:href="#bs"/><use transform="matrix(0.05,0,0,0.05,24,0)" xlink:href="#bo"/><use transform="matrix(0.05,0,0,0.05,27.950000000000003,0)" xlink:href="#bz"/><use transform="matrix(0.05,0,0,0.05,37.95,0)" xlink:href="#by"/></g><path fill="#333" d="M160-131c35 5 61 23 61 61C221 17 115-2 30 0v-248c76 3 177-17 177 60 0 33-19 50-47 57zm-97-11c50-1 110 9 110-42 0-47-63-36-110-37v79zm0 115c55-2 124 14 124-45 0-56-70-42-124-44v89" id="bV"/><path fill="#333" d="M0 4l72-265h28L28 4H0" id="bW"/><path fill="#333" d="M127-220V0H93v-220H8v-28h204v28h-85" id="bX"/><path fill="#333" d="M33 0v-38h34V0H33" id="bY"/><g id="B"><use transform="matrix(0.05,0,0,0.05,0,0)" xlink:href="#bV"/><use transform="matrix(0.05,0,0,0.05,12,0)" xlink:href="#bP"/><use transform="matrix(0.05,0,0,0.05,15.949999999999998,0)" xlink:href="#bz"/><use transform="matrix(0.05,0,0,0.05,25.950000000000003,0)" xlink:href="#bt"/><use transform="matrix(0.05,0,0,0.05,34.95,0)" xlink:href="#bE"/><use transform="matrix(0.05,0,0,0.05,43.95,0)" xlink:href="#bW"/><use transform="matrix(0.05,0,0,0.05,48.95,0)" xlink:href="#bX"/><use transform="matrix(0.05,0,0,0.05,59.25,0)" xlink:href="#bH"/><use transform="matrix(0.05,0,0,0.05,65.2,0)" xlink:href="#br"/><use transform="matrix(0.05,0,0,0.05,75.2,0)" xlink:href="#by"/><use transform="matrix(0.05,0,0,0.05,85.2,0)" xlink:href="#bp"/><use transform="matrix(0.05,0,0,0.05,94.2,0)" xlink:href="#br"/><use transform="matrix(0.05,0,0,0.05,104.2,0)" xlink:href="#bt"/><use transform="matrix(0.05,0,0,0.05,113.2,0)" xlink:href="#bs"/><use transform="matrix(0.05,0,0,0.05,118.2,0)" xlink:href="#bo"/><use transform="matrix(0.05,0,0,0.05,122.15,0)" xlink:href="#bz"/><use transform="matrix(0.05,0,0,0.05,132.15,0)" xlink:href="#by"/><use transform="matrix(0.05,0,0,0.05,142.15,0)" xlink:href="#bW"/><use transform="matrix(0.05,0,0,0.05,147.15,0)" xlink:href="#bF"/><use transform="matrix(0.05,0,0,0.05,160.1,0)" xlink:href="#bz"/><use transform="matrix(0.05,0,0,0.05,170.1,0)" xlink:href="#by"/><use transform="matrix(0.05,0,0,0.05,180.1,0)" xlink:href="#bs"/><use transform="matrix(0.05,0,0,0.05,185.1,0)" xlink:href="#bH"/><use transform="matrix(0.05,0,0,0.05,191.04999999999998,0)" xlink:href="#br"/><use transform="matrix(0.05,0,0,0.05,201.04999999999998,0)" xlink:href="#bt"/><use transform="matrix(0.05,0,0,0.05,210.04999999999995,0)" xlink:href="#bs"/><use transform="matrix(0.05,0,0,0.05,215.04999999999995,0)" xlink:href="#bY"/><use transform="matrix(0.05,0,0,0.05,220.04999999999995,0)" xlink:href="#bY"/><use transform="matrix(0.05,0,0,0.05,225.04999999999995,0)" xlink:href="#bY"/></g><g id="C"><use transform="matrix(0.05,0,0,0.05,0,0)" xlink:href="#bF"/><use transform="matrix(0.05,0,0,0.05,12.950000000000001,0)" xlink:href="#bl"/><use transform="matrix(0.05,0,0,0.05,22.950000000000003,0)" xlink:href="#bp"/><use transform="matrix(0.05,0,0,0.05,31.950000000000003,0)" xlink:href="#bs"/><use transform="matrix(0.05,0,0,0.05,36.95,0)" xlink:href="#bz"/><use transform="matrix(0.05,0,0,0.05,46.95,0)" xlink:href="#bG"/></g><g id="D"><use transform="matrix(0.05,0,0,0.05,0,0)" xlink:href="#bL"/><use transform="matrix(0.05,0,0,0.05,5.95,0)" xlink:href="#bF"/><use transform="matrix(0.05,0,0,0.05,18.900000000000002,0)" xlink:href="#bl"/><use transform="matrix(0.05,0,0,0.05,28.900000000000002,0)" xlink:href="#bp"/><use transform="matrix(0.05,0,0,0.05,37.900000000000006,0)" xlink:href="#bs"/><use transform="matrix(0.05,0,0,0.05,42.900000000000006,0)" xlink:href="#bz"/><use transform="matrix(0.05,0,0,0.05,52.900000000000006,0)" xlink:href="#bG"/><use transform="matrix(0.05,0,0,0.05,67.85000000000001,0)" xlink:href="#bQ"/></g><g id="E"><use transform="matrix(0.05,0,0,0.05,0,0)" xlink:href="#bw"/><use transform="matrix(0.05,0,0,0.05,12,0)" xlink:href="#bt"/><use transform="matrix(0.05,0,0,0.05,21,0)" xlink:href="#bs"/><use transform="matrix(0.05,0,0,0.05,26,0)" xlink:href="#bo"/><use transform="matrix(0.05,0,0,0.05,29.950000000000003,0)" xlink:href="#bz"/><use transform="matrix(0.05,0,0,0.05,39.95,0)" xlink:href="#by"/></g><path fill="#333" d="M135-150c-39-12-60 13-60 57V0H25l-1-190h47c2 13-1 29 3 40 6-28 27-53 61-41v41" id="bZ"/><path fill="#333" d="M185-48c-13 30-37 53-82 52C43 2 14-33 14-96s30-98 90-98c62 0 83 45 84 108H66c0 31 8 55 39 56 18 0 30-7 34-22zm-45-69c5-46-57-63-70-21-2 6-4 13-4 21h74" id="ca"/><path fill="#333" d="M88-194c31-1 46 15 58 34l-1-101h50l1 261h-48c-2-10 0-23-3-31C134-8 116 4 84 4 32 4 16-41 15-95c0-56 19-97 73-99zm17 164c33 0 40-30 41-66 1-37-9-64-41-64s-38 30-39 65c0 43 13 65 39 65" id="cb"/><path fill="#333" d="M85 4C-2 5 27-109 22-190h50c7 57-23 150 33 157 60-5 35-97 40-157h50l1 190h-47c-2-12 1-28-3-38-12 25-28 42-61 42" id="cc"/><path fill="#333" d="M144 0l-44-69L55 0H2l70-98-66-92h53l41 62 40-62h54l-67 91 71 99h-54" id="cd"/><path fill="#333" d="M14-72v-43h91v43H14" id="ce"/><path fill="#333" d="M137-138c1-29-70-34-71-4 15 46 118 7 119 86 1 83-164 76-172 9l43-7c4 19 20 25 44 25 33 8 57-30 24-41C81-84 22-81 20-136c-2-80 154-74 161-7" id="cf"/><path fill="#333" d="M133-34C117-15 103 5 69 4 32 3 11-16 11-54c-1-60 55-63 116-61 1-26-3-47-28-47-18 1-26 9-28 27l-52-2c7-38 36-58 82-57s74 22 75 68l1 82c-1 14 12 18 25 15v27c-30 8-71 5-69-32zm-48 3c29 0 43-24 42-57-32 0-66-3-65 30 0 17 8 27 23 27" id="cg"/><path fill="#333" d="M195-6C206 82 75 100 31 46c-4-6-6-13-8-21l49-6c3 16 16 24 34 25 40 0 42-37 40-79-11 22-30 35-61 35-53 0-70-43-70-97 0-56 18-96 73-97 30 0 46 14 59 34l2-30h47zm-90-29c32 0 41-27 41-63 0-35-9-62-40-62-32 0-39 29-40 63 0 36 9 62 39 62" id="ch"/><g id="F"><use transform="matrix(0.05,0,0,0.05,0,0)" xlink:href="#bZ"/><use transform="matrix(0.05,0,0,0.05,7,0)" xlink:href="#ca"/><use transform="matrix(0.05,0,0,0.05,17,0)" xlink:href="#cb"/><use transform="matrix(0.05,0,0,0.05,27.950000000000003,0)" xlink:href="#cc"/><use transform="matrix(0.05,0,0,0.05,38.900000000000006,0)" xlink:href="#cd"/><use transform="matrix(0.05,0,0,0.05,48.900000000000006,0)" xlink:href="#ce"/><use transform="matrix(0.05,0,0,0.05,54.85,0)" xlink:href="#cf"/><use transform="matrix(0.05,0,0,0.05,64.85000000000001,0)" xlink:href="#cg"/><use transform="matrix(0.05,0,0,0.05,74.85000000000001,0)" xlink:href="#ch"/><use transform="matrix(0.05,0,0,0.05,85.80000000000001,0)" xlink:href="#cg"/></g><g id="G"><use transform="matrix(0.05,0,0,0.05,0,0)" xlink:href="#bo"/><use transform="matrix(0.05,0,0,0.05,3.95,0)" xlink:href="#bp"/></g><g id="H"><use transform="matrix(0.05,0,0,0.05,0,0)" xlink:href="#bl"/><use transform="matrix(0.05,0,0,0.05,10,0)" xlink:href="#bp"/><use transform="matrix(0.05,0,0,0.05,19,0)" xlink:href="#bj"/><use transform="matrix(0.05,0,0,0.05,29,0)" xlink:href="#bk"/></g><g id="I"><use transform="matrix(0.05,0,0,0.05,0,0)" xlink:href="#bs"/><use transform="matrix(0.05,0,0,0.05,5,0)" xlink:href="#bz"/></g><path fill="#333" d="M101-234c-31-9-42 10-38 44h38v23H63V0H32v-167H5v-23h27c-7-52 17-82 69-68v24" id="ci"/><g id="J"><use transform="matrix(0.05,0,0,0.05,0,0)" xlink:href="#ci"/><use transform="matrix(0.05,0,0,0.05,5,0)" xlink:href="#bj"/><use transform="matrix(0.05,0,0,0.05,15,0)" xlink:href="#bs"/><use transform="matrix(0.05,0,0,0.05,20,0)" xlink:href="#bt"/><use transform="matrix(0.05,0,0,0.05,29,0)" xlink:href="#bu"/></g><g id="K"><use transform="matrix(0.05,0,0,0.05,0,0)" xlink:href="#by"/><use transform="matrix(0.05,0,0,0.05,10,0)" xlink:href="#bj"/><use transform="matrix(0.05,0,0,0.05,20,0)" xlink:href="#bM"/></g><g id="L"><use transform="matrix(0.05,0,0,0.05,0,0)" xlink:href="#bk"/><use transform="matrix(0.05,0,0,0.05,10,0)" xlink:href="#br"/><use transform="matrix(0.05,0,0,0.05,20,0)" xlink:href="#bs"/><use transform="matrix(0.05,0,0,0.05,25,0)" xlink:href="#br"/></g><g id="M"><use transform="matrix(0.05,0,0,0.05,0,0)" xlink:href="#br"/><use transform="matrix(0.05,0,0,0.05,10,0)" xlink:href="#bp"/><use transform="matrix(0.05,0,0,0.05,19,0)" xlink:href="#bx"/><use transform="matrix(0.05,0,0,0.05,28,0)" xlink:href="#by"/><use transform="matrix(0.05,0,0,0.05,38,0)" xlink:href="#bt"/><use transform="matrix(0.05,0,0,0.05,47,0)" xlink:href="#bu"/><use transform="matrix(0.05,0,0,0.05,57,0)" xlink:href="#bH"/><use transform="matrix(0.05,0,0,0.05,62.95,0)" xlink:href="#bz"/><use transform="matrix(0.05,0,0,0.05,72.95,0)" xlink:href="#by"/><use transform="matrix(0.05,0,0,0.05,82.95,0)" xlink:href="#bz"/><use transform="matrix(0.05,0,0,0.05,92.95,0)" xlink:href="#bl"/><use transform="matrix(0.05,0,0,0.05,102.95,0)" xlink:href="#bp"/><use transform="matrix(0.05,0,0,0.05,111.95,0)" xlink:href="#bP"/><use transform="matrix(0.05,0,0,0.05,115.9,0)" xlink:href="#bx"/><use transform="matrix(0.05,0,0,0.05,123.55000000000001,0)" xlink:href="#bY"/></g><g id="N"><use transform="matrix(0.05,0,0,0.05,0,0)" xlink:href="#bX"/><use transform="matrix(0.05,0,0,0.05,10.950000000000001,0)" xlink:href="#bu"/><use transform="matrix(0.05,0,0,0.05,20.950000000000003,0)" xlink:href="#bo"/><use transform="matrix(0.05,0,0,0.05,24.900000000000002,0)" xlink:href="#bp"/></g><g id="O"><use transform="matrix(0.05,0,0,0.05,0,0)" xlink:href="#bM"/><use transform="matrix(0.05,0,0,0.05,12.950000000000001,0)" xlink:href="#bu"/><use transform="matrix(0.05,0,0,0.05,22.950000000000003,0)" xlink:href="#bj"/><use transform="matrix(0.05,0,0,0.05,32.95,0)" xlink:href="#bH"/><use transform="matrix(0.05,0,0,0.05,38.900000000000006,0)" xlink:href="#bj"/></g><g id="P"><use transform="matrix(0.05,0,0,0.05,0,0)" xlink:href="#bi"/><use transform="matrix(0.05,0,0,0.05,12.950000000000001,0)" xlink:href="#bR"/><use transform="matrix(0.05,0,0,0.05,24.950000000000003,0)" xlink:href="#bF"/></g><g id="Q"><use transform="matrix(0.05,0,0,0.05,0,0)" xlink:href="#bt"/><use transform="matrix(0.05,0,0,0.05,9,0)" xlink:href="#br"/><use transform="matrix(0.05,0,0,0.05,19,0)" xlink:href="#bP"/><use transform="matrix(0.05,0,0,0.05,22.95,0)" xlink:href="#bP"/><use transform="matrix(0.05,0,0,0.05,26.899999999999995,0)" xlink:href="#bp"/></g><g id="R"><use transform="matrix(0.05,0,0,0.05,0,0)" xlink:href="#br"/><use transform="matrix(0.05,0,0,0.05,10,0)" xlink:href="#bH"/><use transform="matrix(0.05,0,0,0.05,15.949999999999998,0)" xlink:href="#bj"/></g><g id="S"><use transform="matrix(0.05,0,0,0.05,0,0)" xlink:href="#bG"/><use transform="matrix(0.05,0,0,0.05,14.950000000000001,0)" xlink:href="#br"/><use transform="matrix(0.05,0,0,0.05,24.950000000000003,0)" xlink:href="#bk"/><use transform="matrix(0.05,0,0,0.05,34.95,0)" xlink:href="#bj"/></g><path fill="#333" d="M68-38c1 34 0 65-14 84H32c9-13 17-26 17-46H33v-38h35" id="cj"/><g id="T"><use transform="matrix(0.05,0,0,0.05,0,0)" xlink:href="#bN"/><use transform="matrix(0.05,0,0,0.05,10,0)" xlink:href="#bP"/><use transform="matrix(0.05,0,0,0.05,13.949999999999998,0)" xlink:href="#bz"/><use transform="matrix(0.05,0,0,0.05,23.95,0)" xlink:href="#bt"/><use transform="matrix(0.05,0,0,0.05,32.95,0)" xlink:href="#bE"/><use transform="matrix(0.05,0,0,0.05,41.95,0)" xlink:href="#bp"/><use transform="matrix(0.05,0,0,0.05,50.95,0)" xlink:href="#cj"/></g><g id="U"><use transform="matrix(0.05,0,0,0.05,0,0)" xlink:href="#bs"/><use transform="matrix(0.05,0,0,0.05,5,0)" xlink:href="#bH"/><use transform="matrix(0.05,0,0,0.05,10.95,0)" xlink:href="#br"/><use transform="matrix(0.05,0,0,0.05,20.95,0)" xlink:href="#by"/><use transform="matrix(0.05,0,0,0.05,30.950000000000003,0)" xlink:href="#bp"/><use transform="matrix(0.05,0,0,0.05,39.95,0)" xlink:href="#br"/><use transform="matrix(0.05,0,0,0.05,49.95,0)" xlink:href="#bt"/><use transform="matrix(0.05,0,0,0.05,58.95,0)" xlink:href="#bs"/><use transform="matrix(0.05,0,0,0.05,63.95,0)" xlink:href="#bo"/><use transform="matrix(0.05,0,0,0.05,67.9,0)" xlink:href="#bz"/><use transform="matrix(0.05,0,0,0.05,77.9,0)" xlink:href="#by"/><use transform="matrix(0.05,0,0,0.05,87.9,0)" xlink:href="#bp"/><use transform="matrix(0.05,0,0,0.05,96.9,0)" xlink:href="#cj"/></g><path fill="#333" d="M108 0H70L1-190h34L89-25l56-165h34" id="ck"/><g id="V"><use transform="matrix(0.05,0,0,0.05,0,0)" xlink:href="#bj"/><use transform="matrix(0.05,0,0,0.05,10,0)" xlink:href="#ck"/><use transform="matrix(0.05,0,0,0.05,19,0)" xlink:href="#bj"/><use transform="matrix(0.05,0,0,0.05,29,0)" xlink:href="#by"/><use transform="matrix(0.05,0,0,0.05,39,0)" xlink:href="#bs"/><use transform="matrix(0.05,0,0,0.05,44,0)" xlink:href="#bp"/><use transform="matrix(0.05,0,0,0.05,53,0)" xlink:href="#cj"/></g><g id="W"><use transform="matrix(0.05,0,0,0.05,0,0)" xlink:href="#br"/><use transform="matrix(0.05,0,0,0.05,10,0)" xlink:href="#by"/><use transform="matrix(0.05,0,0,0.05,20,0)" xlink:href="#bk"/></g><g id="X"><use transform="matrix(0.05,0,0,0.05,0,0)" xlink:href="#bG"/><use transform="matrix(0.05,0,0,0.05,14.950000000000001,0)" xlink:href="#br"/><use transform="matrix(0.05,0,0,0.05,24.950000000000003,0)" xlink:href="#by"/><use transform="matrix(0.05,0,0,0.05,34.95,0)" xlink:href="#br"/><use transform="matrix(0.05,0,0,0.05,44.95,0)" xlink:href="#bS"/><use transform="matrix(0.05,0,0,0.05,54.95,0)" xlink:href="#bj"/></g><g id="Y"><use transform="matrix(0.05,0,0,0.05,0,0)" xlink:href="#bp"/><use transform="matrix(0.05,0,0,0.05,9,0)" xlink:href="#bl"/><use transform="matrix(0.05,0,0,0.05,19,0)" xlink:href="#bN"/><use transform="matrix(0.05,0,0,0.05,29,0)" xlink:href="#bt"/><use transform="matrix(0.05,0,0,0.05,38,0)" xlink:href="#bH"/><use transform="matrix(0.05,0,0,0.05,43.95,0)" xlink:href="#bo"/><use transform="matrix(0.05,0,0,0.05,47.900000000000006,0)" xlink:href="#bq"/><use transform="matrix(0.05,0,0,0.05,57.900000000000006,0)" xlink:href="#bs"/><use transform="matrix(0.05,0,0,0.05,62.900000000000006,0)" xlink:href="#bo"/><use transform="matrix(0.05,0,0,0.05,66.85000000000001,0)" xlink:href="#bz"/><use transform="matrix(0.05,0,0,0.05,76.85000000000001,0)" xlink:href="#by"/><use transform="matrix(0.05,0,0,0.05,86.85000000000001,0)" xlink:href="#bp"/><use transform="matrix(0.05,0,0,0.05,95.85000000000001,0)" xlink:href="#bY"/></g><g id="Z"><use transform="matrix(0.05,0,0,0.05,0,0)" xlink:href="#bK"/><use transform="matrix(0.05,0,0,0.05,12,0)" xlink:href="#br"/><use transform="matrix(0.05,0,0,0.05,22,0)" xlink:href="#bS"/><use transform="matrix(0.05,0,0,0.05,32,0)" xlink:href="#br"/><use transform="matrix(0.05,0,0,0.05,42,0)" xlink:href="#bp"/></g><g id="aa"><use transform="matrix(0.05,0,0,0.05,0,0)" xlink:href="#bs"/><use transform="matrix(0.05,0,0,0.05,5,0)" xlink:href="#bu"/><use transform="matrix(0.05,0,0,0.05,15,0)" xlink:href="#bj"/><use transform="matrix(0.05,0,0,0.05,25,0)" xlink:href="#by"/></g><g id="ab"><use transform="matrix(0.05,0,0,0.05,0,0)" xlink:href="#bk"/><use transform="matrix(0.05,0,0,0.05,10,0)" xlink:href="#bo"/><use transform="matrix(0.05,0,0,0.05,13.949999999999998,0)" xlink:href="#bp"/><use transform="matrix(0.05,0,0,0.05,22.95,0)" xlink:href="#bq"/><use transform="matrix(0.05,0,0,0.05,32.95,0)" xlink:href="#br"/><use transform="matrix(0.05,0,0,0.05,42.95,0)" xlink:href="#bs"/><use transform="matrix(0.05,0,0,0.05,47.95,0)" xlink:href="#bt"/><use transform="matrix(0.05,0,0,0.05,56.95,0)" xlink:href="#bu"/></g><g id="ac"><use transform="matrix(0.05,0,0,0.05,0,0)" xlink:href="#br"/><use transform="matrix(0.05,0,0,0.05,10,0)" xlink:href="#bt"/><use transform="matrix(0.05,0,0,0.05,19,0)" xlink:href="#bs"/><use transform="matrix(0.05,0,0,0.05,24,0)" xlink:href="#bo"/><use transform="matrix(0.05,0,0,0.05,27.950000000000003,0)" xlink:href="#bz"/><use transform="matrix(0.05,0,0,0.05,37.95,0)" xlink:href="#by"/><use transform="matrix(0.05,0,0,0.05,47.95,0)" xlink:href="#bp"/></g><g id="ad"><use transform="matrix(0.05,0,0,0.05,0,0)" xlink:href="#bl"/><use transform="matrix(0.05,0,0,0.05,10,0)" xlink:href="#bq"/><use transform="matrix(0.05,0,0,0.05,20,0)" xlink:href="#bk"/><use transform="matrix(0.05,0,0,0.05,30,0)" xlink:href="#br"/><use transform="matrix(0.05,0,0,0.05,40,0)" xlink:href="#bs"/><use transform="matrix(0.05,0,0,0.05,45,0)" xlink:href="#bj"/></g><g id="ae"><use transform="matrix(0.05,0,0,0.05,0,0)" xlink:href="#bs"/><use transform="matrix(0.05,0,0,0.05,5,0)" xlink:href="#bu"/><use transform="matrix(0.05,0,0,0.05,15,0)" xlink:href="#bj"/></g><g id="af"><use transform="matrix(0.05,0,0,0.05,0,0)" xlink:href="#bp"/><use transform="matrix(0.05,0,0,0.05,9,0)" xlink:href="#bs"/><use transform="matrix(0.05,0,0,0.05,14,0)" xlink:href="#bz"/><use transform="matrix(0.05,0,0,0.05,24,0)" xlink:href="#bH"/><use transform="matrix(0.05,0,0,0.05,29.950000000000003,0)" xlink:href="#bj"/><use transform="matrix(0.05,0,0,0.05,39.95,0)" xlink:href="#bY"/></g><path fill="#333" d="M110-194c64 0 96 36 96 99 0 64-35 99-97 99-61 0-95-36-95-99 0-62 34-99 96-99zm-1 164c35 0 45-28 45-65 0-40-10-65-43-65-34 0-45 26-45 65 0 36 10 65 43 65" id="cl"/><path fill="#333" d="M220-157c-53 9-28 100-34 157h-49v-107c1-27-5-49-29-50C55-147 81-57 75 0H25l-1-190h47c2 12-1 28 3 38 10-53 101-56 108 0 13-22 24-43 59-42 82 1 51 116 57 194h-49v-107c-1-25-5-48-29-50" id="cm"/><g id="ag"><use transform="matrix(0.05,0,0,0.05,0,0)" xlink:href="#bZ"/><use transform="matrix(0.05,0,0,0.05,7,0)" xlink:href="#ca"/><use transform="matrix(0.05,0,0,0.05,17,0)" xlink:href="#cb"/><use transform="matrix(0.05,0,0,0.05,27.950000000000003,0)" xlink:href="#cc"/><use transform="matrix(0.05,0,0,0.05,38.900000000000006,0)" xlink:href="#cd"/><use transform="matrix(0.05,0,0,0.05,48.900000000000006,0)" xlink:href="#ce"/><use transform="matrix(0.05,0,0,0.05,54.85,0)" xlink:href="#cl"/><use transform="matrix(0.05,0,0,0.05,65.80000000000001,0)" xlink:href="#bZ"/><use transform="matrix(0.05,0,0,0.05,72.80000000000001,0)" xlink:href="#cm"/></g><g id="ah"><use transform="matrix(0.05,0,0,0.05,0,0)" xlink:href="#bo"/><use transform="matrix(0.05,0,0,0.05,3.95,0)" xlink:href="#bp"/></g><g id="ai"><use transform="matrix(0.05,0,0,0.05,0,0)" xlink:href="#bl"/><use transform="matrix(0.05,0,0,0.05,10,0)" xlink:href="#bp"/><use transform="matrix(0.05,0,0,0.05,19,0)" xlink:href="#bj"/><use transform="matrix(0.05,0,0,0.05,29,0)" xlink:href="#bk"/></g><g id="aj"><use transform="matrix(0.05,0,0,0.05,0,0)" xlink:href="#bs"/><use transform="matrix(0.05,0,0,0.05,5,0)" xlink:href="#bz"/></g><g id="ak"><use transform="matrix(0.05,0,0,0.05,0,0)" xlink:href="#bG"/><use transform="matrix(0.05,0,0,0.05,14.950000000000001,0)" xlink:href="#bl"/><use transform="matrix(0.05,0,0,0.05,24.950000000000003,0)" xlink:href="#bs"/><use transform="matrix(0.05,0,0,0.05,29.950000000000003,0)" xlink:href="#br"/><use transform="matrix(0.05,0,0,0.05,39.95,0)" xlink:href="#bs"/><use transform="matrix(0.05,0,0,0.05,44.95,0)" xlink:href="#bj"/></g><g id="al"><use transform="matrix(0.05,0,0,0.05,0,0)" xlink:href="#bs"/><use transform="matrix(0.05,0,0,0.05,5,0)" xlink:href="#bu"/><use transform="matrix(0.05,0,0,0.05,15,0)" xlink:href="#bj"/></g><g id="am"><use transform="matrix(0.05,0,0,0.05,0,0)" xlink:href="#bp"/><use transform="matrix(0.05,0,0,0.05,9,0)" xlink:href="#bs"/><use transform="matrix(0.05,0,0,0.05,14,0)" xlink:href="#br"/><use transform="matrix(0.05,0,0,0.05,24,0)" xlink:href="#bs"/><use transform="matrix(0.05,0,0,0.05,29,0)" xlink:href="#bj"/></g><g id="an"><use transform="matrix(0.05,0,0,0.05,0,0)" xlink:href="#bo"/><use transform="matrix(0.05,0,0,0.05,3.95,0)" xlink:href="#by"/></g><use transform="matrix(0.05,0,0,0.05,0,0)" xlink:href="#br" id="ao"/><path fill="#333" d="M9 0v-24l116-142H16v-24h144v24L44-24h123V0H9" id="cn"/><g id="ap"><use transform="matrix(0.05,0,0,0.05,0,0)" xlink:href="#by"/><use transform="matrix(0.05,0,0,0.05,10,0)" xlink:href="#bz"/><use transform="matrix(0.05,0,0,0.05,20,0)" xlink:href="#bH"/><use transform="matrix(0.05,0,0,0.05,25.950000000000003,0)" xlink:href="#bG"/><use transform="matrix(0.05,0,0,0.05,40.9,0)" xlink:href="#br"/><use transform="matrix(0.05,0,0,0.05,50.9,0)" xlink:href="#bP"/><use transform="matrix(0.05,0,0,0.05,54.85,0)" xlink:href="#bo"/><use transform="matrix(0.05,0,0,0.05,58.800000000000004,0)" xlink:href="#cn"/><use transform="matrix(0.05,0,0,0.05,67.80000000000001,0)" xlink:href="#bj"/><use transform="matrix(0.05,0,0,0.05,77.80000000000001,0)" xlink:href="#bk"/></g><g id="aq"><use transform="matrix(0.05,0,0,0.05,0,0)" xlink:href="#bM"/><use transform="matrix(0.05,0,0,0.05,12.950000000000001,0)" xlink:href="#br"/><use transform="matrix(0.05,0,0,0.05,22.950000000000003,0)" xlink:href="#bx"/></g><g id="ar"><use transform="matrix(0.05,0,0,0.05,0,0)" xlink:href="#bM"/><use transform="matrix(0.05,0,0,0.05,12.950000000000001,0)" xlink:href="#bo"/><use transform="matrix(0.05,0,0,0.05,16.900000000000002,0)" xlink:href="#bs"/><use transform="matrix(0.05,0,0,0.05,21.900000000000002,0)" xlink:href="#bu"/></g><g id="as"><use transform="matrix(0.05,0,0,0.05,0,0)" xlink:href="#bj"/><use transform="matrix(0.05,0,0,0.05,10,0)" xlink:href="#br"/><use transform="matrix(0.05,0,0,0.05,20,0)" xlink:href="#bt"/><use transform="matrix(0.05,0,0,0.05,29,0)" xlink:href="#bu"/></g><path fill="#333" d="M24-231v-30h32v30H24zM-9 49c24 4 33-6 33-30v-209h32V24c2 40-23 58-65 49V49" id="co"/><g id="at"><use transform="matrix(0.05,0,0,0.05,0,0)" xlink:href="#bz"/><use transform="matrix(0.05,0,0,0.05,10,0)" xlink:href="#bN"/><use transform="matrix(0.05,0,0,0.05,20,0)" xlink:href="#co"/><use transform="matrix(0.05,0,0,0.05,23.95,0)" xlink:href="#bj"/><use transform="matrix(0.05,0,0,0.05,33.95,0)" xlink:href="#bt"/><use transform="matrix(0.05,0,0,0.05,42.95,0)" xlink:href="#bs"/></g><g id="au"><use transform="matrix(0.05,0,0,0.05,0,0)" xlink:href="#bu"/><use transform="matrix(0.05,0,0,0.05,10,0)" xlink:href="#br"/><use transform="matrix(0.05,0,0,0.05,20,0)" xlink:href="#ck"/><use transform="matrix(0.05,0,0,0.05,29,0)" xlink:href="#bo"/><use transform="matrix(0.05,0,0,0.05,32.95,0)" xlink:href="#by"/><use transform="matrix(0.05,0,0,0.05,42.95,0)" xlink:href="#bS"/></g><path fill="#333" d="M145-31C134-9 116 4 85 4 32 4 16-35 15-94c0-59 17-99 70-100 32-1 48 14 60 33 0-11-1-24 2-32h30l-1 268h-32zM93-21c41 0 51-33 51-76s-8-73-50-73c-40 0-46 35-46 75s5 74 45 74" id="cp"/><g id="av"><use transform="matrix(0.05,0,0,0.05,0,0)" xlink:href="#bl"/><use transform="matrix(0.05,0,0,0.05,10,0)" xlink:href="#by"/><use transform="matrix(0.05,0,0,0.05,20,0)" xlink:href="#bo"/><use transform="matrix(0.05,0,0,0.05,23.95,0)" xlink:href="#cp"/><use transform="matrix(0.05,0,0,0.05,33.95,0)" xlink:href="#bl"/><use transform="matrix(0.05,0,0,0.05,43.95,0)" xlink:href="#bj"/></g><g id="aw"><use transform="matrix(0.05,0,0,0.05,0,0)" xlink:href="#bo"/><use transform="matrix(0.05,0,0,0.05,3.95,0)" xlink:href="#bk"/><use transform="matrix(0.05,0,0,0.05,13.949999999999998,0)" xlink:href="#bp"/><use transform="matrix(0.05,0,0,0.05,22.95,0)" xlink:href="#bY"/></g><g id="ax"><use transform="matrix(0.05,0,0,0.05,0,0)" xlink:href="#bZ"/><use transform="matrix(0.05,0,0,0.05,7,0)" xlink:href="#ca"/><use transform="matrix(0.05,0,0,0.05,17,0)" xlink:href="#cb"/><use transform="matrix(0.05,0,0,0.05,27.950000000000003,0)" xlink:href="#cc"/><use transform="matrix(0.05,0,0,0.05,38.900000000000006,0)" xlink:href="#cd"/><use transform="matrix(0.05,0,0,0.05,48.900000000000006,0)" xlink:href="#ce"/><use transform="matrix(0.05,0,0,0.05,54.85,0)" xlink:href="#cl"/><use transform="matrix(0.05,0,0,0.05,65.80000000000001,0)" xlink:href="#bZ"/><use transform="matrix(0.05,0,0,0.05,72.80000000000001,0)" xlink:href="#cm"/></g><g id="ay"><use transform="matrix(0.05,0,0,0.05,0,0)" xlink:href="#bH"/><use transform="matrix(0.05,0,0,0.05,5.95,0)" xlink:href="#bj"/><use transform="matrix(0.05,0,0,0.05,15.949999999999998,0)" xlink:href="#br"/><use transform="matrix(0.05,0,0,0.05,25.950000000000003,0)" xlink:href="#bk"/></g><g id="az"><use transform="matrix(0.05,0,0,0.05,0,0)" xlink:href="#bG"/><use transform="matrix(0.05,0,0,0.05,14.950000000000001,0)" xlink:href="#br"/><use transform="matrix(0.05,0,0,0.05,24.950000000000003,0)" xlink:href="#by"/><use transform="matrix(0.05,0,0,0.05,34.95,0)" xlink:href="#br"/><use transform="matrix(0.05,0,0,0.05,44.95,0)" xlink:href="#bS"/><use transform="matrix(0.05,0,0,0.05,54.95,0)" xlink:href="#bj"/></g><g id="aA"><use transform="matrix(0.05,0,0,0.05,0,0)" xlink:href="#bH"/><use transform="matrix(0.05,0,0,0.05,5.95,0)" xlink:href="#bj"/><use transform="matrix(0.05,0,0,0.05,15.949999999999998,0)" xlink:href="#bP"/><use transform="matrix(0.05,0,0,0.05,19.9,0)" xlink:href="#br"/><use transform="matrix(0.05,0,0,0.05,29.899999999999995,0)" xlink:href="#bs"/><use transform="matrix(0.05,0,0,0.05,34.9,0)" xlink:href="#bo"/><use transform="matrix(0.05,0,0,0.05,38.85,0)" xlink:href="#bz"/><use transform="matrix(0.05,0,0,0.05,48.85,0)" xlink:href="#by"/><use transform="matrix(0.05,0,0,0.05,58.85,0)" xlink:href="#bp"/><use transform="matrix(0.05,0,0,0.05,67.85,0)" xlink:href="#bu"/><use transform="matrix(0.05,0,0,0.05,77.85,0)" xlink:href="#bo"/><use transform="matrix(0.05,0,0,0.05,81.8,0)" xlink:href="#bq"/><use transform="matrix(0.05,0,0,0.05,91.8,0)" xlink:href="#bp"/></g><g id="aB"><use transform="matrix(0.05,0,0,0.05,0,0)" xlink:href="#bL"/><use transform="matrix(0.05,0,0,0.05,5.95,0)" xlink:href="#bj"/><use transform="matrix(0.05,0,0,0.05,15.949999999999998,0)" xlink:href="#bS"/><use transform="matrix(0.05,0,0,0.05,25.950000000000003,0)" xlink:href="#bY"/></g><g id="aC"><use transform="matrix(0.05,0,0,0.05,0,0)" xlink:href="#bN"/><use transform="matrix(0.05,0,0,0.05,10,0)" xlink:href="#bP"/><use transform="matrix(0.05,0,0,0.05,13.949999999999998,0)" xlink:href="#bz"/><use transform="matrix(0.05,0,0,0.05,23.95,0)" xlink:href="#bt"/><use transform="matrix(0.05,0,0,0.05,32.95,0)" xlink:href="#bE"/></g><g id="aD"><use transform="matrix(0.05,0,0,0.05,0,0)" xlink:href="#bM"/><use transform="matrix(0.05,0,0,0.05,12.950000000000001,0)" xlink:href="#bo"/><use transform="matrix(0.05,0,0,0.05,16.900000000000002,0)" xlink:href="#bs"/><use transform="matrix(0.05,0,0,0.05,21.900000000000002,0)" xlink:href="#bu"/></g><g id="aE"><use transform="matrix(0.05,0,0,0.05,0,0)" xlink:href="#br"/><use transform="matrix(0.05,0,0,0.05,10,0)" xlink:href="#bP"/><use transform="matrix(0.05,0,0,0.05,13.949999999999998,0)" xlink:href="#bP"/></g><g id="aF"><use transform="matrix(0.05,0,0,0.05,0,0)" xlink:href="#bH"/><use transform="matrix(0.05,0,0,0.05,5.95,0)" xlink:href="#bj"/><use transform="matrix(0.05,0,0,0.05,15.949999999999998,0)" xlink:href="#bP"/><use transform="matrix(0.05,0,0,0.05,19.9,0)" xlink:href="#br"/><use transform="matrix(0.05,0,0,0.05,29.899999999999995,0)" xlink:href="#bs"/><use transform="matrix(0.05,0,0,0.05,34.9,0)" xlink:href="#bj"/><use transform="matrix(0.05,0,0,0.05,44.9,0)" xlink:href="#bk"/></g><g id="aG"><use transform="matrix(0.05,0,0,0.05,0,0)" xlink:href="#bs"/><use transform="matrix(0.05,0,0,0.05,5,0)" xlink:href="#bH"/><use transform="matrix(0.05,0,0,0.05,10.95,0)" xlink:href="#br"/><use transform="matrix(0.05,0,0,0.05,20.95,0)" xlink:href="#by"/><use transform="matrix(0.05,0,0,0.05,30.950000000000003,0)" xlink:href="#bp"/><use transform="matrix(0.05,0,0,0.05,39.95,0)" xlink:href="#br"/><use transform="matrix(0.05,0,0,0.05,49.95,0)" xlink:href="#bt"/><use transform="matrix(0.05,0,0,0.05,58.95,0)" xlink:href="#bs"/><use transform="matrix(0.05,0,0,0.05,63.95,0)" xlink:href="#bo"/><use transform="matrix(0.05,0,0,0.05,67.9,0)" xlink:href="#bz"/><use transform="matrix(0.05,0,0,0.05,77.9,0)" xlink:href="#by"/><use transform="matrix(0.05,0,0,0.05,87.9,0)" xlink:href="#bp"/><use transform="matrix(0.05,0,0,0.05,96.9,0)" xlink:href="#bQ"/></g><path fill="#333" d="M169-182c-1-43-94-46-97-3 18 66 151 10 154 114 3 95-165 93-204 36-6-8-10-19-12-30l50-8c3 46 112 56 116 5-17-69-150-10-154-114-4-87 153-88 188-35 5 8 8 18 10 28" id="cq"/><path fill="#333" d="M25 0v-261h50V0H25" id="cr"/><path fill="#333" d="M190-63c-7 42-38 67-86 67-59 0-84-38-90-98-12-110 154-137 174-36l-49 2c-2-19-15-32-35-32-30 0-35 28-38 64-6 74 65 87 74 30" id="cs"/><path fill="#333" d="M115-3C79 11 28 4 28-45v-112H4v-33h27l15-45h31v45h36v33H77v99c-1 23 16 31 38 25v30" id="ct"/><g id="aH"><use transform="matrix(0.05,0,0,0.05,0,0)" xlink:href="#cq"/><use transform="matrix(0.05,0,0,0.05,12,0)" xlink:href="#ca"/><use transform="matrix(0.05,0,0,0.05,22,0)" xlink:href="#cr"/><use transform="matrix(0.05,0,0,0.05,27,0)" xlink:href="#ca"/><use transform="matrix(0.05,0,0,0.05,37,0)" xlink:href="#cs"/><use transform="matrix(0.05,0,0,0.05,47,0)" xlink:href="#ct"/><use transform="matrix(0.05,0,0,0.05,52.95,0)" xlink:href="#cl"/><use transform="matrix(0.05,0,0,0.05,63.900000000000006,0)" xlink:href="#bZ"/><use transform="matrix(0.05,0,0,0.05,70.9,0)" xlink:href="#cf"/></g><g id="aI"><use transform="matrix(0.05,0,0,0.05,0,0)" xlink:href="#bt"/><use transform="matrix(0.05,0,0,0.05,9,0)" xlink:href="#br"/><use transform="matrix(0.05,0,0,0.05,19,0)" xlink:href="#by"/></g><g id="aJ"><use transform="matrix(0.05,0,0,0.05,0,0)" xlink:href="#bu"/><use transform="matrix(0.05,0,0,0.05,10,0)" xlink:href="#br"/><use transform="matrix(0.05,0,0,0.05,20,0)" xlink:href="#ck"/><use transform="matrix(0.05,0,0,0.05,29,0)" xlink:href="#bj"/></g><g id="aK"><use transform="matrix(0.05,0,0,0.05,0,0)" xlink:href="#br"/><use transform="matrix(0.05,0,0,0.05,10,0)" xlink:href="#bk"/><use transform="matrix(0.05,0,0,0.05,20,0)" xlink:href="#bk"/><use transform="matrix(0.05,0,0,0.05,30,0)" xlink:href="#bo"/><use transform="matrix(0.05,0,0,0.05,33.95,0)" xlink:href="#bs"/><use transform="matrix(0.05,0,0,0.05,38.95,0)" xlink:href="#bo"/><use transform="matrix(0.05,0,0,0.05,42.900000000000006,0)" xlink:href="#bz"/><use transform="matrix(0.05,0,0,0.05,52.900000000000006,0)" xlink:href="#by"/><use transform="matrix(0.05,0,0,0.05,62.900000000000006,0)" xlink:href="#br"/><use transform="matrix(0.05,0,0,0.05,72.9,0)" xlink:href="#bP"/></g><g id="aL"><use transform="matrix(0.05,0,0,0.05,0,0)" xlink:href="#bP"/><use transform="matrix(0.05,0,0,0.05,3.95,0)" xlink:href="#bz"/><use transform="matrix(0.05,0,0,0.05,13.949999999999998,0)" xlink:href="#bS"/><use transform="matrix(0.05,0,0,0.05,23.95,0)" xlink:href="#bo"/><use transform="matrix(0.05,0,0,0.05,27.899999999999995,0)" xlink:href="#bt"/></g><g id="aM"><use transform="matrix(0.05,0,0,0.05,0,0)" xlink:href="#bq"/><use transform="matrix(0.05,0,0,0.05,10,0)" xlink:href="#br"/><use transform="matrix(0.05,0,0,0.05,20,0)" xlink:href="#bH"/><use transform="matrix(0.05,0,0,0.05,25.950000000000003,0)" xlink:href="#bp"/><use transform="matrix(0.05,0,0,0.05,34.95,0)" xlink:href="#bj"/></g><g id="aN"><use transform="matrix(0.05,0,0,0.05,0,0)" xlink:href="#bs"/><use transform="matrix(0.05,0,0,0.05,5,0)" xlink:href="#bu"/><use transform="matrix(0.05,0,0,0.05,15,0)" xlink:href="#bj"/></g><g id="aO"><use transform="matrix(0.05,0,0,0.05,0,0)" xlink:href="#bk"/><use transform="matrix(0.05,0,0,0.05,10,0)" xlink:href="#br"/><use transform="matrix(0.05,0,0,0.05,20,0)" xlink:href="#bs"/><use transform="matrix(0.05,0,0,0.05,25,0)" xlink:href="#br"/></g><g id="aP"><use transform="matrix(0.05,0,0,0.05,0,0)" xlink:href="#bH"/><use transform="matrix(0.05,0,0,0.05,5.95,0)" xlink:href="#bj"/><use transform="matrix(0.05,0,0,0.05,15.949999999999998,0)" xlink:href="#bs"/><use transform="matrix(0.05,0,0,0.05,20.95,0)" xlink:href="#bl"/><use transform="matrix(0.05,0,0,0.05,30.950000000000003,0)" xlink:href="#bH"/><use transform="matrix(0.05,0,0,0.05,36.9,0)" xlink:href="#by"/><use transform="matrix(0.05,0,0,0.05,46.9,0)" xlink:href="#bj"/><use transform="matrix(0.05,0,0,0.05,56.900000000000006,0)" xlink:href="#bk"/></g><g id="aQ"><use transform="matrix(0.05,0,0,0.05,0,0)" xlink:href="#bN"/><use transform="matrix(0.05,0,0,0.05,10,0)" xlink:href="#bx"/></g><g id="aR"><use transform="matrix(0.05,0,0,0.05,0,0)" xlink:href="#bH"/><use transform="matrix(0.05,0,0,0.05,5.95,0)" xlink:href="#bj"/><use transform="matrix(0.05,0,0,0.05,15.949999999999998,0)" xlink:href="#bk"/><use transform="matrix(0.05,0,0,0.05,25.950000000000003,0)" xlink:href="#bl"/><use transform="matrix(0.05,0,0,0.05,35.95,0)" xlink:href="#bm"/><use transform="matrix(0.05,0,0,0.05,44.95,0)" xlink:href="#bU"/><use transform="matrix(0.05,0,0,0.05,50.900000000000006,0)" xlink:href="#bz"/><use transform="matrix(0.05,0,0,0.05,60.900000000000006,0)" xlink:href="#bH"/><use transform="matrix(0.05,0,0,0.05,66.85000000000001,0)" xlink:href="#bG"/></g><g id="aS"><use transform="matrix(0.05,0,0,0.05,0,0)" xlink:href="#bp"/><use transform="matrix(0.05,0,0,0.05,9,0)" xlink:href="#bj"/><use transform="matrix(0.05,0,0,0.05,19,0)" xlink:href="#bP"/><use transform="matrix(0.05,0,0,0.05,22.95,0)" xlink:href="#bj"/><use transform="matrix(0.05,0,0,0.05,32.95,0)" xlink:href="#bt"/><use transform="matrix(0.05,0,0,0.05,41.95,0)" xlink:href="#bs"/><use transform="matrix(0.05,0,0,0.05,46.95,0)" xlink:href="#bz"/><use transform="matrix(0.05,0,0,0.05,56.95,0)" xlink:href="#bH"/><use transform="matrix(0.05,0,0,0.05,62.900000000000006,0)" xlink:href="#bp"/></g><path fill="#333" d="M186 0v-106H76V0H24v-248h52v99h110v-99h50V0h-50" id="cu"/><path fill="#333" d="M147 0L96-86 75-71V0H25v-261h50v150l67-79h53l-66 74L201 0h-54" id="cv"/><g id="aT"><use transform="matrix(0.05,0,0,0.05,0,0)" xlink:href="#cu"/><use transform="matrix(0.05,0,0,0.05,12.950000000000001,0)" xlink:href="#cl"/><use transform="matrix(0.05,0,0,0.05,23.900000000000002,0)" xlink:href="#cl"/><use transform="matrix(0.05,0,0,0.05,34.85,0)" xlink:href="#cv"/><use transform="matrix(0.05,0,0,0.05,44.85,0)" xlink:href="#cf"/></g><g id="aU"><use transform="matrix(0.05,0,0,0.05,0,0)" xlink:href="#bL"/><use transform="matrix(0.05,0,0,0.05,5.95,0)" xlink:href="#bt"/><use transform="matrix(0.05,0,0,0.05,14.949999999999998,0)" xlink:href="#bl"/><use transform="matrix(0.05,0,0,0.05,24.95,0)" xlink:href="#bp"/><use transform="matrix(0.05,0,0,0.05,33.95,0)" xlink:href="#bs"/><use transform="matrix(0.05,0,0,0.05,38.95,0)" xlink:href="#bz"/><use transform="matrix(0.05,0,0,0.05,48.95,0)" xlink:href="#bG"/></g><g id="aV"><use transform="matrix(0.05,0,0,0.05,0,0)" xlink:href="#bz"/><use transform="matrix(0.05,0,0,0.05,10,0)" xlink:href="#bH"/></g><g id="aW"><use transform="matrix(0.05,0,0,0.05,0,0)" xlink:href="#bo"/><use transform="matrix(0.05,0,0,0.05,3.95,0)" xlink:href="#by"/><use transform="matrix(0.05,0,0,0.05,13.949999999999998,0)" xlink:href="#bt"/><use transform="matrix(0.05,0,0,0.05,22.95,0)" xlink:href="#bP"/><use transform="matrix(0.05,0,0,0.05,26.899999999999995,0)" xlink:href="#bl"/><use transform="matrix(0.05,0,0,0.05,36.9,0)" xlink:href="#bk"/><use transform="matrix(0.05,0,0,0.05,46.9,0)" xlink:href="#bj"/><use transform="matrix(0.05,0,0,0.05,56.900000000000006,0)" xlink:href="#bk"/></g><g id="aX"><use transform="matrix(0.05,0,0,0.05,0,0)" xlink:href="#bM"/><use transform="matrix(0.05,0,0,0.05,12.950000000000001,0)" xlink:href="#bj"/><use transform="matrix(0.05,0,0,0.05,22.950000000000003,0)" xlink:href="#bN"/><use transform="matrix(0.05,0,0,0.05,32.95,0)" xlink:href="#bO"/><use transform="matrix(0.05,0,0,0.05,42.95,0)" xlink:href="#bU"/><use transform="matrix(0.05,0,0,0.05,48.900000000000006,0)" xlink:href="#bH"/><use transform="matrix(0.05,0,0,0.05,54.85,0)" xlink:href="#bj"/><use transform="matrix(0.05,0,0,0.05,64.85000000000001,0)" xlink:href="#bk"/><use transform="matrix(0.05,0,0,0.05,74.85000000000001,0)" xlink:href="#bl"/><use transform="matrix(0.05,0,0,0.05,84.85000000000001,0)" xlink:href="#bm"/><use transform="matrix(0.05,0,0,0.05,93.85000000000001,0)" xlink:href="#bQ"/><use transform="matrix(0.05,0,0,0.05,99.80000000000001,0)" xlink:href="#cj"/></g><g id="aY"><use transform="matrix(0.05,0,0,0.05,0,0)" xlink:href="#bP"/><use transform="matrix(0.05,0,0,0.05,3.95,0)" xlink:href="#bo"/><use transform="matrix(0.05,0,0,0.05,7.9,0)" xlink:href="#ck"/><use transform="matrix(0.05,0,0,0.05,16.9,0)" xlink:href="#bj"/></g><g id="aZ"><use transform="matrix(0.05,0,0,0.05,0,0)" xlink:href="#bo"/><use transform="matrix(0.05,0,0,0.05,3.95,0)" xlink:href="#by"/><use transform="matrix(0.05,0,0,0.05,13.949999999999998,0)" xlink:href="#bp"/><use transform="matrix(0.05,0,0,0.05,22.95,0)" xlink:href="#bo"/><use transform="matrix(0.05,0,0,0.05,26.899999999999995,0)" xlink:href="#bk"/><use transform="matrix(0.05,0,0,0.05,36.9,0)" xlink:href="#bj"/></g><g id="ba"><use transform="matrix(0.05,0,0,0.05,0,0)" xlink:href="#bi"/><use transform="matrix(0.05,0,0,0.05,12.950000000000001,0)" xlink:href="#bj"/><use transform="matrix(0.05,0,0,0.05,22.950000000000003,0)" xlink:href="#br"/><use transform="matrix(0.05,0,0,0.05,32.95,0)" xlink:href="#bt"/><use transform="matrix(0.05,0,0,0.05,41.95,0)" xlink:href="#bs"/></g><g id="bb"><use transform="matrix(0.05,0,0,0.05,0,0)" xlink:href="#bt"/><use transform="matrix(0.05,0,0,0.05,9,0)" xlink:href="#bz"/><use transform="matrix(0.05,0,0,0.05,19,0)" xlink:href="#bG"/><use transform="matrix(0.05,0,0,0.05,33.95,0)" xlink:href="#bq"/><use transform="matrix(0.05,0,0,0.05,43.95,0)" xlink:href="#bz"/><use transform="matrix(0.05,0,0,0.05,53.95,0)" xlink:href="#by"/><use transform="matrix(0.05,0,0,0.05,63.95,0)" xlink:href="#bj"/><use transform="matrix(0.05,0,0,0.05,73.95,0)" xlink:href="#by"/><use transform="matrix(0.05,0,0,0.05,83.95,0)" xlink:href="#bs"/><use transform="matrix(0.05,0,0,0.05,88.95,0)" xlink:href="#bp"/><use transform="matrix(0.05,0,0,0.05,97.95,0)" xlink:href="#cj"/></g><g id="bc"><use transform="matrix(0.05,0,0,0.05,0,0)" xlink:href="#br"/><use transform="matrix(0.05,0,0,0.05,10,0)" xlink:href="#by"/><use transform="matrix(0.05,0,0,0.05,20,0)" xlink:href="#bk"/></g><g id="bd"><use transform="matrix(0.05,0,0,0.05,0,0)" xlink:href="#bj"/><use transform="matrix(0.05,0,0,0.05,10,0)" xlink:href="#by"/><use transform="matrix(0.05,0,0,0.05,20,0)" xlink:href="#br"/><use transform="matrix(0.05,0,0,0.05,30,0)" xlink:href="#bN"/><use transform="matrix(0.05,0,0,0.05,40,0)" xlink:href="#bP"/><use transform="matrix(0.05,0,0,0.05,43.95,0)" xlink:href="#bj"/></g><g id="be"><use transform="matrix(0.05,0,0,0.05,0,0)" xlink:href="#bt"/><use transform="matrix(0.05,0,0,0.05,9,0)" xlink:href="#bz"/><use transform="matrix(0.05,0,0,0.05,19,0)" xlink:href="#bG"/><use transform="matrix(0.05,0,0,0.05,33.95,0)" xlink:href="#bN"/><use transform="matrix(0.05,0,0,0.05,43.95,0)" xlink:href="#bo"/><use transform="matrix(0.05,0,0,0.05,47.900000000000006,0)" xlink:href="#by"/><use transform="matrix(0.05,0,0,0.05,57.900000000000006,0)" xlink:href="#bo"/><use transform="matrix(0.05,0,0,0.05,61.85,0)" xlink:href="#by"/><use transform="matrix(0.05,0,0,0.05,71.85000000000001,0)" xlink:href="#bS"/></g><g id="bf"><use transform="matrix(0.05,0,0,0.05,0,0)" xlink:href="#bp"/><use transform="matrix(0.05,0,0,0.05,9,0)" xlink:href="#bj"/><use transform="matrix(0.05,0,0,0.05,19,0)" xlink:href="#bP"/><use transform="matrix(0.05,0,0,0.05,22.95,0)" xlink:href="#bj"/><use transform="matrix(0.05,0,0,0.05,32.95,0)" xlink:href="#bt"/><use transform="matrix(0.05,0,0,0.05,41.95,0)" xlink:href="#bs"/><use transform="matrix(0.05,0,0,0.05,46.95,0)" xlink:href="#bz"/><use transform="matrix(0.05,0,0,0.05,56.95,0)" xlink:href="#bH"/><use transform="matrix(0.05,0,0,0.05,62.900000000000006,0)" xlink:href="#bp"/></g><g id="bg"><use transform="matrix(0.05,0,0,0.05,0,0)" xlink:href="#bk"/><use transform="matrix(0.05,0,0,0.05,10,0)" xlink:href="#bo"/><use transform="matrix(0.05,0,0,0.05,13.949999999999998,0)" xlink:href="#bp"/><use transform="matrix(0.05,0,0,0.05,22.95,0)" xlink:href="#bq"/><use transform="matrix(0.05,0,0,0.05,32.95,0)" xlink:href="#br"/><use transform="matrix(0.05,0,0,0.05,42.95,0)" xlink:href="#bs"/><use transform="matrix(0.05,0,0,0.05,47.95,0)" xlink:href="#bt"/><use transform="matrix(0.05,0,0,0.05,56.95,0)" xlink:href="#bu"/><use transform="matrix(0.05,0,0,0.05,66.95,0)" xlink:href="#bo"/><use transform="matrix(0.05,0,0,0.05,70.9,0)" xlink:href="#by"/><use transform="matrix(0.05,0,0,0.05,80.9,0)" xlink:href="#bS"/></g><g id="bh"><use transform="matrix(0.05,0,0,0.05,0,0)" xlink:href="#br"/><use transform="matrix(0.05,0,0,0.05,10,0)" xlink:href="#bt"/><use transform="matrix(0.05,0,0,0.05,19,0)" xlink:href="#bs"/><use transform="matrix(0.05,0,0,0.05,24,0)" xlink:href="#bo"/><use transform="matrix(0.05,0,0,0.05,27.950000000000003,0)" xlink:href="#bz"/><use transform="matrix(0.05,0,0,0.05,37.95,0)" xlink:href="#by"/><use transform="matrix(0.05,0,0,0.05,47.95,0)" xlink:href="#bp"/><use transform="matrix(0.05,0,0,0.05,56.95,0)" xlink:href="#bY"/></g></defs></g></svg>