<svg width="40" height="40" viewBox="0 0 40 40" fill="none" xmlns="http://www.w3.org/2000/svg">
<path fill-rule="evenodd" clip-rule="evenodd" d="M19.9998 1.66669C9.87484 1.66669 1.6665 9.87502 1.6665 20C1.6665 30.125 9.87484 38.3334 19.9998 38.3334C30.1248 38.3334 38.3332 30.125 38.3332 20C38.3332 9.87502 30.1248 1.66669 19.9998 1.66669ZM21.6665 26.6667C21.6665 27.1087 21.4909 27.5326 21.1783 27.8452C20.8658 28.1578 20.4419 28.3334 19.9998 28.3334C19.5578 28.3334 19.1339 28.1578 18.8213 27.8452C18.5088 27.5326 18.3332 27.1087 18.3332 26.6667V21.6667H13.3332C12.8911 21.6667 12.4672 21.4911 12.1547 21.1785C11.8421 20.866 11.6665 20.442 11.6665 20C11.6665 19.558 11.8421 19.1341 12.1547 18.8215C12.4672 18.5089 12.8911 18.3334 13.3332 18.3334H18.3332V13.3334C18.3332 12.8913 18.5088 12.4674 18.8213 12.1548C19.1339 11.8423 19.5578 11.6667 19.9998 11.6667C20.4419 11.6667 20.8658 11.8423 21.1783 12.1548C21.4909 12.4674 21.6665 12.8913 21.6665 13.3334V18.3334H26.6665C27.1085 18.3334 27.5325 18.5089 27.845 18.8215C28.1576 19.1341 28.3332 19.558 28.3332 20C28.3332 20.442 28.1576 20.866 27.845 21.1785C27.5325 21.4911 27.1085 21.6667 26.6665 21.6667H21.6665V26.6667Z" fill="#92929D"/>
</svg>
