<svg width="20" height="20" viewBox="0 0 20 20" fill="none" xmlns="http://www.w3.org/2000/svg">
<path d="M14.999 16.25C14.999 16.913 14.7356 17.5489 14.2668 18.0178C13.7979 18.4866 13.1621 18.75 12.499 18.75H3.74902C3.08598 18.75 2.4501 18.4866 1.98126 18.0178C1.51242 17.5489 1.24902 16.913 1.24902 16.25V7.5C1.24902 6.83696 1.51242 6.20107 1.98126 5.73223C2.4501 5.26339 3.08598 5 3.74902 5V6.25C3.4175 6.25 3.09956 6.3817 2.86514 6.61612C2.63072 6.85054 2.49902 7.16848 2.49902 7.5V16.25C2.49902 16.5815 2.63072 16.8995 2.86514 17.1339C3.09956 17.3683 3.4175 17.5 3.74902 17.5H12.499C12.8305 17.5 13.1485 17.3683 13.3829 17.1339C13.6173 16.8995 13.749 16.5815 13.749 16.25H14.999Z" fill="currentColor"/>
<path d="M7.49902 2.50049C7.1675 2.50049 6.84956 2.63218 6.61514 2.8666C6.38072 3.10102 6.24902 3.41897 6.24902 3.75049V12.5005C6.24902 12.832 6.38072 13.1499 6.61514 13.3844C6.84956 13.6188 7.1675 13.7505 7.49902 13.7505H16.249C16.5805 13.7505 16.8985 13.6188 17.1329 13.3844C17.3673 13.1499 17.499 12.832 17.499 12.5005V3.75049C17.499 3.41897 17.3673 3.10102 17.1329 2.8666C16.8985 2.63218 16.5805 2.50049 16.249 2.50049H7.49902ZM7.49902 1.25049H16.249C16.9121 1.25049 17.5479 1.51388 18.0168 1.98272C18.4856 2.45156 18.749 3.08745 18.749 3.75049V12.5005C18.749 13.1635 18.4856 13.7994 18.0168 14.2682C17.5479 14.7371 16.9121 15.0005 16.249 15.0005H7.49902C6.83598 15.0005 6.2001 14.7371 5.73126 14.2682C5.26242 13.7994 4.99902 13.1635 4.99902 12.5005V3.75049C4.99902 3.08745 5.26242 2.45156 5.73126 1.98272C6.2001 1.51388 6.83598 1.25049 7.49902 1.25049Z" fill="currentColor"/>
</svg>
