<svg width="16" height="16" viewBox="0 0 16 16" fill="none" xmlns="http://www.w3.org/2000/svg">
<path d="M15.8195 14.9506L12.4983 11.6293C13.6712 10.2325 14.2595 8.4369 14.1407 6.61687C14.0219 4.79684 13.2051 3.09292 11.8606 1.86045C10.5162 0.627978 8.7478 -0.0379031 6.92432 0.00166781C5.10085 0.0412387 3.36304 0.783207 2.07329 2.07284C0.783535 3.36248 0.0414135 5.10023 0.00168143 6.9237C-0.0380506 8.74717 0.627674 10.5156 1.86003 11.8602C3.09238 13.2048 4.79623 14.0217 6.61625 14.1407C8.43627 14.2597 10.232 13.6714 11.6288 12.4987L14.9501 15.8199C15.0654 15.9352 15.2217 16 15.3848 16C15.5478 16 15.7042 15.9352 15.8195 15.8199C15.9348 15.7047 15.9995 15.5483 15.9995 15.3853C15.9995 15.2222 15.9348 15.0659 15.8195 14.9506ZM1.24669 7.08647C1.24669 5.93146 1.58919 4.80239 2.23088 3.84203C2.87257 2.88167 3.78463 2.13317 4.85172 1.69116C5.91881 1.24916 7.09301 1.13351 8.22583 1.35884C9.35864 1.58418 10.3992 2.14037 11.2159 2.95708C12.0326 3.7738 12.5888 4.81436 12.8142 5.94718C13.0395 7.07999 12.9238 8.25419 12.4818 9.32128C12.0398 10.3884 11.2913 11.3004 10.331 11.9421C9.37061 12.5838 8.24154 12.9263 7.08653 12.9263C5.53825 12.9246 4.05388 12.3087 2.95907 11.2139C1.86427 10.1191 1.24844 8.63476 1.24669 7.08647Z" fill="#92929D"/>
</svg>
