<svg width="1024" height="256" viewBox="0 0 1024 256" fill="none" xmlns="http://www.w3.org/2000/svg">
<rect width="1024" height="256" fill="black"/>
<path d="M511.669 108.994V34L445 71.4799L511.669 108.994Z" fill="#666666"/>
<path d="M445 71.4799V146.486L511.669 108.994L445 71.4799Z" fill="#333333"/>
<path d="M511.658 108.994V34L578.338 71.4799L511.658 108.994Z" fill="#333333"/>
<path d="M578.338 71.4799V146.486L511.658 108.994L578.338 71.4799Z" fill="#666666"/>
<path d="M511.669 108.994V184L578.327 146.486L511.669 108.994Z" fill="#333333"/>
<path d="M511.669 108.994L445 146.486L511.669 184V108.994Z" fill="#1C1C1C"/>
<path d="M529.536 121.511C531.209 121.313 532.744 120.486 533.829 119.198C534.914 117.909 535.467 116.256 535.376 114.574C535.286 112.892 534.558 111.308 533.341 110.143C532.124 108.979 530.509 108.322 528.825 108.305H528.595C527.728 108.335 526.875 108.535 526.085 108.895C525.295 109.254 524.584 109.766 523.992 110.4C523.4 111.035 522.939 111.78 522.636 112.593C522.332 113.406 522.191 114.27 522.222 115.138C522.305 116.773 522.978 118.323 524.117 119.501C520.109 127.401 513.977 133.177 504.78 138.011C498.906 141.218 492.174 142.495 485.534 141.663C480.229 140.951 476.107 138.597 473.512 134.704C471.664 132.051 470.596 128.933 470.43 125.704C470.263 122.475 471.005 119.264 472.57 116.435C474.506 112.728 477.253 109.505 480.608 107.008C480.137 105.469 479.46 102.885 479.069 100.991C461.983 113.369 463.751 130.111 468.942 138.011C472.823 143.902 480.723 147.554 489.45 147.554C491.832 147.571 494.208 147.297 496.523 146.738C503.642 145.47 510.354 142.515 516.096 138.12C521.838 133.724 526.443 128.017 529.525 121.476L529.536 121.511ZM550.286 106.893C541.318 96.3976 528.124 90.6217 513.036 90.6217H511.152C510.612 89.5626 509.79 88.6726 508.777 88.0488C507.765 87.4251 506.6 87.0917 505.411 87.085H505.17C503.419 87.117 501.752 87.8433 500.536 89.1042C499.321 90.365 498.656 92.0571 498.688 93.8083C498.72 95.5594 499.446 97.2261 500.707 98.4417C501.968 99.6573 503.66 100.322 505.411 100.29H505.641C506.876 100.224 508.068 99.8133 509.083 99.1052C510.097 98.3971 510.894 97.4195 511.382 96.2828H513.506C522.444 96.268 531.184 98.9187 538.608 103.896C544.27 107.47 548.646 112.755 551.101 118.984C552.091 121.176 552.583 123.559 552.543 125.963C552.504 128.367 551.933 130.732 550.872 132.89C549.4 135.887 547.093 138.395 544.228 140.111C541.364 141.826 538.064 142.676 534.727 142.558C530.751 142.504 526.826 141.665 523.175 140.09C521.877 141.238 519.512 143.144 517.87 144.327C522.613 146.631 527.801 147.877 533.073 147.978C544.384 147.978 552.755 141.732 555.935 135.485C559.38 128.653 559.116 116.86 550.286 106.847V106.893ZM490.403 123.509C490.468 125.217 491.192 126.833 492.423 128.019C493.654 129.205 495.296 129.868 497.006 129.87H497.235C498.941 129.776 500.543 129.024 501.706 127.773C502.869 126.523 503.502 124.87 503.472 123.163C503.442 121.455 502.752 119.825 501.546 118.616C500.341 117.406 498.713 116.711 497.006 116.676H496.765C496.484 116.659 496.203 116.698 495.938 116.791C491.164 108.942 489.02 99.774 489.817 90.6217C490.145 83.9511 492.577 77.5556 496.765 72.3526C500.209 67.9892 506.789 65.8648 511.267 65.75C523.761 65.5089 529.066 81.0681 529.422 87.3262C530.949 87.6707 533.544 88.4744 535.312 89.0945C533.9 69.9871 522.107 60.0889 510.797 60.0889C500.186 60.0889 490.403 67.748 486.51 79.07C481.09 94.1585 484.627 108.661 491.23 120.087C490.566 121.105 490.274 122.322 490.403 123.531V123.509Z" fill="white"/>
<path d="M434.366 206.955L429.529 220.735H426.436L420 201.691H423.895L428.251 215.283L432.914 201.614H436.091L440.761 215.311L445.117 201.691H448.607L442.325 220.735H439.197L434.366 206.955Z" fill="white"/>
<path d="M463.504 214.082V214.459H452.768C452.797 215.471 453.226 216.431 453.962 217.127C454.697 217.823 455.679 218.199 456.691 218.173C458.855 218.173 459.735 217.077 459.979 216.7H463.344C463.127 218.096 461.249 221 456.691 221C452.314 221 449.347 217.956 449.347 213.901C449.303 212.958 449.455 212.016 449.795 211.136C450.134 210.255 450.654 209.455 451.32 208.787C451.986 208.118 452.784 207.596 453.663 207.252C454.542 206.909 455.483 206.753 456.426 206.794C460.593 206.794 463.504 209.677 463.504 214.082ZM452.872 212.106H459.923C459.735 211.329 459.285 210.641 458.65 210.155C458.015 209.67 457.232 209.417 456.433 209.44C455.618 209.385 454.812 209.624 454.159 210.114C453.505 210.603 453.049 211.31 452.872 212.106V212.106Z" fill="white"/>
<path d="M470.262 220.651H466.925V201H470.29V209.279C470.786 208.507 471.476 207.876 472.289 207.451C473.103 207.025 474.014 206.818 474.932 206.85C478.485 206.85 481.368 209.489 481.368 213.9C481.368 218.312 478.485 220.944 474.932 220.944C474.018 220.986 473.108 220.792 472.29 220.382C471.472 219.971 470.774 219.357 470.262 218.599V220.651ZM474.08 217.956C476.405 217.956 477.899 216.19 477.899 213.9C477.899 211.611 476.405 209.817 474.101 209.817C471.797 209.817 470.255 211.555 470.255 213.88C470.255 216.204 471.756 217.956 474.101 217.956H474.08Z" fill="white"/>
<path d="M491.225 220.986C486.338 220.986 484.307 217.942 484.098 215.401H487.644C487.86 216.497 488.928 217.859 491.225 217.859C493.522 217.859 494.778 216.839 494.778 215.136C494.778 213.433 493.654 212.49 491.707 212.49H488.126V209.391H491.616C493.242 209.391 494.227 208.567 494.227 206.99C494.227 205.412 493.026 204.504 491.134 204.504C489.103 204.504 488.223 205.684 488.007 206.829H484.516C484.593 204.295 486.708 201.412 491.113 201.412C495.386 201.412 497.787 203.506 497.787 206.745C497.807 207.583 497.569 208.406 497.106 209.104C496.643 209.801 495.976 210.34 495.197 210.647C496.593 211.073 498.373 212.435 498.373 215.346C498.352 218.703 495.742 220.986 491.225 220.986Z" fill="white"/>
<path d="M502.178 211.122H511.099V214.27H502.178V211.122Z" fill="white"/>
<path d="M515.825 201.691H526.457C530.646 201.691 532.949 203.618 532.949 207.353C533.017 208.509 532.681 209.653 531.998 210.589C531.316 211.524 530.329 212.194 529.208 212.483L533.668 220.651H529.878L525.578 212.853H519.435V220.651H515.86L515.825 201.691ZM519.4 204.874V209.761H526.129C528.223 209.761 529.229 208.958 529.229 207.38C529.229 205.649 528.188 204.902 526.129 204.902L519.4 204.874Z" fill="white"/>
<path d="M550.136 214.082V214.459H539.406C539.436 215.471 539.865 216.431 540.6 217.127C541.336 217.823 542.317 218.199 543.33 218.173C545.494 218.173 546.373 217.077 546.611 216.7H549.975C549.766 218.096 547.923 221 543.33 221C538.953 221 535.986 217.956 535.986 213.901C535.941 212.958 536.094 212.016 536.433 211.136C536.773 210.255 537.292 209.455 537.958 208.787C538.624 208.118 539.422 207.596 540.301 207.252C541.181 206.909 542.122 206.753 543.064 206.794C547.225 206.794 550.136 209.677 550.136 214.082ZM539.511 212.106H546.562C546.373 211.329 545.924 210.641 545.289 210.155C544.653 209.67 543.871 209.417 543.071 209.44C542.257 209.384 541.449 209.622 540.796 210.112C540.142 210.601 539.687 211.309 539.511 212.106Z" fill="white"/>
<path d="M563.783 218.515C563.291 219.298 562.599 219.936 561.778 220.363C560.957 220.79 560.037 220.991 559.113 220.944C555.623 220.944 552.677 218.305 552.677 213.9C552.677 209.496 555.588 206.85 559.113 206.85C560.023 206.8 560.929 206.988 561.744 207.394C562.559 207.801 563.255 208.412 563.763 209.168V201H567.176V220.651H563.783V218.515ZM560.021 209.817C557.668 209.817 556.146 211.555 556.146 213.88C556.146 216.204 557.668 217.935 560.021 217.935C562.373 217.935 563.811 216.197 563.811 213.88C563.811 211.562 562.317 209.817 560.021 209.817Z" fill="white"/>
<path d="M571.455 214.703V207.143H574.869V214.326C574.869 216.421 575.993 217.817 578.101 217.817C580.209 217.817 581.333 216.421 581.333 214.326V207.143H584.775V214.703C584.775 218.333 582.345 220.986 578.157 220.986C573.968 220.986 571.455 218.326 571.455 214.703Z" fill="white"/>
<path d="M595.113 216.19L591.106 220.651H587.19L593.172 213.977L587.19 207.143H591.567L595.385 211.548L599.344 207.143H603.246L597.291 213.761L603.246 220.651H599.057L595.113 216.19Z" fill="white"/>
</svg>
