<svg width="1024" height="512" viewBox="0 0 1024 512" fill="none" xmlns="http://www.w3.org/2000/svg">
<rect width="1024" height="512" fill="black"/>
<path d="M512.338 218.989V69L379 143.96L512.338 218.989Z" fill="#666666"/>
<path d="M379 143.96V293.971L512.338 218.989L379 143.96Z" fill="#333333"/>
<path d="M512.315 218.989V69L645.677 143.96L512.315 218.989Z" fill="#333333"/>
<path d="M645.677 143.96V293.971L512.315 218.989L645.677 143.96Z" fill="#666666"/>
<path d="M512.338 218.989V369L645.654 293.971L512.338 218.989Z" fill="#333333"/>
<path d="M512.338 218.989L379 293.971L512.338 369V218.989Z" fill="#1C1C1C"/>
<path d="M548.073 244.021C551.418 243.626 554.488 241.972 556.658 239.395C558.827 236.818 559.934 233.512 559.753 230.148C559.571 226.784 558.116 223.615 555.681 221.286C553.247 218.958 550.018 217.643 546.649 217.611H546.19C544.455 217.67 542.749 218.07 541.17 218.789C539.59 219.508 538.168 220.532 536.984 221.801C535.801 223.07 534.879 224.56 534.271 226.186C533.664 227.811 533.382 229.541 533.444 231.275C533.611 234.546 534.957 237.647 537.233 240.002C529.218 255.802 516.955 267.354 498.559 277.023C486.813 283.435 473.347 285.99 460.069 284.326C449.459 282.902 441.214 278.194 436.024 270.409C432.328 265.102 430.192 258.867 429.859 252.409C429.526 245.95 431.009 239.528 434.14 233.87C438.011 226.455 443.507 220.01 450.216 215.015C449.275 211.938 447.92 206.771 447.139 202.981C412.966 227.738 416.503 261.222 426.883 277.023C434.646 288.804 450.446 296.107 467.9 296.107C472.664 296.142 477.415 295.595 482.047 294.477C496.285 291.941 509.708 286.03 521.192 277.24C532.675 268.449 541.885 257.034 548.05 243.952L548.073 244.021ZM589.572 214.786C571.636 193.795 545.248 182.243 515.071 182.243H511.305C510.223 180.125 508.58 178.345 506.555 177.098C504.53 175.85 502.201 175.183 499.822 175.17H499.34C495.838 175.234 492.504 176.687 490.073 179.208C487.642 181.73 486.312 185.114 486.376 188.617C486.44 192.119 487.892 195.452 490.414 197.883C492.936 200.315 496.32 201.644 499.822 201.581H500.281C502.752 201.448 505.137 200.627 507.166 199.21C509.195 197.794 510.788 195.839 511.764 193.566H516.013C533.889 193.536 551.368 198.837 566.216 208.792C577.539 215.94 586.291 226.51 591.202 238.969C593.181 243.351 594.166 248.118 594.087 252.926C594.007 257.734 592.865 262.465 590.743 266.78C587.8 272.775 583.186 277.79 577.457 281.221C571.727 284.652 565.127 286.353 558.453 286.117C550.502 286.007 542.651 284.33 535.35 281.179C532.755 283.476 528.024 287.288 524.74 289.654C534.227 294.261 544.602 296.753 555.146 296.957C577.767 296.957 594.509 284.464 600.871 271.97C607.761 258.306 607.232 234.72 589.572 214.694V214.786ZM469.806 248.017C469.937 251.433 471.385 254.666 473.846 257.038C476.308 259.41 479.593 260.737 483.011 260.74H483.471C486.881 260.551 490.086 259.048 492.411 256.547C494.737 254.046 496.003 250.74 495.944 247.325C495.884 243.91 494.504 240.651 492.093 238.232C489.681 235.813 486.426 234.423 483.011 234.353H482.529C481.968 234.317 481.406 234.395 480.876 234.582C471.328 218.884 467.04 200.548 468.635 182.243C469.29 168.902 474.154 156.111 482.529 145.705C489.419 136.978 502.578 132.73 511.535 132.5C536.521 132.018 547.131 163.136 547.843 175.652C550.898 176.341 556.088 177.949 559.625 179.189C556.8 140.974 533.214 121.178 510.593 121.178C489.373 121.178 469.806 136.496 462.021 159.14C451.181 189.317 458.254 218.322 471.46 241.173C470.132 243.211 469.548 245.644 469.806 248.063V248.017Z" fill="white"/>
<path d="M318.916 407.887L306.822 442.337H299.091L283 394.728H292.738L303.628 428.707L315.286 394.536H323.227L334.902 428.777L345.792 394.728H354.518L338.811 442.337H330.993L318.916 407.887Z" fill="white"/>
<path d="M391.761 425.705V426.647H364.92C364.993 429.178 366.066 431.576 367.905 433.317C369.743 435.057 372.197 435.998 374.728 435.932C380.138 435.932 382.337 433.192 382.948 432.25H391.359C390.818 435.74 386.124 443 374.728 443C363.785 443 356.368 435.391 356.368 425.251C356.257 422.895 356.638 420.541 357.487 418.339C358.336 416.138 359.634 414.138 361.299 412.466C362.964 410.795 364.959 409.489 367.157 408.631C369.355 407.773 371.707 407.383 374.064 407.485C384.483 407.485 391.761 414.693 391.761 425.705ZM365.181 420.766H382.808C382.337 418.824 381.213 417.102 379.625 415.888C378.037 414.675 376.08 414.043 374.082 414.099C372.046 413.963 370.03 414.561 368.397 415.784C366.764 417.007 365.623 418.775 365.181 420.766V420.766Z" fill="white"/>
<path d="M408.654 442.127H400.312V393H408.724V413.698C409.966 411.767 411.689 410.191 413.724 409.126C415.758 408.062 418.035 407.544 420.33 407.625C429.213 407.625 436.42 414.222 436.42 425.251C436.42 436.281 429.213 442.86 420.33 442.86C418.044 442.965 415.77 442.481 413.726 441.454C411.681 440.427 409.935 438.892 408.654 436.996V442.127ZM418.201 435.391C424.012 435.391 427.747 430.975 427.747 425.251C427.747 419.527 424.012 415.042 418.253 415.042C412.494 415.042 408.637 419.387 408.637 425.199C408.637 431.01 412.389 435.391 418.253 435.391H418.201Z" fill="white"/>
<path d="M461.063 442.965C448.846 442.965 443.768 435.356 443.244 429.003H452.11C452.651 431.743 455.321 435.147 461.063 435.147C466.804 435.147 469.946 432.599 469.946 428.34C469.946 424.082 467.136 421.726 462.267 421.726H453.314V413.977H462.04C466.106 413.977 468.567 411.918 468.567 407.974C468.567 404.03 465.565 401.761 460.836 401.761C455.757 401.761 453.558 404.71 453.017 407.572H444.291C444.483 401.237 449.771 394.03 460.783 394.03C471.464 394.03 477.467 399.265 477.467 407.363C477.517 409.456 476.922 411.514 475.764 413.259C474.606 415.004 472.941 416.351 470.993 417.119C474.483 418.183 478.933 421.586 478.933 428.864C478.881 437.258 472.354 442.965 461.063 442.965Z" fill="white"/>
<path d="M488.445 418.305H510.748V426.176H488.445V418.305Z" fill="white"/>
<path d="M522.563 394.728H549.143C559.614 394.728 565.373 399.545 565.373 408.881C565.542 411.772 564.701 414.632 562.995 416.971C561.289 419.311 558.823 420.986 556.019 421.709L567.171 442.127H557.694L546.944 422.633H531.586V442.127H522.651L522.563 394.728ZM531.499 402.686V414.902H548.322C553.558 414.902 556.071 412.895 556.071 408.951C556.071 404.623 553.471 402.756 548.322 402.756L531.499 402.686Z" fill="white"/>
<path d="M608.34 425.705V426.647H581.516C581.589 429.178 582.663 431.576 584.501 433.317C586.34 435.057 588.793 435.998 591.324 435.932C596.734 435.932 598.933 433.192 599.527 432.25H607.939C607.415 435.74 602.808 443 591.324 443C580.382 443 572.965 435.391 572.965 425.251C572.853 422.895 573.234 420.541 574.083 418.339C574.932 416.138 576.231 414.138 577.896 412.466C579.561 410.795 581.556 409.489 583.754 408.631C585.952 407.773 588.304 407.383 590.661 407.485C601.062 407.485 608.34 414.693 608.34 425.705ZM581.778 420.766H599.404C598.934 418.824 597.81 417.102 596.222 415.888C594.633 414.675 592.677 414.043 590.678 414.099C588.642 413.96 586.624 414.556 584.99 415.78C583.356 417.003 582.217 418.773 581.778 420.766Z" fill="white"/>
<path d="M642.459 436.787C641.227 438.745 639.497 440.34 637.445 441.408C635.393 442.475 633.093 442.976 630.783 442.86C622.057 442.86 614.692 436.263 614.692 425.251C614.692 414.239 621.97 407.625 630.783 407.625C633.056 407.501 635.323 407.97 637.36 408.986C639.398 410.001 641.137 411.529 642.406 413.419V393H650.94V442.127H642.459V436.787ZM633.052 415.042C627.171 415.042 623.366 419.387 623.366 425.199C623.366 431.01 627.171 435.339 633.052 435.339C638.933 435.339 642.528 430.993 642.528 425.199C642.528 419.405 638.794 415.042 633.052 415.042Z" fill="white"/>
<path d="M661.638 427.258V408.358H670.172V426.316C670.172 431.551 672.982 435.042 678.253 435.042C683.523 435.042 686.333 431.551 686.333 426.316V408.358H694.937V427.258C694.937 436.333 688.863 442.965 678.392 442.965C667.921 442.965 661.638 436.316 661.638 427.258Z" fill="white"/>
<path d="M720.783 430.975L710.766 442.127H700.975L715.931 425.443L700.975 408.358H711.917L721.464 419.37L731.359 408.358H741.115L726.228 424.902L741.115 442.127H730.643L720.783 430.975Z" fill="white"/>
</svg>
