<svg width="24" height="24" fill="none" xmlns="http://www.w3.org/2000/svg"><path fillRule="evenodd" clipRule="evenodd" d="M9.582 21.7c5.352 1.337 10.783-1.922 12.119-7.282 1.336-5.36-1.93-10.79-7.283-12.118A9.994 9.994 0 002.3 9.582C.963 14.934 4.222 20.364 9.582 21.7zm4.976-13.47c1.39.477 2.398 1.196 2.203 2.524-.14.969-.68 1.445-1.406 1.61.984.515 1.484 1.304 1.008 2.663-.586 1.696-1.992 1.836-3.867 1.485l-.454 1.82-1.093-.274.445-1.796c-.281-.07-.578-.149-.875-.227l-.453 1.805-1.094-.274.453-1.82c-.147-.04-.295-.078-.444-.116l-.337-.087-1.43-.36.547-1.257s.805.21.797.195c.305.078.445-.125.5-.258l.719-2.875a.563.563 0 00.117.031.485.485 0 00-.105-.036l-.012-.003.516-2.054c.015-.235-.063-.532-.508-.641.015-.008-.797-.195-.797-.195l.289-1.172 1.516.375V7.3c.226.054.46.109.703.164l.445-1.797 1.094.273-.438 1.766c.297.062.594.133.883.203l.438-1.758 1.093.274-.453 1.804zm-3.48 6.53c.888.236 2.866.763 3.175-.49.323-1.276-1.567-1.703-2.496-1.912l-.277-.065-.602 2.414c.058.014.125.032.2.052zm.859-3.53c.742.2 2.373.641 2.66-.5.287-1.155-1.284-1.507-2.057-1.68a9.4 9.4 0 01-.232-.054l-.547 2.187.176.047z" fill="#30CB7A"/></svg>
