<svg width="24" height="24" viewBox="0 0 24 24" fill="none" xmlns="http://www.w3.org/2000/svg">
<path fill-rule="evenodd" clip-rule="evenodd" d="M9.58187 21.7004C14.9342 23.0366 20.3648 19.7783 21.7009 14.4183C23.037 9.0582 19.7709 3.62788 14.4185 2.2996C9.05835 0.963426 3.63569 4.22171 2.2996 9.58171C0.963426 14.934 4.22171 20.3643 9.58187 21.7004ZM14.5581 8.23031C15.9487 8.70687 16.9565 9.42562 16.7612 10.7537C16.6206 11.7225 16.0815 12.1991 15.355 12.3631C16.3394 12.8788 16.8394 13.6678 16.3628 15.0272C15.7769 16.7225 14.3706 16.8631 12.4956 16.5116L12.0425 18.3319L10.9487 18.0584L11.394 16.2616C11.1128 16.1913 10.816 16.1132 10.5192 16.035L10.519 16.035L10.0659 17.8397L8.97217 17.5663L9.42529 15.7459C9.27752 15.7056 9.12975 15.6679 8.98051 15.6298C8.86937 15.6014 8.75742 15.5728 8.64404 15.5428L7.21435 15.1834L7.76123 13.9256C7.76123 13.9256 8.56592 14.1366 8.5581 14.1209C8.86279 14.1991 9.00342 13.9959 9.0581 13.8631L9.77685 10.9881C9.81591 11.0037 9.85497 11.0116 9.89403 11.0194L9.89404 11.0194C9.85285 10.9988 9.8177 10.9903 9.78857 10.9832C9.78455 10.9822 9.78064 10.9813 9.77685 10.9803L10.2925 8.92562C10.3081 8.69125 10.23 8.39437 9.78467 8.285C9.80029 8.27719 8.98779 8.08968 8.98779 8.08968L9.27685 6.91781L10.7925 7.29281V7.30062C11.019 7.35531 11.2534 7.41 11.4956 7.46468L11.9409 5.66781L13.0347 5.94125L12.5972 7.70687C12.894 7.76937 13.1909 7.83969 13.48 7.91L13.9175 6.15218L15.0112 6.42562L14.5581 8.23031ZM11.0782 14.7593C11.9661 14.996 13.9436 15.523 14.2534 14.2694C14.5757 12.9941 12.6859 12.5672 11.7573 12.3575C11.6505 12.3334 11.5565 12.3121 11.48 12.2928L10.8784 14.7069C10.9361 14.7215 11.0033 14.7394 11.0782 14.7593ZM11.9365 11.2299C12.6789 11.4305 14.3102 11.8711 14.5972 10.7303C14.8844 9.57451 13.3125 9.22264 12.5395 9.04961C12.4504 9.02966 12.3719 9.01209 12.3081 8.99594L11.7612 11.1834C11.8116 11.1962 11.8705 11.2121 11.9365 11.2299Z" fill="url(#paint0_linear_61:32)"/>
<defs>
<linearGradient id="paint0_linear_61:32" x1="2" y1="22" x2="22" y2="1.99999" gradientUnits="userSpaceOnUse">
<stop stop-color="#FA9A27"/>
<stop offset="1" stop-color="#FCCC35"/>
</linearGradient>
</defs>
</svg>
