<svg width="24" height="24" fill="none" xmlns="http://www.w3.org/2000/svg"><path fillRule="evenodd" clipRule="evenodd" d="M12 22c5.523 0 10-4.477 10-10S17.523 2 12 2 2 6.477 2 12s4.477 10 10 10zM10.226 8.477v2.773h2.104v1.5h-2.104v2.773h2.08c1.065 0 1.807-.525 2.227-1.575.23-.576.344-1.262.344-2.058 0-1.099-.173-1.94-.52-2.527-.341-.59-1.025-.886-2.05-.886h-2.08zm-2.19-1.875v4.648H6.83v1.5h1.207v4.648h4.65c1.631 0 2.837-.671 3.619-2.014.576-.996.864-2.212.864-3.648 0-.566-.069-1.162-.205-1.787a4.804 4.804 0 00-.77-1.743 3.564 3.564 0 00-1.838-1.37c-.444-.146-1-.224-1.67-.234h-4.65z" fill="#C2A633"/></svg>
