<svg width="24" height="24" fill="none" xmlns="http://www.w3.org/2000/svg"><path d="M12 22C6.477 22 2 17.523 2 12S6.477 2 12 2s10 4.477 10 10-4.477 10-10 10zM8.607 9.217l-1.543 7.052a.201.201 0 00.097.227l4.733 2.966a.204.204 0 00.217 0l4.733-2.966a.202.202 0 00.096-.227l-1.544-7.052a.2.2 0 00-.036-.081l-3.194-4.364a.195.195 0 00-.164-.083.194.194 0 00-.164.083L8.644 9.136a.201.201 0 00-.037.082v-.001zm-.871 5.854l1.104-5.043.631 1.981-1.735 3.062zm-.135 1.05l2.035-3.592 1.144 3.592H7.6zm.353.4h2.954l.736 2.312-3.69-2.312zm1.785-4.986l-.714-2.242L11.8 5.502v2.397l-2.06 3.636zm2.263 7.106l-.675-2.12h1.35l-.675 2.12zm.359.192l.736-2.312h2.954l-3.69 2.312zm2.803-8.805l1.104 5.043-1.735-3.062.631-1.98v-.002zm-.9 1.507L12.204 7.9V5.502l2.775 3.79-.715 2.243zm2.14 4.586h-3.179l1.144-3.592 2.035 3.592zm-4.402-7.767l2.097 3.7-1.295 4.067H11.2l-1.295-4.067 2.097-3.7z" fill="#E7EAEF"/></svg>
