<svg width="24" height="24" fill="none" xmlns="http://www.w3.org/2000/svg"><path d="M12 22C6.477 22 2 17.523 2 12S6.477 2 12 2s10 4.477 10 10-4.477 10-10 10zm5.466-12.334c-.5-.354-1.034-.732-1.557-1.107a.268.268 0 00-.037-.026.701.701 0 00-.205-.117l-.006-.004a1990.24 1990.24 0 01-4.194-1.033l-3.74-.923-.098-.027a.95.95 0 00-.38-.05.263.263 0 00-.107.042l-.035.029a.431.431 0 00-.098.158L7 6.632v.134l.006.02c.788 2.242 1.596 4.515 2.377 6.714.6 1.694 1.225 3.448 1.833 5.17a.307.307 0 00.278.205h.029a.324.324 0 00.288-.161L14.1 15.33c.557-.823 1.114-1.65 1.672-2.472l.684-1.014c.375-.556.763-1.13 1.147-1.69l.02-.029v-.035c.009-.103.011-.313-.156-.425zm-2.68 1.233c-.538.284-1.086.577-1.638.867l.965-1.049c.401-.439.82-.893 1.23-1.338l.009-.009c.034-.047.078-.09.124-.137.031-.032.066-.065.098-.103.214.15.43.302.638.451.15.108.304.217.46.325-.631.327-1.26.658-1.886.993zm-1.38-.14c-.414.454-.841.92-1.265 1.38a812.889 812.889 0 00-2.479-3.035L8.551 7.748l-.003-.004c-.084-.096-.165-.201-.245-.3-.052-.068-.107-.133-.162-.2.335.087.673.17 1.005.248.291.071.595.144.892.22l5.028 1.24c-.557.603-1.118 1.215-1.66 1.807zm-1.454 5.709c.032-.308.067-.624.096-.935l.078-.747c.04-.39.084-.793.119-1.19l.008-.07c.029-.252.058-.512.075-.773a.862.862 0 01.104-.05c.044-.02.087-.037.13-.064.667-.355 1.335-.709 2.004-1.06.668-.352 1.352-.715 2.03-1.075-.615.904-1.228 1.81-1.84 2.719-.516.763-1.047 1.551-1.576 2.328-.207.31-.424.626-.63.93-.23.34-.468.689-.698 1.038.029-.351.063-.706.1-1.051zM7.929 7.935c-.038-.106-.08-.214-.114-.316.78.955 1.565 1.915 2.331 2.847.396.483.791.963 1.187 1.45.078.09.156.187.231.28.098.12.196.247.303.367-.035.301-.063.606-.095.899-.02.205-.04.41-.064.619v.002c-.008.131-.026.264-.04.393l-.066.583-.004.02c-.051.592-.115 1.19-.176 1.77-.025.24-.048.485-.075.732-.014-.044-.031-.088-.046-.13a17.17 17.17 0 01-.127-.36l-.31-.87-2.936-8.286z" fill="#E91331"/></svg>
