<svg width="117" height="131" viewBox="0 0 117 131" fill="none" xmlns="http://www.w3.org/2000/svg">
<path d="M58.06 65.31V0L0 32.64L58.06 65.31Z" fill="#666666"/>
<path d="M0 32.64V97.96L58.06 65.31L0 32.64Z" fill="#333333"/>
<path d="M58.05 65.31V0L116.12 32.64L58.05 65.31Z" fill="#333333"/>
<path d="M116.12 32.64V97.96L58.05 65.31L116.12 32.64Z" fill="#666666"/>
<path d="M58.06 65.31V130.63L116.11 97.96L58.06 65.31Z" fill="#333333"/>
<path d="M58.06 65.31L0 97.96L58.06 130.63V65.31Z" fill="#1C1C1C"/>
<path d="M73.62 76.21C75.0768 76.0382 76.4134 75.3179 77.3581 74.1958C78.3028 73.0737 78.7847 71.6338 78.7057 70.1691C78.6267 68.7043 77.9929 67.3247 76.933 66.3106C75.8731 65.2965 74.4668 64.7242 73 64.71H72.8C72.0448 64.7358 71.302 64.9103 70.6142 65.2233C69.9264 65.5364 69.3071 65.9819 68.7917 66.5345C68.2762 67.0871 67.8747 67.736 67.6102 68.4438C67.3457 69.1517 67.2233 69.9048 67.25 70.66C67.3226 72.0844 67.9088 73.4344 68.9 74.46C65.41 81.34 60.07 86.37 52.06 90.58C46.9453 93.3722 41.0819 94.4847 35.3 93.76C30.68 93.14 27.09 91.09 24.83 87.7C23.2206 85.3895 22.2907 82.6742 22.1458 79.8622C22.0008 77.0501 22.6467 74.2537 24.01 71.79C25.6955 68.5612 28.0883 65.7548 31.01 63.58C30.6 62.24 30.01 59.99 29.67 58.34C14.79 69.12 16.33 83.7 20.85 90.58C24.23 95.71 31.11 98.89 38.71 98.89C40.7846 98.9053 42.8533 98.6669 44.87 98.18C51.0697 97.0759 56.9145 94.5022 61.9149 90.6744C66.9153 86.8467 70.9256 81.8764 73.61 76.18L73.62 76.21ZM91.69 63.48C83.88 54.34 72.39 49.31 59.25 49.31H57.61C57.1389 48.3877 56.4234 47.6125 55.5416 47.0693C54.6598 46.5261 53.6457 46.2358 52.61 46.23H52.4C50.875 46.2578 49.4235 46.8904 48.3649 47.9884C47.3062 49.0864 46.7271 50.56 46.755 52.085C46.7828 53.61 47.4153 55.0615 48.5134 56.1201C49.6114 57.1788 51.085 57.7578 52.61 57.73H52.81C53.8859 57.6721 54.9242 57.3146 55.8077 56.6979C56.6912 56.0813 57.3847 55.2299 57.81 54.24H59.66C67.4438 54.2272 75.0547 56.5355 81.52 60.87C86.4507 63.9827 90.2616 68.5853 92.4 74.01C93.2616 75.9184 93.6904 77.9938 93.6559 80.0874C93.6213 82.181 93.1241 84.2411 92.2 86.12C90.9186 88.7304 88.9094 90.9142 86.4146 92.4083C83.9199 93.9023 81.0461 94.6426 78.14 94.54C74.6779 94.4923 71.2592 93.7617 68.08 92.39C66.95 93.39 64.89 95.05 63.46 96.08C67.591 98.0863 72.1085 99.1713 76.7 99.26C86.55 99.26 93.84 93.82 96.61 88.38C99.61 82.43 99.38 72.16 91.69 63.44V63.48ZM39.54 77.95C39.5969 79.4375 40.2273 80.8452 41.2993 81.878C42.3713 82.9108 43.8014 83.4885 45.29 83.49H45.49C46.975 83.4078 48.3704 82.7534 49.3831 81.6642C50.3958 80.575 50.9472 79.1358 50.9213 77.6487C50.8954 76.1617 50.2943 74.7425 49.2443 73.6892C48.1943 72.6359 46.777 72.0305 45.29 72H45.08C44.8357 71.9846 44.5908 72.0186 44.36 72.1C40.2027 65.2643 38.3354 57.2804 39.03 49.31C39.3154 43.5007 41.4333 37.9311 45.08 33.4C48.08 29.6 53.81 27.75 57.71 27.65C68.59 27.44 73.21 40.99 73.52 46.44C74.85 46.74 77.11 47.44 78.65 47.98C77.42 31.34 67.15 22.72 57.3 22.72C48.06 22.72 39.54 29.39 36.15 39.25C31.43 52.39 34.51 65.02 40.26 74.97C39.6818 75.8573 39.4275 76.9169 39.54 77.97V77.95Z" fill="white"/>
</svg>
